<svg width="179" height="178" viewBox="0 0 179 178" fill="none" xmlns="http://www.w3.org/2000/svg">
<g id="Group 1000002233">
<g id="Layer 4">
<path id="Vector" d="M165.535 8.82645C168.813 8.82645 171.956 9.97491 174.274 12.0192C176.591 14.0635 177.893 16.8361 177.893 19.7271V123.111C177.893 126.002 176.591 128.775 174.274 130.819C171.956 132.864 168.813 134.012 165.535 134.012H13.4651C10.1874 134.012 7.04403 132.864 4.72636 130.819C2.4087 128.775 1.10665 126.002 1.10665 123.111V19.7271C1.10665 16.8361 2.4087 14.0635 4.72636 12.0192C7.04403 9.97491 10.1874 8.82645 13.4651 8.82645H165.535ZM165.535 7.85034H13.4651C9.89506 7.85357 6.47229 9.10591 3.94788 11.3325C1.42348 13.5592 0.00366197 16.5782 0 19.7271V123.111C0.00366197 126.26 1.42348 129.279 3.94788 131.506C6.47229 133.733 9.89506 134.985 13.4651 134.988H165.535C169.105 134.985 172.528 133.733 175.052 131.506C177.577 129.279 178.996 126.26 179 123.111V19.7271C178.996 16.5782 177.577 13.5592 175.052 11.3325C172.528 9.10591 169.105 7.85357 165.535 7.85034Z" fill="white"/>
<path id="Vector_2" d="M165.534 8.7782H13.4639C6.63854 8.7782 1.10547 13.6586 1.10547 19.6789V123.063C1.10547 129.083 6.63854 133.964 13.4639 133.964H165.534C172.359 133.964 177.892 129.083 177.892 123.063V19.6789C177.892 13.6586 172.359 8.7782 165.534 8.7782Z" fill="#F5EBDD"/>
<path id="Vector_3" d="M1.10645 32.2531H178.447" stroke="white" stroke-width="4" stroke-miterlimit="10"/>
<path id="Vector_4" d="M14.1095 24.4446C16.707 24.4446 18.8127 22.5873 18.8127 20.2962C18.8127 18.005 16.707 16.1477 14.1095 16.1477C11.512 16.1477 9.40625 18.005 9.40625 20.2962C9.40625 22.5873 11.512 24.4446 14.1095 24.4446Z" fill="white"/>
<path id="Vector_5" d="M28.3634 24.4446C30.9609 24.4446 33.0667 22.5873 33.0667 20.2962C33.0667 18.005 30.9609 16.1477 28.3634 16.1477C25.7659 16.1477 23.6602 18.005 23.6602 20.2962C23.6602 22.5873 25.7659 24.4446 28.3634 24.4446Z" fill="white"/>
<path id="Vector_6" d="M42.6144 24.4446C45.212 24.4446 47.3177 22.5873 47.3177 20.2962C47.3177 18.005 45.212 16.1477 42.6144 16.1477C40.0169 16.1477 37.9111 18.005 37.9111 20.2962C37.9111 22.5873 40.0169 24.4446 42.6144 24.4446Z" fill="white"/>
<path id="Vector_7" d="M154.378 78.1304C154.378 78.1304 166.827 65.1969 152.994 54.2158C144.539 47.505 134.383 49.3743 134.383 49.3743C134.768 45.2893 135.54 34.7327 125.505 28.266C115.471 21.7993 102.73 25.2034 98.0991 30.3085C93.4677 35.4135 94.6269 44.9501 93.0832 51.7584C91.5394 58.5667 92.6959 62.9836 97.3272 65.3775C101.959 67.7714 107.364 66.0584 107.364 66.0584L106.205 72.1859C106.205 72.1859 97.1086 73.2498 89.6387 76.1781C81.1729 79.4969 62.2492 88.6235 62.2492 88.6235C61.6959 86.9153 58.6526 59.0963 57.2693 50.0673C56.2153 43.1882 52.5661 34.6936 49.7995 36.4018C47.1159 38.0588 48.1395 43.4786 48.1395 43.4786L34.0298 56.412C34.0298 56.412 27.0551 100.759 43.7129 112.782C55.886 121.567 87.7021 107.414 87.7021 107.414L83.5522 134.012H121.516C121.516 134.012 114.397 135.682 99.5986 141.577C82.4455 148.41 72.4857 167.444 73.5924 168.908C74.699 170.372 78.019 169.152 82.4455 164.272C78.5723 176.961 82.4455 175.985 84.9355 175.741C87.467 178.952 90.7454 175.009 90.7454 175.009C90.7454 175.009 95.172 178.669 102.089 161.587C105.231 160.281 108.124 158.552 110.665 156.463C110.665 156.463 154.654 154.023 163.231 140.357C171.807 126.692 165.997 91.0638 154.378 78.1304Z" fill="#A15842"/>
<path id="Vector_8" d="M113.744 145.933L114.455 147.336L118.715 155.757C131.829 154.327 156.969 150.335 163.23 140.357C171.806 126.691 165.997 91.0636 154.377 78.1302C144.694 87.5228 129.721 84.9629 123.717 77.1541C122.611 77.3966 121.484 77.5598 120.347 77.6421C118.575 77.7866 116.789 77.7242 115.036 77.4567C112.934 77.1474 110.944 76.4077 109.226 75.297C107.037 73.8451 106.238 72.2735 106.238 72.2735L105.867 72.2272C104.168 72.4492 96.264 73.5791 89.638 76.178C81.1721 79.4967 62.2485 88.6233 62.2485 88.6233C61.9995 87.8571 61.2497 81.8223 60.3727 74.5918L49.6272 78.2522L48.4624 78.65L42.9043 80.5485L32.7979 83.999C33.5227 95.4878 36.2423 107.389 43.7122 112.782C55.8853 121.567 87.7014 107.413 87.7014 107.413L83.5514 134.012H121.515C121.515 134.012 117.622 134.927 109.618 137.782L111.461 141.421L113.744 145.933Z" fill="#FFB7D5"/>
<path id="Vector_9" d="M61.4188 102.044C58.0436 102.044 54.8065 103.227 52.4199 105.332C50.0332 107.437 48.6924 110.292 48.6924 113.269C48.6925 113.853 48.7433 114.435 48.8445 115.012C56.0986 116.72 66.0695 114.714 74.0982 112.327C73.8305 109.524 72.3788 106.911 70.0306 105.006C67.6823 103.102 64.6088 102.045 61.4188 102.044Z" fill="#FF7235"/>
<path id="Vector_10" d="M48.9687 81.7905C48.9681 80.7303 48.7977 79.6754 48.4624 78.6572L42.9043 80.5558L32.7979 84.0063C32.9832 86.9517 33.3014 89.9239 33.7966 92.8059C35.6401 93.1243 37.5407 93.0788 39.3619 92.6727C41.1831 92.2665 42.8798 91.5097 44.3301 90.4567C45.7805 89.4037 46.9486 88.0805 47.7506 86.5822C48.5526 85.0838 48.9686 83.4475 48.9687 81.7905Z" fill="#FF7235"/>
<path id="Vector_11" d="M85.7646 89.5994C87.8852 89.5985 89.9718 89.1302 91.835 88.2371C93.6982 87.344 95.2788 86.0544 96.4333 84.4855C97.5877 82.9166 98.2794 81.1181 98.4456 79.2535C98.6117 77.3889 98.2469 75.5172 97.3844 73.8085C94.7383 74.4251 92.1487 75.2172 89.6379 76.178C85.7425 77.7056 79.6311 80.4631 74.167 82.9961C75.1751 84.9641 76.8055 86.6339 78.8626 87.8052C80.9197 88.9764 83.3162 89.5994 85.7646 89.5994Z" fill="#FF7235"/>
<path id="Vector_12" d="M116.751 115.222C123.779 115.222 129.477 110.196 129.477 103.997C129.477 97.7971 123.779 92.7714 116.751 92.7714C109.722 92.7714 104.024 97.7971 104.024 103.997C104.024 110.196 109.722 115.222 116.751 115.222Z" fill="#FF7235"/>
<path id="Vector_13" d="M91.8516 121.811C89.5071 121.811 87.2086 122.384 85.2117 123.468L83.5518 134.012H104.525C104.559 133.69 104.578 133.366 104.578 133.036C104.578 130.059 103.237 127.204 100.851 125.099C98.4639 122.994 95.2269 121.811 91.8516 121.811Z" fill="#FF7235"/>
<path id="Vector_14" d="M137.523 84.0791C137.523 84.2914 137.501 84.5037 137.501 84.7185C137.502 87.2084 138.442 89.6274 140.172 91.5948C141.902 93.5622 144.325 94.9663 147.059 95.5861C149.793 96.206 152.683 96.0065 155.275 95.0189C157.866 94.0314 160.012 92.3119 161.374 90.131C159.418 85.2919 157.053 81.102 154.377 78.1298C149.494 82.8663 143.267 84.5623 137.523 84.0791Z" fill="#FF7235"/>
<path id="Vector_15" d="M149.397 131.571C149.398 134.415 150.622 137.152 152.822 139.23C155.022 141.308 158.034 142.572 161.25 142.767C162.013 142.034 162.678 141.225 163.231 140.356C166.053 135.861 167.317 128.987 167.328 121.322C165.39 120.556 163.264 120.23 161.147 120.374C159.029 120.518 156.985 121.127 155.203 122.146C153.42 123.165 151.955 124.561 150.941 126.208C149.927 127.854 149.396 129.698 149.397 131.571Z" fill="#FF7235"/>
<path id="Vector_16" d="M122.561 142.797C119.272 142.794 116.111 143.918 113.744 145.933L114.455 147.336L118.716 155.757C124.272 155.162 129.791 154.32 135.252 153.234C135.026 150.401 133.591 147.749 131.236 145.812C128.881 143.875 125.781 142.798 122.561 142.797Z" fill="#FF7235"/>
<path id="Vector_17" d="M144.002 127.057C136.566 129.292 126.537 132.011 120.348 133.768" stroke="#F5EBDC" stroke-width="4" stroke-miterlimit="10" stroke-linecap="round"/>
<path id="Vector_18" d="M136.12 103.337L138.746 128.521" stroke="#F5EBDC" stroke-width="4" stroke-miterlimit="10" stroke-linecap="round"/>
<path id="Vector_19" d="M81.7012 164.911C82.6086 162.439 84.5424 157.361 86.2411 154.113" stroke="#30242A" stroke-width="4" stroke-miterlimit="10" stroke-linecap="round"/>
<path id="Vector_20" d="M91.6436 156.155C87.7869 163.476 85.5238 171.821 84.6855 175.282" stroke="#30242A" stroke-width="4" stroke-miterlimit="10" stroke-linecap="round"/>
<path id="Vector_21" d="M97.0472 158.537C94.5573 163.603 92.3771 170.518 91.1543 174.774" stroke="#30242A" stroke-width="4" stroke-miterlimit="10" stroke-linecap="round"/>
<path id="Vector_22" d="M88.5958 98.7375L87.0908 107.596" stroke="#F5EBDC" stroke-width="4" stroke-miterlimit="10" stroke-linecap="round"/>
<path id="Vector_23" d="M152.994 54.2158C144.539 47.505 134.382 49.3743 134.382 49.3743C134.767 45.2893 135.539 34.7327 125.504 28.266C115.47 21.7993 102.73 25.2034 98.0983 30.3085C96.2114 32.39 95.2846 35.2085 94.7451 38.2759C97.8271 38.7347 102.345 37.8001 102.345 37.8001C108.52 43.9276 115.071 45.2893 115.071 45.2893C119.318 41.2043 127.037 41.2043 128.196 46.9975C129.477 53.4032 120.475 55.1675 120.475 55.1675C120.475 55.1675 118.566 64.2965 121.72 73.4987C122.169 74.8003 122.838 76.0344 123.706 77.1591C129.71 84.968 144.685 87.5303 154.366 78.1352C154.845 77.6151 155.289 77.0708 155.697 76.5051C158.499 72.6861 163.869 62.8494 152.994 54.2158Z" fill="#30242A"/>
<path id="Vector_24" d="M107.322 66.49C109.111 66.0278 110.836 65.3893 112.463 64.5865" stroke="#30242A" stroke-width="4" stroke-miterlimit="10" stroke-linecap="round"/>
<path id="Vector_25" d="M134.812 49.3031C134.602 51.165 134.32 53.4833 134.043 55.3135" stroke="black" stroke-width="4" stroke-miterlimit="10" stroke-linecap="round"/>
<path id="Vector_26" d="M119.347 49.689L122.791 48.0004" stroke="#30242A" stroke-width="4" stroke-miterlimit="10" stroke-linecap="round"/>
<path id="Vector_27" d="M99.7695 57.6101C100.403 57.9591 102.774 58.2299 103.737 56.6218" stroke="#30242A" stroke-width="4" stroke-miterlimit="10" stroke-linecap="round"/>
<path id="Vector_28" d="M106.006 50.0183C106.64 50.0183 107.154 49.5649 107.154 49.0056C107.154 48.4463 106.64 47.9929 106.006 47.9929C105.371 47.9929 104.857 48.4463 104.857 49.0056C104.857 49.5649 105.371 50.0183 106.006 50.0183Z" fill="#30242A"/>
<path id="Vector_29" d="M95.8942 48.9339C96.5283 48.9339 97.0424 48.4805 97.0424 47.9212C97.0424 47.3619 96.5283 46.9084 95.8942 46.9084C95.2601 46.9084 94.7461 47.3619 94.7461 47.9212C94.7461 48.4805 95.2601 48.9339 95.8942 48.9339Z" fill="#30242A"/>
<path id="Vector_30" d="M99.6285 51.4723C99.4515 52.1458 99.3048 52.8803 99.4266 53.1317C99.5917 53.4346 99.8688 53.679 100.212 53.8247" stroke="#30242A" stroke-width="4" stroke-miterlimit="10" stroke-linecap="round"/>
<path id="Vector_31" d="M99.1727 48.6093C99.8627 45.9835 98.2501 43.4108 95.5708 42.863C92.8915 42.3152 90.1601 43.9998 89.4701 46.6256C88.7801 49.2515 90.3927 51.8242 93.072 52.372C95.7513 52.9197 98.4827 51.2351 99.1727 48.6093Z" stroke="black" stroke-width="2" stroke-miterlimit="10" stroke-linecap="round"/>
<path id="Vector_32" d="M111.348 50.3177C112.038 47.6918 110.425 45.1191 107.746 44.5714C105.066 44.0236 102.335 45.7082 101.645 48.334C100.955 50.9598 102.568 53.5326 105.247 54.0803C107.926 54.6281 110.657 52.9435 111.348 50.3177Z" stroke="black" stroke-width="2" stroke-miterlimit="10" stroke-linecap="round"/>
<path id="Vector_33" d="M99.46 48.2366L101.397 48.4806" stroke="black" stroke-width="2" stroke-miterlimit="10" stroke-linecap="round"/>
<path id="Vector_34" d="M44.6807 44.8208C44.6807 44.8208 49.9372 48.7252 50.4906 49.7013C50.4906 49.7013 41.914 57.5102 48.5539 67.0272" stroke="#30242A" stroke-width="4" stroke-miterlimit="10" stroke-linecap="round"/>
<path id="Vector_35" d="M72.8519 19.5408C73.4876 18.6243 73.1605 17.4269 72.1215 16.8662C71.0825 16.3056 69.725 16.594 69.0893 17.5105L27.1817 77.9326C26.5461 78.8491 26.8731 80.0465 27.9121 80.6072C28.9511 81.1678 30.3087 80.8794 30.9443 79.9629L72.8519 19.5408Z" fill="#30242A"/>
<path id="Vector_36" d="M76.6605 3.84033L81.4246 0.477643C81.8132 0.20266 82.288 0.0394263 82.785 0.00996191C83.282 -0.0195025 83.7773 0.0862214 84.2041 0.312873C84.6309 0.539524 84.9685 0.876193 85.1715 1.27744C85.3745 1.67869 85.4331 2.12521 85.3393 2.55675L84.1967 7.84969C84.1067 8.26667 84.1587 8.69784 84.3463 9.08874C84.534 9.47964 84.8487 9.81272 85.2508 10.0459L90.3469 13.0035C90.7635 13.2445 91.0862 13.5923 91.2715 14.0002C91.4569 14.408 91.4959 14.8561 91.3834 15.2842C91.2709 15.7122 91.0123 16.0995 90.6424 16.3938C90.2725 16.688 89.8092 16.8752 89.315 16.9299L83.2755 17.6107C82.7976 17.6641 82.3483 17.8411 81.9844 18.1195C81.6205 18.3979 81.3583 18.7652 81.2309 19.175L79.618 24.363C79.4857 24.7862 79.2097 25.1635 78.8271 25.4443C78.4445 25.7251 77.9736 25.8958 77.4777 25.9336C76.9819 25.9713 76.4848 25.8742 76.0533 25.6554C75.6218 25.4366 75.2766 25.1065 75.0642 24.7095L72.4663 19.8289C72.2594 19.4465 71.9289 19.1266 71.5164 18.9095C71.1038 18.6924 70.6277 18.5877 70.1479 18.6088L64.0613 18.8528C63.5605 18.8805 63.0623 18.771 62.6347 18.5393C62.2072 18.3076 61.8713 17.965 61.6729 17.5585C61.4746 17.1519 61.4235 16.7013 61.5266 16.2681C61.6298 15.835 61.8821 15.4405 62.2492 15.1388L66.6952 11.454C67.0462 11.163 67.2916 10.7868 67.4004 10.3729C67.5093 9.959 67.4766 9.52593 67.3066 9.12839L65.1541 4.09412C64.9775 3.68253 64.9484 3.23305 65.0706 2.80638C65.1928 2.37971 65.4606 1.9964 65.8377 1.70823C66.2148 1.42006 66.683 1.2409 67.1792 1.19496C67.6755 1.14901 68.1757 1.23849 68.6124 1.45131L73.9603 4.04531C74.3829 4.25038 74.865 4.34036 75.3456 4.30388C75.8262 4.26739 76.2838 4.10609 76.6605 3.84033Z" fill="#3EC1F3"/>
<path id="Vector_37" d="M48.1388 43.4782C46.2022 42.014 42.4811 41.0648 40.669 42.014C37.6091 43.6173 38.3616 46.7311 38.3616 46.7311C38.3616 46.7311 33.3817 46.0478 33.4426 50.5477C33.4426 50.5477 29.4338 52.0948 31.1878 55.6307C31.1878 55.6307 27.7185 56.4043 29.3674 60.1721C30.7092 63.2444 33.805 64.8525 35.6891 65.6846C37.349 66.4167 39.8943 65.3601 39.009 62.5123C39.009 62.5123 40.9456 63.0003 42.0523 62.0242C43.5795 60.6772 42.8823 58.1198 42.8823 58.1198C42.8823 58.1198 44.8189 58.6079 46.2022 57.6317C47.8898 56.4409 47.0322 54.2154 47.0322 54.2154C47.6507 54.1418 48.2349 53.9213 48.7222 53.5774C49.2095 53.2335 49.5817 52.7792 49.7988 52.2632C50.9055 49.8229 46.7555 46.8946 46.7555 46.8946L48.1388 43.4782Z" fill="#A15842"/>
<path id="Vector_38" d="M30.9863 55.7703C33.4218 58.378 36.106 60.797 39.0095 63.0008" stroke="#30242A" stroke-width="4" stroke-miterlimit="10" stroke-linecap="round"/>
<path id="Vector_39" d="M33.4766 50.5254C36.3294 53.6021 39.5853 56.3699 43.1763 58.7711" stroke="#30242A" stroke-width="4" stroke-miterlimit="10" stroke-linecap="round"/>
<path id="Vector_40" d="M37.9023 46.9359C40.5168 49.9659 43.6634 52.6078 47.2231 54.7618" stroke="#30242A" stroke-width="4" stroke-miterlimit="10" stroke-linecap="round"/>
<path id="Vector_41" d="M44.6807 44.8208C44.6807 44.8208 47.273 46.7462 49.0076 48.2372" stroke="#30242A" stroke-width="4" stroke-miterlimit="10" stroke-linecap="round"/>
<path id="Vector_42" d="M109.682 22.9114L108.221 24.3292L107.25 25.2711C106.633 27.1745 111.123 30.2078 117.368 32.0868C123.612 33.9658 129.264 33.9829 130.094 32.1429L129.978 30.874L129.803 28.9632C127.457 29.4513 123.393 29.0584 119.039 27.7431C114.684 26.4278 111.195 24.5708 109.682 22.9114Z" fill="#FFBE21"/>
<path id="Vector_43" d="M120.727 23.4043C117.462 22.4282 114.679 21.1251 112.853 19.8367L109.683 22.9114C111.196 24.5708 114.693 26.44 119.045 27.7505C123.397 29.0609 127.464 29.4586 129.81 28.9706L129.431 24.8221C127.093 24.8587 123.992 24.3853 120.727 23.4043Z" fill="#FF7235"/>
<path id="Vector_44" d="M116.244 16.547L112.853 19.8365C114.679 21.1249 117.462 22.4232 120.726 23.4041C123.991 24.3851 127.089 24.8683 129.43 24.8244L129.023 20.3904C124.506 19.9092 120.154 18.6 116.244 16.547Z" fill="#FFBE21"/>
<path id="Vector_45" d="M124.088 14.712C122.611 14.2714 121.17 13.7389 119.778 13.1185L116.245 16.5349C120.154 18.5879 124.507 19.8971 129.024 20.3783L128.601 15.7613C127.071 15.5047 125.563 15.1541 124.088 14.712Z" fill="#FF7235"/>
<path id="Vector_46" d="M128.6 15.7738L127.657 5.47583L119.777 13.1187C121.17 13.7391 122.61 14.2716 124.088 14.7122C125.562 15.1585 127.07 15.5132 128.6 15.7738Z" fill="#FFBE21"/>
<path id="Vector_47" d="M128.321 7.51602C130.674 7.51602 132.582 5.8335 132.582 3.75801C132.582 1.68252 130.674 0 128.321 0C125.968 0 124.061 1.68252 124.061 3.75801C124.061 5.8335 125.968 7.51602 128.321 7.51602Z" fill="#FF7235"/>
</g>
</g>
</svg>
