<svg width="225" height="53" viewBox="0 0 225 53" fill="none" xmlns="http://www.w3.org/2000/svg">
<g id="Group 1000001154">
<path id="Vector" d="M29.7302 29.8411L31.7743 31.8852C33.0222 33.13 35.041 33.1268 36.2858 31.882C36.6807 31.4871 36.965 30.9943 37.1104 30.454L41.1701 15.2894C41.6629 13.4349 40.5603 11.5298 38.7058 11.0369C38.1213 10.8821 37.5021 10.8821 36.9176 11.0369L21.753 15.0998C20.0533 15.5548 19.0423 17.3018 19.4972 19.0016C19.6426 19.545 19.9269 20.0378 20.325 20.4359L22.3691 22.4799L17.1404 27.7054C14.6509 30.195 10.6164 30.1981 8.12376 27.7086L8.1206 27.7054L1.87149 21.4595C-0.621196 18.97 -0.624356 14.9324 1.86518 12.4397C2.655 11.6499 3.63755 11.0812 4.71487 10.7874L44.1493 0.219493C47.5519 -0.693546 51.0492 1.32525 51.9623 4.72782C52.2529 5.81146 52.2529 6.94881 51.9623 8.03245L41.4197 47.4764C40.5066 50.8789 37.0093 52.8977 33.6067 51.9878C32.5262 51.6972 31.5374 51.1285 30.7475 50.3355L24.5016 44.0896C22.0121 41.6001 22.0121 37.5593 24.5016 35.0698L29.7302 29.8411Z" fill="url(#paint0_linear_1417_5504)"/>
<path id="Vector_2" d="M68.1345 14.2995C68.5484 13.873 69.1202 13.6392 69.7141 13.6487C70.3144 13.6392 70.8957 13.873 71.3191 14.2995C71.7519 14.7102 71.9952 15.2821 71.9857 15.8792C71.9825 17.1303 70.9652 18.1444 69.7141 18.1476C69.117 18.157 68.5452 17.9138 68.1345 17.481C67.708 17.0576 67.4742 16.4795 67.4837 15.8792C67.4742 15.2852 67.7111 14.7166 68.1345 14.2995ZM67.8502 20.2232H71.5592V36.7527H67.8502V20.2232Z" fill="#122360"/>
<path id="Vector_3" d="M79.332 20.2263H83.0379V22.5989C84.2416 20.7949 86.0234 19.8914 88.3803 19.8945C90.5191 19.8945 92.0419 20.5327 92.9549 21.8122C93.868 23.0918 94.3229 24.9115 94.3261 27.2715V36.7494H90.6234V27.7391C90.6234 26.2637 90.3896 25.1864 89.9252 24.5008C89.4608 23.8152 88.5698 23.4709 87.2524 23.4677C86.1024 23.4361 84.9967 23.9132 84.2321 24.7693C83.4233 25.6887 82.9968 26.8829 83.0442 28.1087V36.7557H79.332V20.2263Z" fill="#122360"/>
<path id="Vector_4" d="M100.296 20.2221H104.002L107.449 28.5721C107.714 29.204 107.97 29.8864 108.216 30.6225C108.46 31.3713 108.64 31.9526 108.75 32.3759L108.918 33.0078C109.319 31.5071 109.812 30.0286 110.387 28.5848L113.792 20.2031H117.498L110.681 36.7832H107.107L100.296 20.2221Z" fill="#122360"/>
<path id="Vector_5" d="M123.905 22.4155C125.478 20.7632 127.668 19.847 129.949 19.888C132.094 19.8659 134.144 20.7758 135.566 22.3807C137.098 23.9983 137.929 26.1561 137.885 28.3834L137.787 29.8209H125.273C125.485 30.9962 126.129 32.0514 127.077 32.7748C128.044 33.4857 129.216 33.8553 130.416 33.8269C132.107 33.8585 133.768 33.3562 135.155 32.3894L136.624 35.1285C134.783 36.4112 132.59 37.0999 130.347 37.0968C128.022 37.1536 125.763 36.3259 124.028 34.7778C122.294 33.2298 121.425 31.1415 121.425 28.5161C121.387 26.2319 122.284 24.0267 123.905 22.4155ZM134.302 27.0723C134.018 24.7913 132.059 23.0947 129.762 23.1326C128.701 23.1232 127.674 23.5086 126.878 24.2131C126.025 24.9492 125.45 25.9507 125.241 27.0565L134.302 27.0723Z" fill="#122360"/>
<path id="Vector_6" d="M144.754 31.6453C146.214 32.8995 148.072 33.5946 149.996 33.6135C150.779 33.6262 151.553 33.4682 152.267 33.1459C152.934 32.8363 153.269 32.4161 153.269 31.8822C153.269 31.759 153.253 31.6358 153.218 31.5157C153.18 31.3989 153.117 31.2914 153.035 31.1998C152.943 31.0987 152.861 31.0103 152.782 30.9344C152.681 30.8397 152.561 30.7638 152.431 30.7164L152.014 30.5332C151.856 30.4637 151.695 30.41 151.531 30.3658C151.332 30.3089 151.171 30.2615 151.048 30.2141C150.874 30.1541 150.694 30.1035 150.514 30.0656C150.28 30.0088 150.097 29.9582 149.961 29.914C149.026 29.6486 148.271 29.4085 147.692 29.1968C147.073 28.9662 146.479 28.6692 145.923 28.3122C145.355 27.971 144.893 27.4813 144.587 26.8937C144.283 26.265 144.132 25.5699 144.151 24.8717C144.119 23.4184 144.833 22.0505 146.046 21.2512C147.301 20.3539 148.811 19.88 150.353 19.899C152.441 19.9148 154.485 20.5056 156.264 21.6018L154.892 24.6063C153.528 23.8039 151.973 23.3774 150.387 23.3711C149.79 23.3584 149.196 23.4974 148.665 23.7723C148.166 24.0377 147.917 24.382 147.917 24.8054C147.914 25.1592 148.09 25.491 148.384 25.69C148.669 25.908 148.988 26.0723 149.332 26.1765C149.648 26.265 150.122 26.3756 150.766 26.4925C152.384 26.7989 153.926 27.4181 155.303 28.3185C156.463 29.121 157.041 30.2899 157.041 31.8254C157.041 33.5819 156.317 34.8994 154.87 35.7808C153.401 36.6654 151.711 37.1235 149.996 37.0982C148.624 37.1235 147.26 36.8644 145.993 36.3368C145.02 35.9451 144.119 35.3859 143.339 34.6845L144.754 31.6453Z" fill="#122360"/>
<path id="Vector_7" d="M165.346 23.264H162.907V20.2247H165.346V16.9865L169.055 16.2188V20.2247H174.031V23.264H169.055V31.5445C169.055 33.1021 169.646 33.8793 170.824 33.8824C171.223 33.8793 171.617 33.8129 171.993 33.6834C172.309 33.5886 172.613 33.4528 172.894 33.2822L173.229 33.08L174.331 35.8538C173.156 36.6468 171.775 37.0733 170.357 37.086C167.017 37.086 165.346 35.2062 165.349 31.4434L165.346 23.264Z" fill="#122360"/>
<path id="Vector_8" d="M181.178 20.2207H184.884V23.4937C185.304 22.467 186.018 21.5887 186.937 20.9663C187.926 20.2554 189.234 19.9016 190.861 19.8984V23.9392C186.877 23.9392 184.887 25.9643 184.884 30.0145V36.7502H181.178V20.2207Z" fill="#122360"/>
<path id="Vector_9" d="M198.121 14.2995C198.535 13.873 199.107 13.6392 199.7 13.6487C200.301 13.6392 200.879 13.873 201.302 14.2995C201.738 14.7071 201.981 15.2821 201.972 15.8792C201.966 17.1303 200.952 18.1412 199.7 18.1476C199.103 18.157 198.532 17.9138 198.121 17.481C197.694 17.0576 197.461 16.4795 197.47 15.8792C197.461 15.2852 197.697 14.7166 198.121 14.2995ZM197.836 20.2232H201.542V36.7527H197.843L197.836 20.2232Z" fill="#122360"/>
<path id="Vector_10" d="M210.01 22.4157C213.469 19.0542 218.973 19.0542 222.432 22.4157C225.787 25.6761 225.866 31.0406 222.603 34.3989C222.546 34.4558 222.489 34.5158 222.432 34.5695C218.973 37.9278 213.469 37.9278 210.01 34.5695C206.654 31.3091 206.575 25.9446 209.839 22.5863C209.896 22.5294 209.953 22.4725 210.01 22.4157ZM212.682 32.0642C214.676 33.9882 217.851 33.9313 219.775 31.9378C221.658 29.9885 221.652 26.8924 219.759 24.9526C217.842 22.997 214.704 22.9685 212.749 24.8862C212.727 24.9083 212.705 24.9305 212.682 24.9526C211.725 25.8846 211.194 27.1704 211.213 28.5068C211.188 29.8463 211.722 31.1353 212.682 32.0642Z" fill="#122360"/>
</g>
<defs>
<linearGradient id="paint0_linear_1417_5504" x1="8.93428" y1="-6.97668" x2="58.826" y2="47.2275" gradientUnits="userSpaceOnUse">
<stop offset="0.2" stop-color="#28C993"/>
<stop offset="0.8" stop-color="#6853E0"/>
</linearGradient>
</defs>
</svg>
