<svg width="24" height="24" viewBox="0 0 24 24" fill="none" xmlns="http://www.w3.org/2000/svg">
<g id="Icons" clip-path="url(#clip0_2186_7741)">
<g id="Group">
<path id="Vector" d="M12 2C6.48 2 2 6.48 2 12C2 17.52 6.48 22 12 22C17.52 22 22 17.52 22 12C22 6.48 17.52 2 12 2ZM12.84 17.77V18.16C12.84 18.62 12.47 18.99 12.01 18.99C11.55 18.99 11.18 18.62 11.18 18.16V17.71C9.64 17.36 8.85 16.39 8.45 15.6C8.22 15.16 8.44 14.61 8.9 14.42L8.97 14.39C9.38 14.22 9.84 14.39 10.05 14.78C10.37 15.39 11.01 16.16 12.18 16.16C13.11 16.16 14.16 15.69 14.16 14.56C14.16 13.6 13.46 13.09 11.88 12.53C10.46 12.02 8.53 11.36 8.53 9.22C8.53 7.41 10.05 6.47 11.19 6.25V5.83C11.17 5.37 11.54 5 12 5C12.46 5 12.83 5.37 12.83 5.83V6.22C13.93 6.4 14.61 6.98 15.02 7.5C15.37 7.95 15.2 8.6 14.68 8.83C14.32 8.98 13.9 8.87 13.66 8.56C13.38 8.18 12.88 7.79 12.05 7.79C11.35 7.79 10.24 8.16 10.24 9.18C10.24 10.28 11.52 10.64 12.88 11.09C14.68 11.72 15.91 12.67 15.89 14.53C15.9 17.43 12.89 17.76 12.84 17.77Z" fill="#C4F2D7"/>
</g>
</g>
<defs>
<clipPath id="clip0_2186_7741">
<rect width="24" height="24" fill="white"/>
</clipPath>
</defs>
</svg>
