<svg width="333" height="250" viewBox="0 0 333 250" fill="none" xmlns="http://www.w3.org/2000/svg">
<path d="M173.958 34.1504H176.361C185.438 34.1526 194.143 37.7601 200.56 44.1794C206.978 50.5988 210.583 59.3044 210.583 68.3817V133.686H139.717V68.3817C139.717 63.8855 140.603 59.4333 142.323 55.2795C144.044 51.1257 146.567 47.3516 149.747 44.1728C152.926 40.994 156.701 38.4728 160.856 36.7531C165.01 35.0334 169.462 34.149 173.958 34.1504Z" fill="#FFB7D5"/>
<path d="M188.017 94.3753V134.702H156.571V94.3753H188.017ZM188.85 93.542H155.738V135.536H188.85V93.542Z" fill="#CA7358"/>
<path d="M188.85 93.54H155.738V102.221H188.85V93.54Z" fill="#CA7358"/>
<path d="M155.561 72.5687V134.904H136.634V72.5687H155.561ZM156.394 71.7354H135.8V135.737H156.394V71.7354Z" fill="#CA7358"/>
<path d="M214.011 59.9495V134.702H189.027V59.9495H214.011ZM214.844 59.1162H188.194V135.535H214.844V59.1162Z" fill="#CA7358"/>
<path d="M199.027 69.3125H199.267C200.172 69.3125 201.04 69.672 201.68 70.312C202.32 70.952 202.679 71.8199 202.679 72.725V80.4167H195.613V72.725C195.613 72.2767 195.701 71.8328 195.873 71.4186C196.044 71.0044 196.296 70.6282 196.613 70.3113C196.93 69.9944 197.307 69.743 197.721 69.5717C198.135 69.4003 198.579 69.3122 199.027 69.3125Z" fill="#CA7358"/>
<path d="M194.807 75.3691H203.488" stroke="#FFB7D5" stroke-width="2" stroke-linecap="round" stroke-linejoin="round"/>
<path d="M199.027 89.2334H199.267C200.172 89.2334 201.04 89.5929 201.68 90.2329C202.32 90.8729 202.679 91.7408 202.679 92.6459V100.338H195.613V92.6459C195.613 92.1976 195.701 91.7537 195.873 91.3395C196.044 90.9253 196.296 90.5491 196.613 90.2322C196.93 89.9152 197.307 89.6639 197.721 89.4926C198.135 89.3212 198.579 89.2331 199.027 89.2334Z" fill="#F5EBDD"/>
<path d="M194.807 95.29H203.488" stroke="#FFB7D5" stroke-width="2" stroke-linecap="round" stroke-linejoin="round"/>
<path d="M199.027 109.154H199.267C200.172 109.154 201.04 109.514 201.68 110.154C202.32 110.794 202.679 111.662 202.679 112.567V120.258H195.613V112.567C195.613 111.662 195.972 110.794 196.612 110.154C197.252 109.514 198.12 109.154 199.025 109.154H199.027Z" fill="#F5EBDD"/>
<path d="M194.807 115.21H203.488" stroke="#FFB7D5" stroke-width="2" stroke-linecap="round" stroke-linejoin="round"/>
<path d="M199.027 129.075H199.267C200.172 129.075 201.04 129.435 201.68 130.075C202.32 130.715 202.679 131.583 202.679 132.488V139.554H195.613V132.488C195.613 132.039 195.701 131.595 195.873 131.181C196.044 130.767 196.296 130.391 196.613 130.074C196.93 129.757 197.307 129.506 197.721 129.334C198.135 129.163 198.579 129.075 199.027 129.075Z" fill="#30242A"/>
<path d="M214.844 59.1162H188.194V62.4475H214.844V59.1162Z" fill="#CA7358"/>
<path d="M156.394 70.1211H135.8V73.4523H156.394V70.1211Z" fill="#CA7358"/>
<path d="M168.761 110.096H161.694V119.181H168.761V110.096Z" fill="#F5EBDD"/>
<path d="M160.886 114.134H169.569" stroke="#FFB7D5" stroke-width="2" stroke-linecap="round" stroke-linejoin="round"/>
<path d="M165.228 119.586V114.134" stroke="#FFB7D5" stroke-width="2" stroke-linecap="round" stroke-linejoin="round"/>
<path d="M168.761 126.504H161.694V135.589H168.761V126.504Z" fill="#CA7358"/>
<path d="M160.886 130.542H169.569" stroke="#FFB7D5" stroke-width="2" stroke-linecap="round" stroke-linejoin="round"/>
<path d="M165.228 135.994V130.542" stroke="#FFB7D5" stroke-width="2" stroke-linecap="round" stroke-linejoin="round"/>
<path d="M182.086 110.096H175.019V119.181H182.086V110.096Z" fill="#30242A"/>
<path d="M174.213 114.134H182.894" stroke="#FFB7D5" stroke-width="2" stroke-linecap="round" stroke-linejoin="round"/>
<path d="M178.552 119.586V114.134" stroke="#FFB7D5" stroke-width="2" stroke-linecap="round" stroke-linejoin="round"/>
<path d="M182.086 126.504H175.019V135.589H182.086V126.504Z" fill="#F5EBDD"/>
<path d="M174.213 130.542H182.894" stroke="#FFB7D5" stroke-width="2" stroke-linecap="round" stroke-linejoin="round"/>
<path d="M178.552 135.994V130.542" stroke="#FFB7D5" stroke-width="2" stroke-linecap="round" stroke-linejoin="round"/>
<path d="M160.432 58.8145C163.331 58.8145 165.682 56.4639 165.682 53.5644C165.682 50.665 163.331 48.3145 160.432 48.3145C157.532 48.3145 155.182 50.665 155.182 53.5644C155.182 56.4639 157.532 58.8145 160.432 58.8145Z" fill="#F5EBDD"/>
<path d="M219.669 133.719H130.631V139.775H219.669V133.719Z" fill="#F5EBDD"/>
<path d="M176.557 28.125H173.75C151.613 28.125 133.667 46.0708 133.667 68.2083V139.775H216.648V68.2083C216.642 46.0708 198.694 28.125 176.557 28.125ZM172.123 133.719H139.717V83.2438H172.123V133.719ZM172.123 77.1875H139.717V68.4146C139.717 59.6518 143.078 51.2228 149.107 44.8636C155.135 38.5043 163.373 34.6989 172.123 34.2312V77.1875ZM210.584 133.719H178.179V83.2438H210.584V133.719ZM210.584 77.1875H178.179V34.2312C186.93 34.6989 195.167 38.5044 201.195 44.8637C207.224 51.223 210.584 59.652 210.584 68.4146V77.1875Z" fill="#F5EBDD"/>
<path d="M65.3377 219.525C69.7974 219.525 73.4127 215.91 73.4127 211.45C73.4127 206.99 69.7974 203.375 65.3377 203.375C60.878 203.375 57.2627 206.99 57.2627 211.45C57.2627 215.91 60.878 219.525 65.3377 219.525Z" fill="#FFB7D5"/>
<path d="M245.428 145.625C245.429 145.848 245.383 146.068 245.294 146.273C244.669 147.696 241.998 147.906 239.342 146.741C237.117 145.769 235.605 144.139 235.54 142.8V160.566H245.434V145.625H245.428Z" fill="#FFBE21"/>
<path d="M241.623 141.593C238.967 140.429 236.3 140.639 235.671 142.062C235.57 142.296 235.525 142.55 235.54 142.804C235.604 144.143 237.117 145.773 239.342 146.745C241.998 147.91 244.665 147.7 245.294 146.277C245.383 146.072 245.429 145.852 245.427 145.629C245.434 144.273 243.902 142.589 241.623 141.593Z" fill="#A15842"/>
<path d="M253.013 151.485C252.948 152.825 251.436 154.454 249.211 155.429C246.552 156.592 243.888 156.383 243.256 154.958C243.168 154.754 243.123 154.535 243.123 154.312V160.562H253.015V151.485H253.013Z" fill="#FFBE21"/>
<path d="M252.881 150.744C252.256 149.321 249.586 149.11 246.927 150.275C244.65 151.273 243.119 152.954 243.123 154.313C243.123 154.535 243.168 154.755 243.256 154.958C243.881 156.383 246.552 156.592 249.211 155.429C251.436 154.454 252.948 152.825 253.013 151.485C253.028 151.231 252.983 150.977 252.881 150.744Z" fill="#A15842"/>
<path d="M243.413 160.571V154.515" stroke="#A15842" stroke-width="2" stroke-miterlimit="10" stroke-linecap="round"/>
<path d="M240.486 140.279V143.713" stroke="#30242A" stroke-width="2" stroke-linecap="round" stroke-linejoin="round"/>
<path d="M248.069 148.963V152.596" stroke="#30242A" stroke-width="2" stroke-linecap="round" stroke-linejoin="round"/>
<path d="M198.125 219.584C197.873 219.584 197.624 219.524 197.399 219.409C197.174 219.294 196.979 219.128 196.831 218.923C196.683 218.719 196.586 218.482 196.547 218.232C196.508 217.983 196.53 217.728 196.609 217.488L201.609 202.25C201.714 201.931 201.918 201.653 202.19 201.456C202.463 201.259 202.791 201.152 203.127 201.152H206.632C206.91 201.152 207.184 201.225 207.425 201.363C207.667 201.501 207.868 201.7 208.009 201.94C208.15 202.181 208.226 202.453 208.228 202.732C208.231 203.01 208.161 203.284 208.025 203.527L199.513 218.765C199.375 219.012 199.174 219.219 198.93 219.362C198.686 219.506 198.408 219.583 198.125 219.584Z" fill="#30242A"/>
<path d="M265.108 219.584C265.361 219.584 265.61 219.524 265.835 219.409C266.06 219.294 266.254 219.128 266.402 218.923C266.551 218.719 266.648 218.482 266.687 218.232C266.725 217.983 266.704 217.728 266.625 217.488L261.625 202.25C261.52 201.931 261.316 201.653 261.044 201.456C260.772 201.259 260.445 201.153 260.109 201.152H256.602C256.324 201.153 256.051 201.226 255.81 201.364C255.568 201.503 255.367 201.702 255.227 201.942C255.086 202.181 255.01 202.454 255.007 202.732C255.004 203.01 255.073 203.284 255.209 203.527L263.721 218.765C263.859 219.012 264.06 219.218 264.304 219.362C264.548 219.506 264.825 219.582 265.108 219.584Z" fill="#30242A"/>
<path d="M272.84 160.571H190.667V207.613H272.84V160.571Z" fill="#A15842"/>
<path d="M266.781 166.627H196.723V201.556H266.781V166.627Z" fill="#FFB7D5"/>
<path d="M231.677 166.022V202.162" stroke="#A15842" stroke-width="2" stroke-miterlimit="10"/>
<path d="M239.934 186.208C241.103 186.208 242.05 185.26 242.05 184.091C242.05 182.922 241.103 181.975 239.934 181.975C238.765 181.975 237.817 182.922 237.817 184.091C237.817 185.26 238.765 186.208 239.934 186.208Z" fill="#30242A"/>
<path d="M223.571 186.208C224.74 186.208 225.687 185.26 225.687 184.091C225.687 182.922 224.74 181.975 223.571 181.975C222.402 181.975 221.454 182.922 221.454 184.091C221.454 185.26 222.402 186.208 223.571 186.208Z" fill="#30242A"/>
<path d="M89.7461 200V203.432H119.425V200H89.7461Z" fill="#A15842"/>
<path d="M124.315 217.808L116.963 173.694H121.458C121.94 173.694 122.402 173.502 122.743 173.162C123.084 172.821 123.275 172.359 123.275 171.877C123.275 171.395 123.084 170.933 122.743 170.593C122.402 170.252 121.94 170.061 121.458 170.061H87.748C87.2662 170.061 86.8041 170.252 86.4634 170.593C86.1227 170.933 85.9313 171.395 85.9313 171.877C85.9313 172.359 86.1227 172.821 86.4634 173.162C86.8041 173.502 87.2662 173.694 87.748 173.694H92.2084L84.8563 217.808C84.82 218.027 84.8317 218.251 84.8906 218.464C84.9495 218.677 85.0541 218.875 85.1973 219.044C85.3404 219.213 85.5186 219.349 85.7195 219.442C85.9203 219.535 86.1391 219.583 86.3605 219.583C86.7085 219.584 87.0462 219.465 87.3172 219.246C87.5882 219.028 87.7763 218.724 87.8501 218.383L97.5917 173.694H111.579L121.319 218.383C121.393 218.724 121.582 219.028 121.853 219.246C122.125 219.464 122.462 219.583 122.81 219.583C123.032 219.583 123.251 219.535 123.452 219.442C123.652 219.349 123.831 219.213 123.974 219.044C124.117 218.875 124.222 218.677 124.28 218.464C124.339 218.251 124.351 218.027 124.315 217.808Z" fill="#FFBE21"/>
<path d="M121.458 173.694C121.94 173.694 122.402 173.502 122.743 173.162C123.084 172.821 123.275 172.359 123.275 171.877C123.275 171.395 123.084 170.933 122.743 170.593C122.402 170.252 121.94 170.061 121.458 170.061H87.7481C87.2663 170.061 86.8042 170.252 86.4635 170.593C86.1228 170.933 85.9314 171.395 85.9314 171.877C85.9314 172.359 86.1228 172.821 86.4635 173.162C86.8042 173.502 87.2663 173.694 87.7481 173.694H92.2085V173.75H97.5876L97.6001 173.694H111.588L111.6 173.75H116.979V173.694H121.458Z" fill="#A15842"/>
<path d="M123.456 199.942H144.915C145.181 195.386 146.133 189.342 146.923 181.177C147.625 173.938 148.229 167.861 148.19 162.844C148.123 154.482 126.731 164.602 126.731 164.602C126.731 166.429 127.1 168.184 127.11 169.884C127.135 174.3 124.898 178.059 123.3 183.386C120.877 191.463 122.896 199.942 122.896 199.942H123.456Z" fill="#4856DF"/>
<path d="M146.059 217.304H127.273C127.012 217.387 126.79 217.561 126.646 217.793C126.502 218.026 126.445 218.303 126.487 218.573C126.529 218.843 126.666 219.09 126.873 219.268C127.081 219.447 127.345 219.545 127.619 219.546L155.263 219.583C155.506 216.896 153.979 214.873 149.671 211.875C147.213 214.006 146.059 217.304 146.059 217.304Z" fill="#3EC1F3"/>
<path d="M148.702 211.223C147.81 210.646 147.039 209.9 146.433 209.027C144.975 206.887 144.667 204.006 144.906 199.941H126.311C126.346 202.98 126.566 206.014 126.967 209.027C127.442 212.437 128.083 214.783 128.598 217.25H127.621C127.503 217.25 127.385 217.268 127.273 217.304H146.058C146.058 217.304 147.213 214.006 149.671 211.887C149.363 211.669 149.04 211.448 148.702 211.223Z" fill="#A15842"/>
<path d="M145.132 196.291C143.982 194.002 143.198 191.547 142.809 189.014C141.448 179.562 142.255 174.716 138.419 170.473H127.196" stroke="#30242A" stroke-width="2" stroke-linecap="round" stroke-linejoin="round"/>
<path d="M152.129 200.748L152.15 200.798L168.717 193.04C167.427 189.182 166.079 184.048 163.865 177.33C161.79 171.042 160.417 166.344 159.117 162.709C157.299 164.018 155.057 164.601 152.831 164.342C150.606 164.084 148.557 163.003 147.088 161.311C145.618 159.62 144.834 157.44 144.889 155.2C144.944 152.96 145.835 150.822 147.386 149.205C138.542 145.209 107.132 142.603 107.132 142.603L89.3628 139.978C88.4253 141.528 87.6274 143.984 87.1941 146.853H93.4024V153.492C93.3991 154.835 92.8638 156.121 91.9137 157.07C90.9636 158.018 89.6762 158.551 88.3337 158.553H87.9795C87.8962 158.553 87.8128 158.553 87.7316 158.553C89.4274 164.803 93.7899 170.067 102.694 170.067H138.632C142.467 174.307 141.661 179.153 143.021 188.609C144.134 196.344 149.407 202.046 149.407 202.046L152.129 200.748Z" fill="#4856DF"/>
<path d="M177.367 209.634L160.867 217.117C160.587 217.312 160.392 217.605 160.318 217.938C160.245 218.271 160.3 218.619 160.471 218.914C160.643 219.208 160.919 219.428 161.244 219.528C161.57 219.629 161.922 219.603 162.229 219.456L187.267 207.79C186.286 205.081 183.763 204.04 177.786 202.998L177.529 202.95C177.034 205.145 176.979 207.417 177.367 209.634Z" fill="#3EC1F3"/>
<path d="M177.53 202.942C175.809 202.612 174.459 202.04 173.344 201.173C171.29 199.573 170.032 196.969 168.717 193.048L152.15 200.806C153.555 204.033 155.525 207.427 157.402 210.389C159.042 212.969 160.607 215.217 161.659 216.723L161.061 217.012C160.993 217.046 160.928 217.085 160.867 217.129L177.367 209.646C176.976 207.422 177.032 205.143 177.53 202.942Z" fill="#A15842"/>
<path d="M153.871 164.406C155.755 164.407 157.591 163.813 159.117 162.708C156.531 155.442 154.29 152.415 147.511 149.26L147.386 149.204C146.167 150.475 145.349 152.076 145.032 153.808C144.716 155.54 144.916 157.326 145.607 158.946C146.298 160.565 147.45 161.946 148.919 162.916C150.388 163.886 152.11 164.403 153.871 164.402V164.406Z" fill="#3EC1F3"/>
<path d="M88.3337 158.552C89.6787 158.552 90.9687 158.018 91.92 157.067C92.8713 156.116 93.406 154.826 93.4066 153.481V146.842H87.1982C86.6503 150.444 86.6816 154.681 87.7316 158.546C87.8128 158.546 87.8962 158.546 87.9795 158.546L88.3337 158.552Z" fill="#3EC1F3"/>
<path d="M138.325 170.564H144.381" stroke="#30242A" stroke-width="2" stroke-linecap="round" stroke-linejoin="round"/>
<path d="M164.375 106.36C164.375 106.36 153.473 93.8433 140.592 89.3037" stroke="#30242A" stroke-width="2" stroke-linecap="round" stroke-linejoin="round"/>
<path d="M130.179 94.1942C129.783 93.2379 131.104 91.7379 133.304 90.4713C130.325 89.7296 128.208 88.3483 128.421 87.1879C128.633 86.0275 131.1 85.4817 134.15 85.84C132.546 83.8817 131.84 82.0108 132.548 81.2567C133.45 80.2921 136.313 81.5088 138.94 83.965C141.231 86.1108 142.586 88.4983 142.298 89.7129C142.138 90.9504 140.027 92.7046 137.127 93.9046C133.792 95.2879 130.686 95.4171 130.179 94.1942Z" fill="#4756DF"/>
<path d="M142.407 93.5995C144.508 93.5995 146.211 91.8964 146.211 89.7954C146.211 87.6944 144.508 85.9912 142.407 85.9912C140.306 85.9912 138.603 87.6944 138.603 89.7954C138.603 91.8964 140.306 93.5995 142.407 93.5995Z" fill="#30242A"/>
<path d="M150.422 94.6952C151.467 94.3071 150.992 90.431 149.361 86.0377C147.729 81.6444 145.56 78.3975 144.515 78.7856C143.469 79.1737 143.944 83.0498 145.576 87.4431C147.207 91.8364 149.377 95.0832 150.422 94.6952Z" fill="#30242A"/>
<path d="M150.236 95.458C150.236 95.458 151.852 99.8997 151.044 104.543" stroke="#30242A" stroke-width="2" stroke-linecap="round" stroke-linejoin="round"/>
<path d="M120.754 77.7666C117.308 81.6437 113.646 82.4999 113.646 82.4999C111.277 79.9166 106.979 79.9166 106.323 83.577C105.608 87.6333 110.625 88.7499 110.625 88.7499C110.625 88.7499 111.89 93.9833 109.95 96.5687C108.238 98.8604 106.038 99.2374 101.529 99.7416C107.404 109.669 113.404 108.885 115.402 108.885C120.194 108.885 121.544 103.325 121.921 100.458C120.83 100.078 119.717 99.764 118.588 99.5187L117.942 95.6437C117.942 95.6437 120.956 96.7187 123.542 95.2124C126.127 93.7062 126.773 90.9041 125.911 86.5979C125.4 84.0458 125.419 80.8895 124.981 78.0687C123.275 78.3583 120.754 77.7666 120.754 77.7666Z" fill="#A15842"/>
<path d="M156.596 99.3957C155.682 95.7352 148.521 93.7498 148.521 93.7498C148.521 93.7498 148.95 85.5332 147.107 85.2707C145.694 85.0623 144.28 88.5019 143.069 95.1644C141.715 102.61 142.463 116.362 142.463 116.362C142.463 116.362 140.965 115.002 138.84 113.108C138.628 113.537 138.302 113.9 137.898 114.157C137.494 114.414 137.027 114.556 136.548 114.566C136.85 114.949 137.04 115.409 137.095 115.894C137.15 116.379 137.069 116.869 136.86 117.31C136.652 117.751 136.324 118.125 135.915 118.39C135.505 118.655 135.03 118.801 134.542 118.81C134.844 119.193 135.034 119.653 135.089 120.138C135.144 120.622 135.062 121.113 134.854 121.554C134.645 121.995 134.318 122.369 133.908 122.634C133.499 122.899 133.024 123.044 132.536 123.054C132.853 123.456 133.045 123.942 133.089 124.452C133.133 124.962 133.027 125.474 132.783 125.925C132.539 126.375 132.169 126.744 131.718 126.986C131.266 127.228 130.754 127.333 130.244 127.287C134.667 130.166 140.68 133.525 144.686 133.525C165.682 133.516 157.202 101.819 156.596 99.3957Z" fill="#A15842"/>
<path d="M132.84 125.789C133.048 125.348 133.129 124.858 133.075 124.373C133.02 123.889 132.831 123.429 132.529 123.045C133.017 123.036 133.493 122.89 133.902 122.625C134.312 122.36 134.639 121.986 134.848 121.545C135.056 121.104 135.137 120.614 135.082 120.129C135.027 119.644 134.838 119.185 134.536 118.802C135.023 118.792 135.499 118.647 135.908 118.382C136.318 118.117 136.645 117.742 136.854 117.301C137.062 116.86 137.144 116.37 137.089 115.885C137.033 115.401 136.844 114.941 136.542 114.558C137.021 114.547 137.487 114.406 137.891 114.149C138.296 113.892 138.621 113.529 138.834 113.1C135.171 109.837 129.648 105 126.709 102.827C125.286 101.775 123.473 100.995 121.917 100.458C121.55 103.333 120.209 108.885 115.417 108.885C113.427 108.885 107.419 109.668 101.544 99.7412L99.6566 99.9495C93.1565 100.672 90.1982 104.17 88.4565 108.35C87.3795 110.935 86.517 115.672 86.517 115.672C85.8487 120.016 85.5047 124.403 85.4878 128.797L93.9399 136.62L116.632 137.181C118.448 134.502 121.782 129.554 122.882 127.656C124.294 125.233 124.496 123.214 124.496 123.214C124.496 123.214 126.921 125.11 130.244 127.275C130.777 127.321 131.311 127.204 131.775 126.938C132.239 126.673 132.61 126.272 132.84 125.789Z" fill="#FFBE21"/>
<path d="M123.125 73.0269C120.542 69.7977 113.434 67.6436 107.834 71.7352C102.234 75.8269 102.665 82.504 102.879 85.0894C102.879 85.0894 96.8503 83.1498 92.542 87.6727C91.2951 88.9658 90.387 90.5469 89.8986 92.2755C89.4101 94.0041 89.3563 95.8266 89.742 97.5811C89.742 97.5811 81.8086 97.3581 80.2649 104.689C79.3878 108.856 81.0253 111.629 82.842 113.346C83.9074 114.345 85.1522 115.135 86.5107 115.673C86.5107 115.673 87.3732 110.935 88.4503 108.35C90.192 104.171 93.1503 100.673 99.6503 99.9498L101.538 99.7415C106.046 99.2373 108.246 98.854 109.959 96.5686C111.896 93.9831 110.625 88.7498 110.625 88.7498C110.625 88.7498 105.602 87.6331 106.317 83.5811C106.965 79.9206 111.271 79.9206 113.64 82.504C113.64 82.504 117.302 81.6436 120.748 77.7665C120.748 77.7665 123.269 78.3581 124.988 78.0686C124.694 76.1269 124.177 74.3456 123.125 73.0269Z" fill="#30242A"/>
<path d="M157.044 102.273C156.434 101.992 156.069 101.283 156.173 99.9292C156.173 99.9292 154.911 101.512 153.567 100.808C152.223 100.104 152.761 98.5875 152.761 98.5875C152.761 98.5875 151.548 99.3958 150.54 98.3792C149.625 97.4646 150.332 95.9562 150.332 95.9562C150.332 95.9562 148.99 96.5042 148.515 95.5521C147.917 94.3604 148.644 93.1125 149.432 92.1562" stroke="#30242A" stroke-width="4" stroke-linecap="round" stroke-linejoin="round"/>
<path d="M89.3586 97.7559C89.5869 98.8352 89.9984 99.8675 90.5753 100.808" stroke="black" stroke-width="2" stroke-miterlimit="10" stroke-linecap="round"/>
<path d="M142.059 116.623L142.565 122.917" stroke="#30242A" stroke-width="2" stroke-linecap="round" stroke-linejoin="round"/>
<path d="M123.788 116.25C125.106 118.625 125.09 121.475 124.919 123.165" stroke="#30242A" stroke-width="2" stroke-linecap="round" stroke-linejoin="round"/>
<path d="M111.875 122.917L105.415 123.119" stroke="#30242A" stroke-width="2" stroke-linecap="round" stroke-linejoin="round"/>
<path d="M117.831 96.0413C116.928 95.6868 116.048 95.2785 115.194 94.8184" stroke="#30242A" stroke-width="2" stroke-linecap="round" stroke-linejoin="round"/>
<path d="M119.446 102.021L119.094 99.79" stroke="#30242A" stroke-width="2" stroke-linecap="round" stroke-linejoin="round"/>
<path d="M102.444 85.1709L102.892 88.8959" stroke="black" stroke-width="2" stroke-miterlimit="10" stroke-linecap="round"/>
<path d="M123.788 89.6037C123.331 89.8995 121.819 89.9974 121.094 88.6787" stroke="#30242A" stroke-width="2" stroke-linecap="round" stroke-linejoin="round"/>
<path d="M111.673 85.3628L109.654 84.3545" stroke="#30242A" stroke-width="2" stroke-linecap="round" stroke-linejoin="round"/>
<path d="M120.994 84.4688C120.671 84.9083 119.148 85.7604 118.002 84.7875" stroke="#30242A" stroke-width="2" stroke-linecap="round" stroke-linejoin="round"/>
<path d="M125.9 83.8338C125.659 83.885 125.41 83.8882 125.168 83.8432C124.926 83.7981 124.694 83.7057 124.488 83.5713" stroke="#30242A" stroke-width="2" stroke-linecap="round" stroke-linejoin="round"/>
<path d="M123.169 84.583C123.4 85.1059 123.623 85.683 123.575 85.9038C123.504 86.1724 123.344 86.4089 123.121 86.5747" stroke="#30242A" stroke-width="2" stroke-linecap="round" stroke-linejoin="round"/>
<path d="M110.567 87.8025L107.811 90.4025C107.662 90.5432 107.551 90.7198 107.489 90.9155C107.428 91.1111 107.417 91.3193 107.459 91.5201C107.501 91.7209 107.594 91.9076 107.728 92.0625C107.863 92.2173 108.035 92.3351 108.227 92.4046L111.486 93.5608C111.679 93.6293 111.887 93.6469 112.09 93.612C112.292 93.5771 112.482 93.4908 112.642 93.3614C112.801 93.232 112.925 93.0638 113.001 92.8729C113.077 92.682 113.102 92.4749 113.075 92.2713L112.573 88.5213C112.544 88.3033 112.455 88.0976 112.317 87.9266C112.179 87.7556 111.996 87.6259 111.789 87.5518C111.582 87.4776 111.358 87.4617 111.143 87.506C110.927 87.5502 110.728 87.6528 110.567 87.8025Z" fill="#F4E6D8"/>
<path d="M150.136 88.4939C150.136 88.4939 151.548 87.6856 152.761 88.0897C154.636 88.7147 154.361 90.4606 154.361 90.4606C154.361 90.4606 156.99 89.5126 157.5 92.2918C157.5 92.2918 159.871 92.8231 159.338 95.1939C159.338 95.1939 161.257 95.296 160.875 97.8106C160.494 100.325 158.817 102.415 157.809 102.415C156.767 102.415 156.032 101.775 156.173 99.9147C156.173 99.9147 154.911 101.498 153.567 100.794C152.223 100.09 152.761 98.5731 152.761 98.5731C152.761 98.5731 151.548 99.3814 150.54 98.3647C149.625 97.4502 150.332 95.9418 150.332 95.9418C150.332 95.9418 148.99 96.4897 148.515 95.5377C147.505 93.5189 150.284 91.3481 150.736 90.6939L150.136 88.4939Z" fill="#A15842"/>
<path d="M149.536 96.6773C150.923 95.4044 153.286 93.0023 154.406 90.4814" stroke="#30242A" stroke-width="2" stroke-linecap="round" stroke-linejoin="round"/>
<path d="M152.083 99.5833C154.389 97.6225 156.271 95.2123 157.615 92.5" stroke="#30242A" stroke-width="2" stroke-linecap="round" stroke-linejoin="round"/>
<path d="M155.652 101.079C156.277 100.317 158.463 97.577 159.546 95.4082" stroke="#30242A" stroke-width="2" stroke-linecap="round" stroke-linejoin="round"/>
<path d="M155.261 147.448H120.294L128.242 122.338C128.477 121.599 128.941 120.953 129.567 120.496C130.194 120.038 130.949 119.791 131.725 119.792H161.273C161.847 119.792 162.413 119.927 162.925 120.186C163.438 120.446 163.881 120.822 164.221 121.286C164.56 121.749 164.785 122.285 164.878 122.852C164.971 123.418 164.93 123.999 164.756 124.546L158.184 145.311C157.986 145.931 157.596 146.472 157.071 146.857C156.546 147.241 155.912 147.448 155.261 147.448Z" fill="#30242A"/>
<path d="M100 144.621C99.8971 144.946 99.8721 145.291 99.9272 145.628C99.9824 145.965 100.116 146.284 100.318 146.559C100.519 146.835 100.783 147.059 101.087 147.213C101.391 147.368 101.728 147.448 102.069 147.448H155.261C155.911 147.447 156.544 147.238 157.069 146.853C157.593 146.468 157.981 145.927 158.177 145.307L158.386 144.621H100Z" fill="#30242A"/>
<path d="M149.904 131.459C149.092 130.346 145.398 133.284 145.127 133.527C144.986 133.284 143.065 130.346 141.654 131.459C140.432 132.423 143.113 136.729 143.836 137.827C143.866 137.861 143.902 137.887 143.943 137.906C143.984 137.924 144.028 137.934 144.073 137.934C144.118 137.934 144.162 137.924 144.203 137.906C144.244 137.887 144.281 137.861 144.311 137.827C145.625 136.719 150.611 132.413 149.904 131.459Z" fill="#FFBE21"/>
<path d="M146.529 130.672C146.823 129.729 146.811 128.887 146.502 128.791C146.193 128.695 145.705 129.381 145.411 130.324C145.118 131.266 145.13 132.108 145.439 132.204C145.748 132.301 146.236 131.614 146.529 130.672Z" fill="#FFBE21"/>
<path d="M79.9649 124.681C80.4187 124.856 80.9123 124.902 81.3904 124.813C81.8686 124.724 82.3127 124.504 82.6732 124.177C82.716 124.664 82.8939 125.128 83.1869 125.519C83.4799 125.91 83.8764 126.211 84.3314 126.388C84.7865 126.565 85.282 126.612 85.7621 126.522C86.2422 126.433 86.6877 126.211 87.0482 125.881C87.0921 126.367 87.2707 126.831 87.564 127.221C87.8572 127.611 88.2535 127.911 88.7082 128.088C89.1629 128.265 89.6579 128.312 90.1376 128.222C90.6173 128.133 91.0625 127.912 91.4232 127.583C91.4566 127.967 91.5742 128.338 91.7677 128.671C91.9612 129.004 92.2258 129.29 92.5426 129.509C92.8594 129.728 93.2205 129.874 93.6004 129.938C93.9802 130.001 94.3693 129.979 94.7399 129.875L97.8899 121.415C99.1031 118.167 99.6782 114.716 99.5836 111.25L99.2649 100C99.2649 100 91.9961 100.604 87.7566 105.854C85.5816 108.548 81.3128 115.665 78.5774 123.402C78.8648 123.986 79.3595 124.442 79.9649 124.681Z" fill="#FFBE21"/>
<path d="M93.0876 129.792C92.6314 129.616 92.2334 129.316 91.9389 128.926C91.6443 128.535 91.4649 128.07 91.421 127.583C91.0603 127.912 90.615 128.133 90.1353 128.223C89.6557 128.312 89.1606 128.265 88.7059 128.088C88.2512 127.911 87.855 127.611 87.5617 127.221C87.2684 126.831 87.0898 126.367 87.046 125.881C86.6854 126.211 86.2399 126.433 85.7598 126.522C85.2798 126.612 84.7842 126.565 84.3292 126.388C83.8741 126.211 83.4777 125.91 83.1847 125.519C82.8916 125.129 82.7137 124.664 82.671 124.177C82.3711 124.45 82.0119 124.65 81.6216 124.761C81.2314 124.872 80.8208 124.89 80.4222 124.815C80.0235 124.74 79.6477 124.574 79.3243 124.329C79.0009 124.084 78.7387 123.768 78.5585 123.404C76.1876 130.111 74.9668 137.286 77.2626 142.45C82.2043 153.573 97.0355 149.658 100.536 148.629C104.036 147.6 110.836 144.098 115.367 144.717C119.898 145.336 125.046 147.6 125.871 144.717C125.871 144.717 128.644 144.646 127.771 142.008C127.771 142.008 129.165 141.836 129.371 140.806C129.788 138.746 124.84 136.894 124.84 136.894C124.84 136.894 128.754 137.519 129.577 136.686C130.619 135.644 129.606 133.963 123.213 132.413C116.19 130.713 106.921 131.742 93.121 134.213L94.7355 129.873C94.192 130.026 93.6135 129.997 93.0876 129.792Z" fill="#A15842"/>
<path d="M97.9439 120.292L93.3335 133.75" stroke="#30242A" stroke-width="2" stroke-linecap="round" stroke-linejoin="round"/>
<path d="M126.084 137.042C123.846 136.192 120.121 134.888 117.229 134.417" stroke="#30242A" stroke-width="2" stroke-linecap="round" stroke-linejoin="round"/>
<path d="M127.83 141.9C124.955 140.606 119.463 138.258 116.509 137.816" stroke="#30242A" stroke-width="2" stroke-linecap="round" stroke-linejoin="round"/>
<path d="M93.1543 133.779C91.6043 134.029 89.171 134.444 86.7397 134.929" stroke="#30242A" stroke-width="2" stroke-linecap="round" stroke-linejoin="round"/>
<path d="M125.786 145C123.63 143.902 119.086 141.719 115.892 141.11" stroke="#30242A" stroke-width="2" stroke-linecap="round" stroke-linejoin="round"/>
<path d="M222.292 118.417C222.292 118.417 220.654 122.1 216.359 122.1C212.063 122.1 210.417 118.417 210.417 118.417C210.417 118.417 198.334 146.042 210.209 160.571H222.486C234.354 146.042 222.292 118.417 222.292 118.417Z" fill="#3EC1F3"/>
<path d="M216.348 122.1C220.644 122.1 222.281 118.417 222.281 118.417H210.406C210.406 118.417 212.05 122.1 216.348 122.1Z" fill="#30242A"/>
<path d="M227.446 143.011C220.767 143.129 212.863 145.542 206.779 154.052" stroke="#F5EBDD" stroke-width="2" stroke-linecap="round" stroke-linejoin="round"/>
<path d="M205.71 136.25C210.194 135.156 218.683 134.114 226.913 136.073" stroke="#F5EBDD" stroke-width="2" stroke-linecap="round" stroke-linejoin="round"/>
<path d="M226.875 150.103C223.888 150.138 218.365 153.523 218.973 160.346" stroke="#F5EBDD" stroke-width="2" stroke-linecap="round" stroke-linejoin="round"/>
<path d="M215.596 120.875C215.471 117.906 214.682 106.108 209.994 99.1875" stroke="#30242A" stroke-width="2" stroke-miterlimit="10" stroke-linecap="round"/>
<path d="M214.619 111.803C215.218 110.787 212.042 107.803 207.524 105.137C203.006 102.472 198.858 101.134 198.258 102.15C197.659 103.166 200.836 106.15 205.354 108.816C209.871 111.481 214.02 112.818 214.619 111.803Z" fill="#30242A"/>
<path d="M212.865 82.3604C213.744 81.8589 213.292 79.4088 211.855 76.8879C210.418 74.3671 208.54 72.7301 207.66 73.2316C206.78 73.7331 207.233 76.1832 208.67 78.704C210.107 81.2249 211.985 82.8619 212.865 82.3604Z" fill="#30242A"/>
<path d="M197.392 93.0479C197.865 91.9958 200.09 91.9187 202.794 92.725C201.127 89.7437 200.617 86.9708 201.719 86.2563C202.821 85.5417 205.15 87.1229 207.194 89.8667C207.554 87.0687 208.529 85.075 209.694 85.0625C211.165 85.0625 212.369 88.3063 212.383 92.3188C212.392 93.4662 212.29 94.6117 212.079 95.7396C211.438 95.4459 210.733 95.317 210.03 95.3649C209.326 95.4127 208.645 95.6356 208.049 96.0133C207.454 96.3911 206.962 96.9117 206.619 97.5279C206.275 98.1441 206.091 98.8363 206.083 99.5417C205.005 99.2772 203.953 98.9131 202.942 98.4542C199.269 96.8104 196.79 94.3917 197.392 93.0479Z" fill="#4756DF"/>
<path d="M208.002 96.0414C208.6 95.6529 209.286 95.4218 209.997 95.3697C210.708 95.3176 211.421 95.4462 212.069 95.7435C211.711 97.6081 211.063 98.9914 210.284 99.4414C209.542 99.981 207.971 100.002 206.073 99.5456C206.081 98.8477 206.261 98.1626 206.598 97.5513C206.934 96.9399 207.417 96.4212 208.002 96.0414Z" fill="#30242A"/>
<path d="M217.159 120.696C217.734 117.417 220.727 101.34 225.519 92.2441" stroke="#30242A" stroke-width="2" stroke-miterlimit="10" stroke-linecap="round"/>
<path d="M241.692 114.524C242.037 113.461 237.434 111.016 231.412 109.065C225.389 107.114 220.228 106.395 219.883 107.459C219.538 108.523 224.141 110.967 230.163 112.918C236.186 114.869 241.347 115.588 241.692 114.524Z" fill="#30242A"/>
<path d="M224.617 78.1496C225.767 78.0454 226.925 79.9475 227.548 82.6996C229.323 79.7829 231.494 77.9788 232.658 78.5892C233.823 79.1996 233.586 82.0038 232.196 85.1308C234.813 84.0746 237.036 83.9412 237.613 84.9454C238.338 86.2246 236.098 88.8683 232.613 90.8475C231.619 91.4173 230.572 91.8903 229.488 92.26C229.428 91.5579 229.195 90.8816 228.808 90.2926C228.421 89.7036 227.894 89.2203 227.273 88.8866C226.652 88.5529 225.958 88.3793 225.254 88.3816C224.549 88.3839 223.856 88.5619 223.238 88.8996C222.94 87.8291 222.741 86.7335 222.644 85.6267C222.258 81.6308 223.152 78.2829 224.617 78.1496Z" fill="#4756DF"/>
<path d="M227.215 88.8622C227.847 89.1927 228.385 89.6775 228.779 90.2715C229.174 90.8655 229.412 91.5495 229.471 92.2601C227.669 92.8622 226.138 92.9768 225.371 92.5184C224.538 92.1372 223.748 90.7768 223.215 88.8997C223.827 88.5638 224.512 88.3847 225.21 88.3781C225.908 88.3716 226.597 88.5379 227.215 88.8622Z" fill="#30242A"/>
<path d="M237.038 97.2227V97.2393C236.058 97.6433 235.265 98.3998 234.815 99.3597C234.366 100.319 234.292 101.413 234.609 102.424C234.926 103.436 235.611 104.291 236.528 104.823C237.445 105.354 238.527 105.523 239.563 105.296V105.312C234.073 107.031 229.056 106.614 228.356 104.379C227.656 102.143 231.548 98.9414 237.038 97.2227Z" fill="#4756DF"/>
<path d="M235.732 104.229C236.213 104.036 236.604 103.668 236.826 103.199C237.047 102.731 237.084 102.195 236.928 101.701C236.771 101.206 236.434 100.789 235.983 100.532C235.532 100.276 235.001 100.2 234.496 100.318C234.635 99.6354 234.939 98.9971 235.383 98.46C235.827 97.9229 236.397 97.5036 237.042 97.2393L239.567 105.296C238.889 105.445 238.185 105.426 237.516 105.24C236.847 105.054 236.235 104.707 235.732 104.229Z" fill="#FFB7D5"/>
<path d="M236.919 101.708C237.073 102.201 237.037 102.733 236.817 103.2C236.597 103.667 236.209 104.035 235.731 104.229C235.211 103.735 234.825 103.117 234.609 102.433C234.393 101.749 234.354 101.022 234.496 100.318C235 100.203 235.53 100.282 235.979 100.539C236.428 100.797 236.764 101.214 236.919 101.708Z" fill="#30242A"/>
</svg>
