<svg width="17" height="16" viewBox="0 0 17 16" fill="none" xmlns="http://www.w3.org/2000/svg">
<g id="Icons" clip-path="url(#clip0_1417_5491)">
<g id="Group">
<path id="Vector" d="M8.49992 1.33301C4.81992 1.33301 1.83325 4.31967 1.83325 7.99967C1.83325 11.6797 4.81992 14.6663 8.49992 14.6663C12.1799 14.6663 15.1666 11.6797 15.1666 7.99967C15.1666 4.31967 12.1799 1.33301 8.49992 1.33301ZM9.05992 11.8463V12.1063C9.05992 12.413 8.81325 12.6597 8.50659 12.6597C8.19992 12.6597 7.95325 12.413 7.95325 12.1063V11.8063C6.92659 11.573 6.39992 10.9263 6.13325 10.3997C5.97992 10.1063 6.12659 9.73967 6.43325 9.61301L6.47992 9.59301C6.75325 9.47968 7.05992 9.59301 7.19992 9.85301C7.41325 10.2597 7.83992 10.773 8.61992 10.773C9.23992 10.773 9.93992 10.4597 9.93992 9.70634C9.93992 9.06634 9.47325 8.72634 8.41992 8.35301C7.47325 8.01301 6.18659 7.57301 6.18659 6.14634C6.18659 4.93967 7.19992 4.31301 7.95992 4.16634V3.88634C7.94659 3.57967 8.19325 3.33301 8.49992 3.33301C8.80659 3.33301 9.05325 3.57967 9.05325 3.88634V4.14634C9.78659 4.26634 10.2399 4.65301 10.5133 4.99967C10.7466 5.29967 10.6333 5.73301 10.2866 5.88634C10.0466 5.98634 9.76659 5.91301 9.60659 5.70634C9.41992 5.45301 9.08659 5.19301 8.53325 5.19301C8.06659 5.19301 7.32659 5.43967 7.32659 6.11967C7.32659 6.85301 8.17992 7.09301 9.08659 7.39301C10.2866 7.81301 11.1066 8.44634 11.0933 9.68634C11.0999 11.6197 9.09325 11.8397 9.05992 11.8463Z" fill="#FFCAB3"/>
</g>
</g>
<defs>
<clipPath id="clip0_1417_5491">
<rect width="16" height="16" fill="white" transform="translate(0.5)"/>
</clipPath>
</defs>
</svg>
