<svg width="333" height="250" viewBox="0 0 333 250" fill="none" xmlns="http://www.w3.org/2000/svg">
<path d="M132.717 85.3252H57.5875C54.2128 85.3252 51.4771 88.0609 51.4771 91.4356V166.565C51.4771 169.939 54.2128 172.675 57.5875 172.675H132.717C136.091 172.675 138.827 169.939 138.827 166.565V91.4356C138.827 88.0609 136.091 85.3252 132.717 85.3252Z" fill="#F5EBDD"/>
<path d="M122.51 82.7128C123.675 82.7128 124.619 81.7688 124.619 80.6044C124.619 79.44 123.675 78.4961 122.51 78.4961C121.346 78.4961 120.402 79.44 120.402 80.6044C120.402 81.7688 121.346 82.7128 122.51 82.7128Z" fill="#A15842"/>
<path d="M122.51 73.2754V79.9025" stroke="#A15842" stroke-width="2" stroke-miterlimit="10"/>
<path d="M131.596 75.4854H128.387V103.196H131.596V75.4854Z" fill="#A15842"/>
<path d="M139.542 52.6377C138.9 53.9064 136.208 58.3356 129.992 58.3356C123.775 58.3356 121.085 53.9064 120.442 52.6377L114.431 75.4856H145.554L139.542 52.6377Z" fill="#FFBE21"/>
<path d="M136.948 53.0811L140.99 75.4894" stroke="#F5EBDD" stroke-width="2" stroke-miterlimit="10" stroke-linecap="round"/>
<path d="M123.037 53.373L119.048 75.4897" stroke="#F5EBDD" stroke-width="2" stroke-miterlimit="10" stroke-linecap="round"/>
<path d="M127.371 53.2295L125.825 75.4816" stroke="#F5EBDD" stroke-width="2" stroke-miterlimit="10" stroke-linecap="round"/>
<path d="M132.613 53.2295L134.163 75.5253" stroke="#F5EBDD" stroke-width="2" stroke-miterlimit="10" stroke-linecap="round"/>
<path d="M130 58.3335C136.219 58.3335 138.908 53.9043 139.55 52.6355V52.5918H120.454L120.442 52.6355C121.085 53.9064 123.775 58.3335 130 58.3335Z" fill="#FF7235"/>
<path d="M252.194 42.5518H177.065C173.69 42.5518 170.954 45.2875 170.954 48.6622V123.791C170.954 127.166 173.69 129.902 177.065 129.902H252.194C255.568 129.902 258.304 127.166 258.304 123.791V48.6622C258.304 45.2875 255.568 42.5518 252.194 42.5518Z" fill="#F5EBDD"/>
<path d="M129.89 211.829C129.31 211.829 128.75 211.618 128.316 211.234C127.882 210.85 127.602 210.321 127.531 209.746L125.773 194.973H134.006L132.248 209.746C132.177 210.321 131.898 210.851 131.464 211.234C131.029 211.618 130.469 211.83 129.89 211.829Z" fill="#30242A"/>
<path d="M222.258 211.829C221.679 211.83 221.119 211.618 220.685 211.234C220.251 210.85 219.972 210.321 219.902 209.746L218.144 194.973H226.375L224.616 209.746C224.546 210.321 224.267 210.851 223.832 211.234C223.398 211.618 222.838 211.83 222.258 211.829Z" fill="#30242A"/>
<path d="M81.5813 133.919H118.542V195.169H64.7292V150.769C64.7298 146.3 66.5055 142.014 69.6658 138.854C72.8262 135.694 77.1122 133.919 81.5813 133.919Z" fill="#FFB7D5"/>
<path d="M122.946 103.195H250.288C254.757 103.195 259.043 104.971 262.204 108.131C265.364 111.292 267.14 115.578 267.14 120.048V195.162H106.098V120.045C106.098 115.576 107.873 111.29 111.034 108.129C114.194 104.969 118.481 103.193 122.95 103.193L122.946 103.195Z" fill="#FFB7D5"/>
<path d="M106.094 142.943V195.162" stroke="#A15842" stroke-width="2" stroke-miterlimit="10" stroke-linecap="round"/>
<path d="M122.946 158.417H250.288C254.757 158.417 259.043 160.192 262.204 163.353C265.364 166.513 267.14 170.8 267.14 175.269V195.165H106.098V175.269C106.098 170.8 107.873 166.515 111.032 163.354C114.192 160.194 118.477 158.418 122.946 158.417Z" fill="#FFB7D5"/>
<path d="M200.8 158.417H122.337C118.028 158.417 113.894 160.129 110.847 163.177C107.799 166.224 106.087 170.357 106.087 174.667V195.171" stroke="#A15842" stroke-width="2" stroke-miterlimit="10" stroke-linecap="round"/>
<path d="M212.923 158.673V195.162" stroke="#A15842" stroke-width="2" stroke-miterlimit="10"/>
<path d="M267.14 133.517H229.567" stroke="#A15842" stroke-width="2" stroke-miterlimit="10"/>
<path d="M94.8499 127.083C99.6686 127.685 101.171 125.639 101.877 123.871C102.679 121.864 102.162 120.139 101.537 117.898C101.537 117.898 103.129 117.031 102.881 116.037C102.673 115.235 100.862 115.146 100.862 115.146C100.792 114.787 100.728 114.416 100.673 114.031C100.271 111.219 99.6686 109.612 99.6686 109.612C98.2624 110.014 96.4561 109.821 95.854 109.612C95.0407 111.866 93.5723 113.825 91.6374 115.237C91.6374 115.237 87.2186 110.419 84.4082 114.033C82.1165 116.981 85.4124 120.658 87.6207 121.06C86.3082 123.829 82.777 125.435 80.9395 126.106C81.052 126.977 81.1582 127.785 81.252 128.489H95.002L94.8499 127.083Z" fill="#EAA58B"/>
<path d="M142.673 144.567C143.398 141.987 143.991 139.371 144.448 136.73L139.629 123.678C139.629 123.678 141.637 118.261 139.837 117.453C138.037 116.644 134.006 121.875 132.4 126.088C131.706 127.909 129.81 132.094 127.883 136.259L142.673 144.567Z" fill="#EAA58B"/>
<path d="M122.76 147.171C122.76 147.171 111.115 137.332 106.073 133.715C101.031 130.098 95.252 130.707 95.252 130.707L94.9999 128.496H81.2499C81.4583 130.065 81.5937 131.107 81.5937 131.107L71.3562 167.654L101.875 165.244L101.073 153.994C101.073 153.994 117.531 167.744 126.977 166.444C135.496 165.265 140.335 152.965 142.671 144.569L127.879 136.261C125.352 141.731 122.76 147.171 122.76 147.171Z" fill="#3EC1F3"/>
<path d="M87.6209 121.066C85.4125 120.664 82.1146 116.987 84.4084 114.039C87.2188 110.425 91.6375 115.243 91.6375 115.243C93.5725 113.831 95.0409 111.872 95.8542 109.618C96.4563 109.827 98.2625 110.02 99.6688 109.618C99.6688 109.618 102.681 108.614 102.479 106.206C102.21 102.972 97.2584 104.397 97.2584 104.397C97.2584 104.397 91.8417 100.381 86.0084 102.991C79.7917 105.789 79.1875 111.429 79.5834 115.243C79.8125 117.433 80.4396 122.327 80.9334 126.112C82.7771 125.439 86.3084 123.835 87.6209 121.066Z" fill="#30242A"/>
<path d="M143.471 139.24C142.552 139.619 141.746 139.729 141.388 139.523C140.488 139.011 140.346 137.938 141.415 136.429C141.415 136.429 138.875 137.419 138.092 136.131C137.308 134.844 138.486 133.659 138.486 133.659C138.486 133.659 136.688 134.154 136.248 132.554C135.808 130.954 137.29 130.117 137.29 130.117C137.29 130.117 136.277 129.74 136.248 128.684C136.208 127.148 138.711 125.902 139.431 125.575" stroke="#A15842" stroke-width="4" stroke-miterlimit="10" stroke-linecap="round"/>
<path d="M101.517 153.95L100.773 145.265" stroke="#4756DF" stroke-width="2" stroke-miterlimit="10" stroke-linecap="round"/>
<path d="M94.6605 127.454C93.4954 127.191 92.3732 126.764 91.3271 126.188" stroke="#A15842" stroke-width="2" stroke-miterlimit="10" stroke-linecap="round"/>
<path d="M72.6604 164.942L77.8354 151.182" stroke="#4756DF" stroke-width="2" stroke-miterlimit="10" stroke-linecap="round"/>
<path d="M99.9 119.956C99.5687 120.164 98.3229 120.322 97.8167 119.366" stroke="#A15842" stroke-width="2" stroke-miterlimit="10" stroke-linecap="round"/>
<path d="M98.0625 115.443C98.3951 115.443 98.6646 115.174 98.6646 114.841C98.6646 114.509 98.3951 114.239 98.0625 114.239C97.73 114.239 97.4604 114.509 97.4604 114.841C97.4604 115.174 97.73 115.443 98.0625 115.443Z" fill="#A15842"/>
<path d="M87.0188 116.65L89.2271 117.855" stroke="#A15842" stroke-width="2" stroke-miterlimit="10" stroke-linecap="round"/>
<path d="M143.354 203.655L158.735 199.102C157.562 195.048 155.319 187.363 153.875 182.886L134.681 190.898C137.193 195.396 140.095 199.665 143.354 203.655Z" fill="#EAA58B"/>
<path d="M143.646 203.998C143.196 205.707 142.917 207.456 142.812 209.22H170.023C169.501 207.964 168.574 206.919 167.39 206.25L159.508 201.787C159.508 201.787 159.208 200.745 158.735 199.1L143.354 203.654C143.542 203.879 143.646 203.998 143.646 203.998Z" fill="#FFBE21"/>
<path d="M142.842 211.829H170.55L170.465 210.971C170.405 210.369 170.255 209.779 170.021 209.221H142.81C142.751 210.09 142.761 210.962 142.842 211.829Z" fill="#FF7235"/>
<path d="M129.187 178.096C130.517 182.68 132.552 187.077 134.681 190.898L153.875 182.886C153.667 182.213 153.458 181.613 153.283 181.107C147.277 163.75 143.646 149.792 134.81 148.377C120.904 146.165 97.2479 170.115 93.6958 173.794L98.8125 176.896L114.9 184.452L120.76 185.805L129.187 178.096Z" fill="#A15842"/>
<path d="M128.75 177.917C128.294 175.696 128.071 173.434 128.083 171.167" stroke="#30242A" stroke-width="2" stroke-miterlimit="10" stroke-linecap="round"/>
<path d="M203.283 130.504C203.283 130.504 184.04 135.581 175.575 140.344C165.935 145.76 165.333 152.994 159.31 171.267C157.371 177.148 156 181.873 154.727 185.585L171.319 193.419L171.35 193.356C171.35 193.356 179.475 192.162 180.185 182.106C180.721 174.606 180.977 169.042 183.598 163.431L228.377 130.5L203.283 130.504Z" fill="#30242A"/>
<path d="M145.781 196.616C139.979 197.495 137.558 198.625 136.615 201.256L147.575 206.358C147.575 206.358 153.452 204.691 156.617 205.506V205.516C158.736 206.013 160.806 206.706 162.798 207.585C166.063 203.128 168.922 198.387 171.339 193.418L154.748 185.585C152.369 192.533 150.385 195.918 145.781 196.616Z" fill="#4856DF"/>
<path d="M153.977 209.342L159.323 211.829C160.558 210.482 161.714 209.065 162.785 207.585C160.793 206.706 158.724 206.014 156.604 205.517L153.977 209.342Z" fill="#30242A"/>
<path d="M151.233 192.287L154.954 193.914" stroke="#F5EBDD" stroke-width="2" stroke-miterlimit="10" stroke-linecap="round"/>
<path d="M149.119 194.869L152.839 196.498" stroke="#F5EBDD" stroke-width="2" stroke-miterlimit="10" stroke-linecap="round"/>
<path d="M222.76 85.8251C223.925 85.8251 224.869 84.8811 224.869 83.7167C224.869 82.5523 223.925 81.6084 222.76 81.6084C221.596 81.6084 220.652 82.5523 220.652 83.7167C220.652 84.8811 221.596 85.8251 222.76 85.8251Z" fill="#FFBE21"/>
<path d="M230.192 70.4643C234.849 70.4643 238.625 66.6886 238.625 62.031C238.625 57.3734 234.849 53.5977 230.192 53.5977C225.534 53.5977 221.758 57.3734 221.758 62.031C221.758 66.6886 225.534 70.4643 230.192 70.4643Z" fill="#30242A"/>
<path d="M224.375 67.6538C224.892 67.8913 220.56 57.6121 218.352 59.2183C216.265 60.7308 221.756 66.4579 224.375 67.6538Z" fill="#3EC1F3"/>
<path d="M224.606 68.2809C225.079 68.8454 236.125 64.9809 234.606 62.7496C233.125 60.6059 224.135 67.7079 224.606 68.2809Z" fill="#3EC1F3"/>
<path d="M245.252 108.617L246.219 108.467V108.184C245.906 108.348 245.583 108.493 245.252 108.617Z" fill="#30242A"/>
<path d="M218.946 106.409C228.346 106.58 233.089 97.0087 234.294 94.1525C233.877 94.0754 233.46 94.0087 233.002 93.9587C227.585 93.3566 226.577 93.1566 224.769 90.7462C222.96 88.3358 222.76 83.5171 222.76 83.5171C222.76 83.5171 227.444 82.4754 226.777 78.6983C226.175 75.2837 222.158 75.2837 219.95 77.6941C219.95 77.6941 216.535 76.89 213.323 73.2754C213.323 73.2754 210.973 73.8275 209.364 73.5587C208.948 76.1879 208.973 79.1296 208.498 81.5087C207.694 85.5254 208.289 88.1358 210.706 89.5421C213.123 90.9483 215.927 89.9421 215.927 89.9421L215.325 93.5566C215.325 93.5566 211.819 93.9629 208.896 94.8816C209.477 99.4191 211.566 106.275 218.946 106.409Z" fill="#A15842"/>
<path d="M231.998 130.504L233.092 129.763L231.196 130.504H231.998Z" fill="#A15842"/>
<path d="M188.625 107.213C188.625 107.213 178.098 92.8379 175.573 89.9421C172.76 86.7296 168.946 83.3171 167.742 84.5254C166.538 85.7337 169.95 89.7462 169.95 89.7462L169.348 102.798C169.348 102.798 176.265 121.45 183.806 123.884C187.577 125.1 194.74 121.892 199.8 119.175L191.973 105.009C189.983 106.313 188.625 107.213 188.625 107.213Z" fill="#A15842"/>
<path d="M245.252 108.617C245.252 108.617 244.448 104.2 243.444 101.79C241.942 98.1815 239.462 95.1232 234.294 94.1523C233.09 97.0086 228.346 106.579 218.946 106.409C211.567 106.275 209.477 99.419 208.902 94.8815C208.286 95.0697 207.684 95.2979 207.098 95.5648C204.979 96.5544 196.698 101.917 191.973 105.009L199.792 119.167C203.081 117.402 205.483 115.834 205.483 115.834L203.275 130.492H231.192L233.087 129.75L246.212 120.846C246.195 116.752 245.874 112.664 245.252 108.617Z" fill="#FF7235"/>
<path d="M251.075 98.3771C249.635 91.5416 242.24 91.75 242.24 91.75C242.599 90.1143 242.548 88.4153 242.093 86.8039C241.637 85.1924 240.791 83.7183 239.629 82.5125C235.613 78.2958 229.99 80.1021 229.99 80.1021C230.198 77.6937 230.592 71.4687 225.371 67.6541C220.15 63.8396 213.525 65.8458 211.115 68.8583C210.133 70.0854 209.656 71.7479 209.371 73.5583C210.973 73.8271 213.329 73.275 213.329 73.275C216.542 76.8896 219.956 77.6937 219.956 77.6937C222.165 75.2833 226.181 75.2833 226.783 78.6979C227.45 82.475 222.767 83.5166 222.767 83.5166C222.767 83.5166 222.975 88.3354 224.775 90.7458C226.575 93.1562 227.588 93.3562 233.008 93.9583C233.458 94.0083 233.888 94.075 234.3 94.1521C239.469 95.1208 241.948 98.1812 243.45 101.79C244.454 104.2 245.258 108.617 245.258 108.617C245.586 108.492 245.905 108.348 246.215 108.183C248.16 107.171 252.317 104.273 251.075 98.3771Z" fill="#30242A"/>
<path d="M222.36 80.1017L223.967 79.0996" stroke="#30242A" stroke-width="2" stroke-miterlimit="10" stroke-linecap="round"/>
<path d="M212.083 84.8171C212.417 85.0255 213.661 85.1838 214.167 84.2275" stroke="#30242A" stroke-width="2" stroke-miterlimit="10" stroke-linecap="round"/>
<path d="M215.358 80.2979C215.691 80.2979 215.961 80.0284 215.961 79.6958C215.961 79.3633 215.691 79.0938 215.358 79.0938C215.026 79.0938 214.756 79.3633 214.756 79.6958C214.756 80.0284 215.026 80.2979 215.358 80.2979Z" fill="#30242A"/>
<path d="M210.712 79.5001C211.045 79.5001 211.315 79.2305 211.315 78.898C211.315 78.5655 211.045 78.2959 210.712 78.2959C210.38 78.2959 210.11 78.5655 210.11 78.898C210.11 79.2305 210.38 79.5001 210.712 79.5001Z" fill="#30242A"/>
<path d="M212.319 80.5039C212.319 80.5039 211.771 81.8768 211.902 82.1518C211.997 82.3284 212.142 82.4733 212.319 82.5685" stroke="#30242A" stroke-width="2" stroke-miterlimit="10" stroke-linecap="round"/>
<path d="M171.25 105.508C171.577 105.505 171.894 105.399 172.156 105.204C172.867 104.494 172.723 103.454 171.335 102.321C171.335 102.321 173.965 102.594 174.365 101.187C174.765 99.7811 173.362 98.979 173.362 98.979C173.362 98.979 175.169 98.979 175.169 97.3727C175.169 95.7665 173.562 95.3644 173.562 95.3644C173.562 95.3644 174.412 94.7498 174.165 93.7581C173.762 92.1519 170.35 91.7498 170.35 91.7498L169.879 91.1748" stroke="#30242A" stroke-width="4" stroke-linecap="round" stroke-linejoin="round"/>
<path d="M216.042 90.333C216.888 89.9965 217.715 89.6104 218.517 89.1768" stroke="#30242A" stroke-width="2" stroke-miterlimit="10" stroke-linecap="round"/>
<path d="M189.125 107.167L191.235 110.023" stroke="#30242A" stroke-width="2" stroke-miterlimit="10" stroke-linecap="round"/>
<path d="M206.171 109.217L205.146 115.65" stroke="#A15842" stroke-width="2" stroke-miterlimit="10" stroke-linecap="round"/>
<path d="M230.994 122.271L230.894 111.932" stroke="#A15842" stroke-width="2" stroke-miterlimit="10" stroke-linecap="round"/>
<path d="M242.544 92.0312C242.254 93.1157 241.865 94.1715 241.383 95.1854" stroke="black" stroke-width="2" stroke-linecap="round" stroke-linejoin="round"/>
<path d="M230.358 80.333L229.79 83.3163" stroke="black" stroke-width="2" stroke-linecap="round" stroke-linejoin="round"/>
<path d="M218.144 130.706C218.144 130.706 200.873 136.123 191.235 140.746C181.652 145.329 182.802 156.006 184.608 174.681C185.248 181.283 185.996 186.452 186.375 190.546H204.708C205.65 190.021 211.208 186.452 207.894 176.69C205.473 169.562 203.383 164.842 203.383 158.65H218.717C223.078 158.65 227.268 156.95 230.396 153.91C233.524 150.87 235.344 146.731 235.469 142.371L235.804 130.704L218.144 130.706Z" fill="#30242A"/>
<path d="M182.879 203.75C177.996 207.004 176.281 209.05 176.536 211.835L188.619 211.818C188.619 211.818 193.238 207.821 196.45 207.218C198.579 206.814 200.741 206.612 202.908 206.616C203.644 203.014 204.436 197.608 204.575 190.62L204.708 190.552H186.375C187.015 197.423 186.608 201.26 182.879 203.75Z" fill="#4856DF"/>
<path d="M195.694 211.8H201.592C201.592 211.8 202.233 210.007 202.925 206.619C200.758 206.615 198.596 206.817 196.467 207.221L195.694 211.8Z" fill="#30242A"/>
<path d="M203.198 159.019H198.465" stroke="black" stroke-width="2" stroke-linecap="round" stroke-linejoin="round"/>
<path d="M186.006 198.478H190.533" stroke="#F5EBDD" stroke-width="2" stroke-miterlimit="10" stroke-linecap="round"/>
<path d="M185 201.689H189.527" stroke="#F5EBDD" stroke-width="2" stroke-miterlimit="10" stroke-linecap="round"/>
<path d="M123.867 166.648C128.801 166.648 132.802 162.648 132.802 157.713C132.802 152.778 128.801 148.777 123.867 148.777C118.932 148.777 114.931 152.778 114.931 157.713C114.931 162.648 118.932 166.648 123.867 166.648Z" fill="white"/>
<path d="M126.377 155.002C126.377 153.615 125.253 152.491 123.867 152.491C122.48 152.491 121.356 153.615 121.356 155.002V158.012C121.356 159.399 122.48 160.522 123.867 160.522C125.253 160.522 126.377 159.399 126.377 158.012V155.002Z" fill="#4856DF"/>
<path d="M123.867 159.721V162.533" stroke="#4856DF" stroke-width="2" stroke-miterlimit="10" stroke-linecap="round"/>
<path d="M122.427 162.533H125.304" stroke="#4856DF" stroke-width="2" stroke-miterlimit="10" stroke-linecap="round"/>
<path d="M60.8125 97.9727C62.6419 97.9727 64.125 96.4896 64.125 94.6602C64.125 92.8307 62.6419 91.3477 60.8125 91.3477C58.9831 91.3477 57.5 92.8307 57.5 94.6602C57.5 96.4896 58.9831 97.9727 60.8125 97.9727Z" fill="white"/>
<path d="M70.8542 97.9727C72.6837 97.9727 74.1667 96.4896 74.1667 94.6602C74.1667 92.8307 72.6837 91.3477 70.8542 91.3477C69.0248 91.3477 67.5417 92.8307 67.5417 94.6602C67.5417 96.4896 69.0248 97.9727 70.8542 97.9727Z" fill="white"/>
<path d="M80.8938 97.9727C82.7232 97.9727 84.2063 96.4896 84.2063 94.6602C84.2063 92.8307 82.7232 91.3477 80.8938 91.3477C79.0644 91.3477 77.5813 92.8307 77.5813 94.6602C77.5813 96.4896 79.0644 97.9727 80.8938 97.9727Z" fill="white"/>
<path d="M132.708 85.3245C134.328 85.3245 135.882 85.9681 137.028 87.1136C138.173 88.2592 138.817 89.8128 138.817 91.4329V166.564C138.817 168.184 138.173 169.738 137.028 170.883C135.882 172.029 134.328 172.672 132.708 172.672H57.5855C55.9654 172.672 54.4118 172.029 53.2662 170.883C52.1207 169.738 51.4771 168.184 51.4771 166.564V91.4329C51.4771 89.8128 52.1207 88.2592 53.2662 87.1136C54.4118 85.9681 55.9654 85.3245 57.5855 85.3245H132.708ZM132.708 84.4912H57.5855C55.7451 84.4934 53.9807 85.2255 52.6794 86.5268C51.3781 87.8282 50.646 89.5925 50.6438 91.4329V166.564C50.646 168.404 51.3781 170.169 52.6794 171.47C53.9807 172.771 55.7451 173.504 57.5855 173.506H132.708C134.549 173.504 136.313 172.771 137.614 171.47C138.916 170.169 139.648 168.404 139.65 166.564V91.4329C139.648 89.5925 138.916 87.8282 137.614 86.5268C136.313 85.2255 134.549 84.4934 132.708 84.4912Z" fill="#F5EBDD"/>
<path d="M230.175 133.919H267.14V195.169H213.333V150.769C213.334 146.302 215.108 142.017 218.266 138.858C221.424 135.698 225.708 133.922 230.175 133.919Z" fill="#FFB7D5"/>
<path d="M257.902 195.196C258.395 193.779 259.318 192.55 260.541 191.681C261.765 190.812 263.228 190.344 264.729 190.344C266.23 190.344 267.693 190.812 268.917 191.681C270.14 192.55 271.062 193.779 271.556 195.196C272.028 193.844 272.891 192.661 274.035 191.8C275.18 190.938 276.555 190.436 277.985 190.357C277.346 189.217 276.586 188.151 275.716 187.175L273.091 184.236C272.274 183.319 271.759 182.173 271.616 180.953C271.473 179.733 271.708 178.498 272.291 177.417L274.521 173.275C273.896 173.9 270.279 177.292 264.789 177.292C259.3 177.292 255.685 173.907 255.06 173.275L257.291 177.417C257.873 178.499 258.108 179.733 257.964 180.953C257.82 182.173 257.305 183.319 256.487 184.236L253.862 187.175C252.991 188.152 252.229 189.221 251.589 190.363C252.999 190.463 254.348 190.975 255.47 191.834C256.592 192.693 257.437 193.862 257.902 195.196Z" fill="#4756DF"/>
<path d="M278.383 199.375C276.882 199.376 275.419 199.843 274.196 200.713C272.972 201.583 272.05 202.812 271.556 204.229C271.064 202.811 270.142 201.581 268.918 200.711C267.695 199.841 266.23 199.373 264.729 199.373C263.228 199.373 261.764 199.841 260.54 200.711C259.317 201.581 258.395 202.811 257.902 204.229C257.306 202.515 256.086 201.088 254.487 200.232C252.887 199.375 251.024 199.151 249.267 199.604C249.37 204.188 251.219 208.559 254.437 211.825H275.121C278.333 208.566 280.181 204.205 280.29 199.631C279.668 199.462 279.027 199.376 278.383 199.375Z" fill="#4756DF"/>
<path d="M264.779 177.292C270.269 177.292 273.883 173.907 274.51 173.275H255.05C255.675 173.907 259.291 177.292 264.779 177.292Z" fill="#30242A"/>
<path d="M257.902 204.233C258.394 202.815 259.317 201.585 260.54 200.715C261.763 199.845 263.228 199.377 264.729 199.377C266.23 199.377 267.695 199.845 268.918 200.715C270.141 201.585 271.064 202.815 271.556 204.233C272.158 202.502 273.394 201.065 275.016 200.211C276.637 199.358 278.522 199.152 280.289 199.635C280.372 196.391 279.576 193.185 277.985 190.356C276.555 190.435 275.18 190.938 274.036 191.799C272.891 192.661 272.028 193.843 271.556 195.196C271.063 193.778 270.14 192.55 268.917 191.68C267.693 190.811 266.23 190.344 264.729 190.344C263.228 190.344 261.765 190.811 260.541 191.68C259.318 192.55 258.395 193.778 257.902 195.196C257.436 193.858 256.587 192.687 255.461 191.828C254.335 190.968 252.982 190.459 251.569 190.362C249.989 193.183 249.197 196.376 249.277 199.608C251.034 199.155 252.897 199.379 254.497 200.236C256.097 201.092 257.316 202.519 257.912 204.233H257.902Z" fill="#3EC1F3"/>
<path d="M266.221 176.723C266.617 174.294 268.423 164.657 272.962 159.432" stroke="#30242A" stroke-width="2" stroke-miterlimit="10" stroke-linecap="round"/>
<path d="M264.123 176.792C264.094 174.033 263.81 160.479 261.115 152.392" stroke="#30242A" stroke-width="2" stroke-miterlimit="10" stroke-linecap="round"/>
<path d="M276.065 167.297C280.046 165.545 282.954 163.399 282.56 162.504C282.166 161.609 278.619 162.303 274.638 164.055C270.658 165.807 267.75 167.952 268.144 168.847C268.538 169.743 272.084 169.048 276.065 167.297Z" fill="#30242A"/>
<path d="M276.062 142.67C277.493 140.736 278.106 138.763 277.43 138.263C276.755 137.764 275.048 138.927 273.617 140.861C272.186 142.795 271.574 144.768 272.249 145.268C272.924 145.767 274.632 144.604 276.062 142.67Z" fill="#30242A"/>
<path d="M254.518 168.695C259.707 167.91 263.801 166.53 263.662 165.613C263.523 164.696 259.205 164.589 254.016 165.374C248.827 166.159 244.733 167.538 244.872 168.455C245.01 169.372 249.329 169.479 254.518 168.695Z" fill="#30242A"/>
<path d="M250.892 155.147V155.162C251.657 155.591 252.235 156.291 252.51 157.125C252.785 157.958 252.739 158.865 252.379 159.665C252.019 160.466 251.373 161.103 250.567 161.451C249.761 161.799 248.854 161.833 248.025 161.545V161.56C252.375 163.514 256.546 163.662 257.342 161.891C258.137 160.12 255.242 157.102 250.892 155.147Z" fill="#FF7235"/>
<path d="M263.75 140.984C262.823 140.744 261.619 142.144 260.739 144.317C259.681 141.686 258.146 139.925 257.112 140.267C256.079 140.609 255.892 142.936 256.608 145.684C254.612 144.467 252.81 144.059 252.21 144.802C251.444 145.752 252.921 148.215 255.51 150.304C256.247 150.905 257.04 151.433 257.879 151.882C258.022 151.314 258.304 150.792 258.7 150.362C259.096 149.932 259.593 149.607 260.146 149.418C260.699 149.228 261.291 149.18 261.868 149.277C262.444 149.375 262.987 149.615 263.448 149.975C263.836 149.14 264.146 148.271 264.375 147.379C265.208 144.15 264.931 141.29 263.75 140.984Z" fill="#FF7235"/>
<path d="M283.937 155.602C283.652 154.689 281.827 154.408 279.523 154.806C281.189 152.514 281.881 150.283 281.044 149.585C280.206 148.887 278.127 149.962 276.181 152.02C276.158 149.683 275.556 147.939 274.604 147.823C273.394 147.675 272.083 150.231 271.687 153.533C271.567 154.476 271.539 155.428 271.602 156.377C272.159 156.198 272.751 156.161 273.326 156.27C273.9 156.378 274.439 156.629 274.892 156.998C275.345 157.368 275.699 157.845 275.921 158.385C276.143 158.926 276.227 159.514 276.164 160.095C277.078 159.984 277.98 159.788 278.858 159.51C282.023 158.516 284.302 156.766 283.937 155.602Z" fill="#FF7235"/>
<path d="M274.911 157.023C274.457 156.644 273.914 156.386 273.334 156.274C272.754 156.161 272.155 156.196 271.592 156.377C271.704 157.948 272.102 159.15 272.7 159.598C273.256 160.114 274.548 160.285 276.154 160.096C276.217 159.521 276.136 158.939 275.919 158.403C275.702 157.867 275.355 157.393 274.911 157.023Z" fill="#30242A"/>
<path d="M260.183 149.398C259.622 149.583 259.116 149.908 258.714 150.341C258.311 150.774 258.025 151.302 257.881 151.875C259.273 152.611 260.504 152.917 261.2 152.638C261.933 152.429 262.761 151.434 263.45 149.969C262.995 149.612 262.459 149.373 261.889 149.273C261.319 149.173 260.733 149.216 260.183 149.398Z" fill="#30242A"/>
<path d="M251.279 161.042C250.907 160.833 250.627 160.492 250.493 160.086C250.36 159.681 250.384 159.24 250.56 158.851C250.735 158.462 251.051 158.153 251.443 157.985C251.835 157.817 252.276 157.802 252.679 157.944C252.633 157.368 252.445 156.812 252.132 156.326C251.819 155.84 251.391 155.439 250.885 155.158L248.019 161.542C248.562 161.732 249.143 161.786 249.712 161.699C250.28 161.612 250.819 161.386 251.279 161.042Z" fill="#F5EBDD"/>
<path d="M250.548 158.854C250.373 159.244 250.351 159.686 250.486 160.092C250.622 160.498 250.905 160.838 251.279 161.045C251.756 160.69 252.135 160.22 252.38 159.678C252.625 159.136 252.728 158.54 252.679 157.948C252.275 157.803 251.831 157.816 251.436 157.984C251.041 158.152 250.724 158.462 250.548 158.854Z" fill="#4856DF"/>
<path d="M180.292 55.2022C182.121 55.2022 183.604 53.7191 183.604 51.8897C183.604 50.0602 182.121 48.5771 180.292 48.5771C178.462 48.5771 176.979 50.0602 176.979 51.8897C176.979 53.7191 178.462 55.2022 180.292 55.2022Z" fill="white"/>
<path d="M190.331 55.2022C192.161 55.2022 193.644 53.7191 193.644 51.8897C193.644 50.0602 192.161 48.5771 190.331 48.5771C188.502 48.5771 187.019 50.0602 187.019 51.8897C187.019 53.7191 188.502 55.2022 190.331 55.2022Z" fill="white"/>
<path d="M200.371 55.2022C202.2 55.2022 203.683 53.7191 203.683 51.8897C203.683 50.0602 202.2 48.5771 200.371 48.5771C198.541 48.5771 197.058 50.0602 197.058 51.8897C197.058 53.7191 198.541 55.2022 200.371 55.2022Z" fill="white"/>
<path d="M252.194 42.5521C253.814 42.5521 255.369 43.1959 256.514 44.3418C257.66 45.4877 258.304 47.0419 258.304 48.6625V123.794C258.304 125.414 257.66 126.968 256.514 128.113C255.368 129.259 253.814 129.902 252.194 129.902H177.065C175.444 129.902 173.89 129.259 172.745 128.113C171.599 126.968 170.955 125.414 170.954 123.794V48.6625C170.954 47.8601 171.112 47.0655 171.419 46.3241C171.726 45.5828 172.176 44.9092 172.744 44.3418C173.311 43.7744 173.985 43.3243 174.726 43.0172C175.468 42.7101 176.262 42.5521 177.065 42.5521H252.194ZM252.194 41.7188H177.065C175.224 41.721 173.459 42.4532 172.157 43.755C170.855 45.0567 170.123 46.8216 170.121 48.6625V123.794C170.123 125.634 170.855 127.399 172.157 128.701C173.459 130.002 175.224 130.734 177.065 130.735H252.194C254.035 130.734 255.799 130.002 257.101 128.701C258.403 127.399 259.135 125.634 259.138 123.794V48.6625C259.135 46.8216 258.403 45.0567 257.101 43.755C255.8 42.4532 254.035 41.721 252.194 41.7188Z" fill="#F5EBDD"/>
<path d="M170.15 89.7412C170.15 89.7412 165.733 89.7412 165.131 91.5475C164.529 93.3537 165.933 94.762 165.933 94.762C165.933 94.762 163.525 95.9662 165.131 98.1745C165.131 98.1745 163.925 100.183 165.933 101.387C165.933 101.387 164.729 102.793 166.737 104.2C168.746 105.606 171.556 105.806 172.154 105.204C172.865 104.493 172.721 103.454 171.333 102.32C171.333 102.32 173.962 102.593 174.362 101.187C174.762 99.7808 173.36 98.9787 173.36 98.9787C173.36 98.9787 175.167 98.9787 175.167 97.3725C175.167 95.7662 173.56 95.3641 173.56 95.3641C173.56 95.3641 174.41 94.7495 174.162 93.7579C173.867 92.5766 171.946 92.0475 170.948 91.8495C170.683 91.8007 170.415 91.7673 170.146 91.7495L170.15 89.7412Z" fill="#A15842"/>
<path d="M166.165 101.557C168.16 102.16 170.214 102.546 172.292 102.709" stroke="#30242A" stroke-width="2" stroke-miterlimit="10" stroke-linecap="round"/>
<path d="M165.417 98.333C168.323 99.0522 171.316 99.3601 174.308 99.2476" stroke="#30242A" stroke-width="2" stroke-miterlimit="10" stroke-linecap="round"/>
<path d="M166.052 95C168.807 95.6617 171.656 95.8436 174.473 95.5375" stroke="#30242A" stroke-width="2" stroke-miterlimit="10" stroke-linecap="round"/>
<path d="M230.592 127.902C230.592 127.902 214.327 132.12 208.704 136.337C206.164 138.241 203.079 141.754 202.079 143.364C201.079 144.975 196.858 150.995 198.867 151.195C200.875 151.395 203.083 147.783 203.083 147.783C203.083 147.783 201.875 152.2 202.083 153.606C202.292 155.012 204.292 154.61 204.292 154.61C205.898 156.216 207.304 154.208 207.304 154.208C210.114 156.014 213.137 146.377 213.137 146.377C214.787 145.564 216.309 144.515 217.656 143.264C217.656 143.264 235.627 143.164 241.25 138.143C245.242 134.581 246.227 127.554 246.225 120.866H230.6L230.592 127.902Z" fill="#A15842"/>
<path d="M230.742 127.415L234.408 126.498" stroke="#30242A" stroke-width="2" stroke-miterlimit="10" stroke-linecap="round"/>
<path d="M202.292 149.375C203.333 145.833 204.167 143.75 204.792 142.46" stroke="#30242A" stroke-width="2" stroke-miterlimit="10" stroke-linecap="round"/>
<path d="M207.6 143.667C205.792 147.563 204.683 152.263 204.167 154.584" stroke="#30242A" stroke-width="2" stroke-miterlimit="10" stroke-linecap="round"/>
<path d="M210.417 145.071C209.235 147.78 208.162 151.855 207.5 154.375" stroke="#30242A" stroke-width="2" stroke-miterlimit="10" stroke-linecap="round"/>
<path d="M205.725 134.932C200.831 136.673 195.369 138.765 191.235 140.746C183.827 144.288 182.833 151.477 183.598 163.18" stroke="black" stroke-width="2" stroke-linecap="round" stroke-linejoin="round"/>
<path d="M88.0354 192.561C79.8208 194.227 73.9666 196.369 73.9666 196.369L66.0625 192.867L66.0791 192.694L47.6604 209.421L48.0625 209.902C48.5652 210.505 49.1944 210.99 49.9054 211.323C50.6164 211.656 51.3919 211.829 52.1771 211.829H89.1458L88.0354 192.561Z" fill="#EAA58B"/>
<path d="M73.9583 196.369C73.9583 196.369 79.8125 194.217 88.027 192.56L89.1375 211.829H115.523C122.656 211.829 128.908 206.829 130.237 199.821C131.123 195.144 129.74 190.135 124.769 186.729C116.773 181.25 99.6687 174.079 95.252 172.673L70.9541 178.298C66.3354 183.319 67.3395 191.55 67.3395 191.55L73.9583 196.369Z" fill="#A15842"/>
<path d="M88.0957 192.821C93.5582 191.765 99.6603 190.85 108.202 191.248" stroke="#30242A" stroke-width="2" stroke-miterlimit="10" stroke-linecap="round"/>
<path d="M95.6687 172.465C99.5333 173.696 113.112 179.34 121.802 184.402" stroke="#30242A" stroke-width="2" stroke-miterlimit="10" stroke-linecap="round"/>
<path d="M69.9999 192.84L49.7312 211.234C50.4892 211.625 51.33 211.83 52.1833 211.829H66.9374L73.9583 196.369C72.8587 194.967 71.5183 193.772 69.9999 192.84Z" fill="#FFBE21"/>
<path d="M67.3396 191.548L47.6604 209.421L48.0625 209.902C48.5228 210.453 49.0896 210.906 49.7291 211.233L70 192.84C69.1636 192.312 68.2714 191.879 67.3396 191.548Z" fill="#FF7235"/>
<path d="M62.8208 208.316V211.875" stroke="#30242A" stroke-width="2" stroke-miterlimit="10" stroke-linecap="round"/>
<path d="M59.6084 208.316V211.875" stroke="#30242A" stroke-width="2" stroke-miterlimit="10" stroke-linecap="round"/>
<path d="M81.677 130.769C82.302 130.711 83.6062 130.604 84.9103 130.604" stroke="#4756DF" stroke-width="2" stroke-miterlimit="10" stroke-linecap="round"/>
<path d="M139.629 123.677C139.629 123.677 143.546 122.38 144.629 124.013C145.713 125.646 144.708 127.43 144.708 127.43C144.708 127.43 147.435 127.969 146.442 130.607C146.442 130.607 148.19 132.273 146.523 134.023C146.523 134.023 148.106 135.092 146.492 137.04C144.877 138.988 142.138 139.957 141.373 139.523C140.473 139.011 140.331 137.938 141.4 136.43C141.4 136.43 138.86 137.419 138.077 136.132C137.294 134.844 138.471 133.659 138.471 133.659C138.471 133.659 136.673 134.155 136.233 132.555C135.794 130.955 137.275 130.117 137.275 130.117C137.275 130.117 136.263 129.74 136.233 128.684C136.194 127.148 138.888 125.811 139.608 125.486L139.629 123.677Z" fill="#EAA58B"/>
<path d="M136.667 130.398C138.213 130.127 142.14 129.29 144.74 127.481" stroke="#A15842" stroke-width="2" stroke-miterlimit="10" stroke-linecap="round"/>
<path d="M137.292 134.15C140.556 133.741 143.688 132.608 146.458 130.833" stroke="#A15842" stroke-width="2" stroke-miterlimit="10" stroke-linecap="round"/>
<path d="M140.208 137.206C140.765 137.01 144.394 135.708 146.596 134.312" stroke="#A15842" stroke-width="2" stroke-miterlimit="10" stroke-linecap="round"/>
<path d="M84.6187 162.917C80.9833 163.361 76.927 164.017 72.3604 164.834L78.7854 147.565L81.5958 131.106C81.5958 131.106 72.3604 132.111 68.1437 136.94C64.2541 141.384 52.0791 162.04 56.8937 172.884C61.7083 183.727 76.175 179.902 79.5833 178.898C81.4437 178.35 84.2625 177.088 87.1562 176.148L84.6187 162.917Z" fill="#3EC1F3"/>
<path d="M94.0458 175.084C98.4645 175.686 103.483 177.894 104.287 175.084C104.287 175.084 106.996 175.015 106.142 172.44C106.142 172.44 107.5 172.271 107.7 171.267C108.102 169.261 103.283 167.452 103.283 167.452C103.283 167.452 107.098 168.054 107.902 167.244C108.925 166.219 107.929 164.588 101.698 163.077C97.1728 161.982 91.6978 162.048 84.6145 162.915L87.1582 176.138C89.5832 175.367 92.0374 174.809 94.0458 175.084Z" fill="#EAA58B"/>
<path d="M105 167.709C102.86 166.888 98.798 165.523 95.8542 165.044" stroke="#A15842" stroke-width="2" stroke-miterlimit="10" stroke-linecap="round"/>
<path d="M106.225 172.356C103.433 171.106 98.0416 168.79 95.1499 168.356" stroke="#A15842" stroke-width="2" stroke-miterlimit="10" stroke-linecap="round"/>
<path d="M104.06 175.291C101.908 174.2 97.602 172.15 94.5479 171.568" stroke="#A15842" stroke-width="2" stroke-miterlimit="10" stroke-linecap="round"/>
<path d="M84.6543 163.217C82.6918 163.471 76.4147 164.338 67.0376 166.148" stroke="#4756DF" stroke-width="2" stroke-miterlimit="10" stroke-linecap="round"/>
<path d="M243.344 123.877C248.279 123.877 252.279 119.876 252.279 114.941C252.279 110.006 248.279 106.006 243.344 106.006C238.409 106.006 234.408 110.006 234.408 114.941C234.408 119.876 238.409 123.877 243.344 123.877Z" fill="white"/>
<path d="M245.854 112.231C245.854 110.845 244.73 109.721 243.344 109.721C241.957 109.721 240.833 110.845 240.833 112.231V115.242C240.833 116.628 241.957 117.752 243.344 117.752C244.73 117.752 245.854 116.628 245.854 115.242V112.231Z" fill="#4856DF"/>
<path d="M243.344 116.95V119.763" stroke="#4856DF" stroke-width="2" stroke-miterlimit="10" stroke-linecap="round"/>
<path d="M241.904 119.763H244.783" stroke="#4856DF" stroke-width="2" stroke-miterlimit="10" stroke-linecap="round"/>
</svg>
