<svg width="333" height="250" viewBox="0 0 333 250" fill="none" xmlns="http://www.w3.org/2000/svg">
<path d="M230.215 69.3291H179.034C178.085 69.3302 177.175 69.708 176.504 70.3795C175.833 71.051 175.457 71.9613 175.457 72.9104V104.344H233.79V72.9104C233.789 71.9618 233.413 71.0522 232.743 70.3808C232.072 69.7095 231.163 69.3313 230.215 69.3291Z" fill="#F5EBDD"/>
<path d="M203.373 64.1361C203.7 64.1366 204.012 64.2665 204.243 64.4973C204.474 64.7281 204.604 65.0409 204.604 65.3673V85.1777C204.604 85.5041 204.474 85.817 204.243 86.0478C204.012 86.2785 203.7 86.4084 203.373 86.409H183.352C183.026 86.4079 182.714 86.2778 182.484 86.047C182.253 85.8163 182.124 85.5038 182.123 85.1777V65.3652C182.124 65.0396 182.254 64.7276 182.484 64.4973C182.715 64.267 183.027 64.1372 183.352 64.1361H203.373ZM203.373 63.3027H183.352C183.081 63.3025 182.812 63.3557 182.562 63.4593C182.311 63.5629 182.083 63.715 181.891 63.9067C181.699 64.0984 181.547 64.3261 181.443 64.5768C181.339 64.8274 181.286 65.096 181.286 65.3673V85.1777C181.286 85.7255 181.504 86.2506 181.892 86.6377C182.279 87.0249 182.805 87.2423 183.352 87.2423H203.373C203.921 87.2423 204.446 87.0248 204.833 86.6376C205.22 86.2504 205.438 85.7253 205.438 85.1777V65.3652C205.437 64.818 205.219 64.2934 204.832 63.9067C204.445 63.52 203.92 63.3027 203.373 63.3027Z" fill="#FFB7D5"/>
<path d="M235.058 87.1654C235.385 87.1659 235.698 87.2958 235.929 87.5266C236.159 87.7574 236.289 88.0702 236.29 88.3966V108.209C236.289 108.535 236.159 108.848 235.929 109.079C235.698 109.31 235.385 109.44 235.058 109.44H215.14C214.813 109.44 214.501 109.31 214.27 109.079C214.039 108.848 213.909 108.535 213.909 108.209V88.3966C213.909 88.0702 214.039 87.7574 214.27 87.5266C214.501 87.2958 214.813 87.1659 215.14 87.1654H235.058ZM235.058 86.332H215.14C214.592 86.332 214.067 86.5495 213.68 86.9367C213.293 87.3239 213.075 87.8491 213.075 88.3966V108.209C213.075 108.757 213.293 109.282 213.68 109.669C214.067 110.056 214.592 110.274 215.14 110.274H235.058C235.606 110.274 236.131 110.056 236.518 109.669C236.906 109.282 237.123 108.757 237.123 108.209V88.3966C237.123 87.8491 236.906 87.3239 236.518 86.9367C236.131 86.5495 235.606 86.332 235.058 86.332Z" fill="#FFB7D5"/>
<path d="M184.05 92.0921C184.376 92.0927 184.689 92.2226 184.92 92.4534C185.151 92.6841 185.281 92.997 185.281 93.3234V106.032C185.281 106.358 185.151 106.671 184.92 106.902C184.689 107.133 184.376 107.262 184.05 107.263H172.729C172.403 107.262 172.09 107.133 171.859 106.902C171.628 106.671 171.498 106.358 171.498 106.032V93.3234C171.498 92.997 171.628 92.6841 171.859 92.4534C172.09 92.2226 172.403 92.0927 172.729 92.0921H184.05ZM184.05 91.2588H172.729C172.458 91.2588 172.19 91.3122 171.939 91.4159C171.689 91.5197 171.461 91.6718 171.269 91.8635C171.078 92.0552 170.925 92.2828 170.822 92.5333C170.718 92.7838 170.665 93.0522 170.665 93.3234V106.032C170.665 106.579 170.882 107.104 171.269 107.492C171.656 107.879 172.182 108.096 172.729 108.096H184.05C184.598 108.096 185.123 107.879 185.51 107.492C185.897 107.104 186.115 106.579 186.115 106.032V93.3234C186.115 93.0522 186.061 92.7838 185.957 92.5333C185.854 92.2828 185.702 92.0552 185.51 91.8635C185.318 91.6718 185.091 91.5197 184.84 91.4159C184.59 91.3122 184.321 91.2588 184.05 91.2588Z" fill="#FFB7D5"/>
<path d="M202.413 66.1104H184.304V78.7854H202.413V66.1104Z" fill="#FFB7D5"/>
<path d="M213.413 74.5107H195.84C193.247 74.5107 191.146 76.6122 191.146 79.2045V94.3628C191.146 96.9551 193.247 99.0566 195.84 99.0566H213.413C216.005 99.0566 218.106 96.9551 218.106 94.3628V79.2045C218.106 76.6122 216.005 74.5107 213.413 74.5107Z" fill="white"/>
<path d="M187.71 81.4814C187.529 81.3001 187.283 81.1982 187.026 81.1982C186.769 81.1982 186.523 81.3001 186.342 81.4814L186.133 81.6897L185.925 81.4814C185.741 81.3125 185.499 81.2213 185.249 81.2267C185 81.2321 184.762 81.3336 184.585 81.5102C184.408 81.6868 184.307 81.9247 184.301 82.1744C184.296 82.424 184.387 82.6661 184.556 82.8501L184.764 83.0584L186.133 84.4272L187.5 83.0584L187.708 82.8501C187.89 82.6688 187.992 82.4228 187.992 82.1662C187.993 81.9095 187.891 81.6633 187.71 81.4814Z" fill="#FFB7D5"/>
<path d="M233.077 63.3027H176.173C174.382 63.3022 172.664 64.0126 171.397 65.2779C170.13 66.5432 169.417 68.2599 169.415 70.0507V109.653C169.415 111.445 170.126 113.163 171.393 114.43C172.66 115.697 174.379 116.409 176.171 116.409H233.075C234.867 116.409 236.585 115.697 237.852 114.43C239.119 113.163 239.831 111.445 239.831 109.653V70.0507C239.829 68.2606 239.116 66.5446 237.85 65.2794C236.584 64.0142 234.867 63.3033 233.077 63.3027ZM233.79 104.344H175.456V72.9111C175.456 72.4408 175.549 71.9751 175.729 71.5406C175.909 71.1061 176.173 70.7113 176.505 70.3787C176.838 70.0462 177.232 69.7824 177.667 69.6024C178.101 69.4225 178.567 69.3298 179.037 69.3298H230.219C231.169 69.3298 232.08 69.7071 232.752 70.3786C233.424 71.0502 233.801 71.9611 233.802 72.9111L233.79 104.344Z" fill="#4756DF"/>
<path d="M199.192 107.757H210.056C211.124 107.757 212.147 108.181 212.902 108.936C213.657 109.691 214.081 110.714 214.081 111.782V124.055C214.081 125.122 213.656 126.145 212.902 126.9C212.147 127.654 211.123 128.078 210.056 128.078H189.535C189.162 128.078 188.804 127.929 188.539 127.665C188.275 127.401 188.127 127.043 188.127 126.669C188.127 126.296 188.275 125.938 188.539 125.673C188.804 125.409 189.162 125.261 189.535 125.261H195.16V111.782C195.16 111.253 195.265 110.729 195.467 110.24C195.67 109.751 195.967 109.307 196.341 108.934C196.716 108.56 197.16 108.263 197.649 108.061C198.138 107.86 198.662 107.756 199.192 107.757Z" fill="#4756DF"/>
<path d="M204.625 112.888C206.014 112.888 207.139 111.762 207.139 110.373C207.139 108.984 206.014 107.858 204.625 107.858C203.236 107.858 202.11 108.984 202.11 110.373C202.11 111.762 203.236 112.888 204.625 112.888Z" fill="#3EC1F3"/>
<path d="M204.625 67.1152C205.069 67.1152 205.429 66.7551 205.429 66.311C205.429 65.8669 205.069 65.5068 204.625 65.5068C204.181 65.5068 203.821 65.8669 203.821 66.311C203.821 66.7551 204.181 67.1152 204.625 67.1152Z" fill="#30242A"/>
<path d="M214.081 116.811H195.123" stroke="#30242A" stroke-width="2" stroke-miterlimit="10"/>
<path d="M146.421 128.077H244.719C245.824 128.077 246.884 128.516 247.665 129.298C248.447 130.079 248.886 131.139 248.886 132.244V218.211H142.254V132.244C142.254 131.139 142.693 130.079 143.475 129.298C144.256 128.516 145.316 128.077 146.421 128.077Z" fill="#FFB7D5"/>
<path d="M210.129 137.965V152.594H152.142V137.965H210.129ZM210.963 137.132H151.309V153.428H210.963V137.132Z" fill="#A15842"/>
<path d="M181.136 147.794C182.524 147.794 183.65 146.668 183.65 145.279C183.65 143.89 182.524 142.765 181.136 142.765C179.747 142.765 178.621 143.89 178.621 145.279C178.621 146.668 179.747 147.794 181.136 147.794Z" fill="#A15842"/>
<path d="M210.129 163.315V208.325H152.142V163.315H210.129ZM210.963 162.481H151.309V209.159H210.963V162.481Z" fill="#A15842"/>
<path d="M172.483 188.334C173.872 188.334 174.998 187.208 174.998 185.819C174.998 184.43 173.872 183.305 172.483 183.305C171.095 183.305 169.969 184.43 169.969 185.819C169.969 187.208 171.095 188.334 172.483 188.334Z" fill="#A15842"/>
<path d="M189.788 188.334C191.176 188.334 192.302 187.208 192.302 185.819C192.302 184.43 191.176 183.305 189.788 183.305C188.399 183.305 187.273 184.43 187.273 185.819C187.273 187.208 188.399 188.334 189.788 188.334Z" fill="#A15842"/>
<path d="M181.286 162.884V208.757" stroke="#A15842" stroke-width="2" stroke-miterlimit="10"/>
<path d="M239.833 137.132H220.017V209.159H239.833V137.132Z" fill="#A15842"/>
<path d="M239.833 173.145H219.915" stroke="#FFB7D5" stroke-width="2" stroke-miterlimit="10"/>
<path d="M68.3083 128.077H138.24C139.345 128.077 140.404 128.516 141.186 129.298C141.967 130.079 142.406 131.139 142.406 132.244V218.211H64.1416V132.244C64.1416 131.139 64.5806 130.079 65.362 129.298C66.1434 128.516 67.2032 128.077 68.3083 128.077Z" fill="#3EC1F3"/>
<path d="M130.435 153.428H76.1123V209.159H130.435V153.428Z" fill="#30242A"/>
<path d="M130.435 209.158H76.1125L57 170.127H111.321L130.435 209.158Z" fill="#4756DF"/>
<path d="M95.0248 128.078H76.1123L78.1248 123.853H93.0123L95.0248 128.078Z" fill="#30242A"/>
<path d="M130.435 128.078H111.523L113.535 123.853H128.423L130.435 128.078Z" fill="#30242A"/>
<path d="M79.8352 144.576C81.8913 144.576 83.5581 142.909 83.5581 140.853C83.5581 138.797 81.8913 137.13 79.8352 137.13C77.7791 137.13 76.1123 138.797 76.1123 140.853C76.1123 142.909 77.7791 144.576 79.8352 144.576Z" fill="#F5EBDD"/>
<path d="M75.7104 140.853H78.7292" stroke="#30242A" stroke-width="2" stroke-miterlimit="10" stroke-linecap="round"/>
<path d="M95.4602 144.576C97.5163 144.576 99.1831 142.909 99.1831 140.853C99.1831 138.797 97.5163 137.13 95.4602 137.13C93.4041 137.13 91.7373 138.797 91.7373 140.853C91.7373 142.909 93.4041 144.576 95.4602 144.576Z" fill="#F5EBDD"/>
<path d="M95.4604 136.729V139.746" stroke="#30242A" stroke-width="2" stroke-miterlimit="10" stroke-linecap="round"/>
<path d="M111.088 144.576C113.144 144.576 114.811 142.909 114.811 140.853C114.811 138.797 113.144 137.13 111.088 137.13C109.032 137.13 107.365 138.797 107.365 140.853C107.365 142.909 109.032 144.576 111.088 144.576Z" fill="#F5EBDD"/>
<path d="M111.087 136.729V139.746" stroke="#30242A" stroke-width="2" stroke-miterlimit="10" stroke-linecap="round"/>
<path d="M126.713 144.576C128.769 144.576 130.436 142.909 130.436 140.853C130.436 138.797 128.769 137.13 126.713 137.13C124.657 137.13 122.99 138.797 122.99 140.853C122.99 142.909 124.657 144.576 126.713 144.576Z" fill="#F5EBDD"/>
<path d="M126.712 136.729V139.746" stroke="#30242A" stroke-width="2" stroke-miterlimit="10" stroke-linecap="round"/>
<path d="M103.323 177.571H74.9563C74.2337 177.571 73.6479 178.157 73.6479 178.879C73.6479 179.601 74.2337 180.186 74.9563 180.186H103.323C104.046 180.186 104.631 179.601 104.631 178.879C104.631 178.157 104.046 177.571 103.323 177.571Z" fill="#30242A"/>
<path d="M142.858 47.8024C139.148 50.1878 141.652 55.2461 145.071 55.4461C146.382 58.5077 146.526 61.9439 145.475 65.1044H150.683L150.702 62.9107C155.465 64.0961 157.219 62.2253 158.142 60.5357C159.183 58.619 158.875 56.8253 158.519 54.494C158.519 54.494 160.221 53.8169 160.092 52.7899C159.988 51.9565 158.173 51.6503 158.173 51.6503C158.146 51.2836 158.127 50.9044 158.117 50.5107C158.098 49.4656 158.022 48.4223 157.888 47.3857C153.888 49.5169 148.906 50.6232 148.906 50.6232C148.906 50.6232 145.675 45.9899 142.858 47.8024Z" fill="#A15842"/>
<path d="M204.859 123.622C207.04 124.455 208.648 123.049 208.246 122.242C207.984 121.717 200.436 116.055 192.646 110.301L183.723 121.428C185.771 122.213 187.121 122.657 187.121 122.657C187.121 122.657 189.334 126.076 192.554 128.088C192.554 128.088 195.973 136.336 197.784 136.136C199 136.001 197.381 131.307 196.979 129.295C196.979 129.295 201.004 136.136 203.619 136.136C204.223 136.136 204.779 135.72 204.825 134.728C204.825 134.728 206.152 135.092 206.638 134.124C206.846 133.722 206.846 133.117 206.846 132.715C206.846 132.715 207.888 133.005 208.456 132.313C209.415 131.155 207.315 127.326 204.859 123.622Z" fill="#A15842"/>
<path d="M120.929 88.2424C120.824 88.1507 120.705 88.0507 120.573 87.9424C120.69 88.0424 120.807 88.1424 120.929 88.2424Z" fill="#FF7235"/>
<path d="M175.456 97.6982C175.456 97.6982 166.173 76.3337 162.379 71.342C158.552 66.3107 150.665 66.5857 150.665 66.5857L150.677 65.1045H145.469C145.469 65.1045 151.094 76.3712 140.438 81.2003C136.415 94.2774 123.94 90.8566 120.923 88.242C119.715 90.4545 113.679 100.313 116.898 107.757C119.715 113.59 129.775 112.384 129.775 112.384L131.788 108.159H157.344H149.196L155.736 93.8837L157.956 99.3066C157.956 99.3066 160.779 106.542 166.808 112.184C171.115 116.213 179.163 119.665 183.731 121.417L192.654 110.3C184.19 104.052 175.456 97.6982 175.456 97.6982Z" fill="#FF7235"/>
<path d="M130.504 99.0273L126.36 100.917" stroke="#30242A" stroke-width="2" stroke-linecap="round" stroke-linejoin="round"/>
<path d="M131.994 108.965L129.292 90.7666" stroke="#30242A" stroke-width="2" stroke-linecap="round" stroke-linejoin="round"/>
<path d="M149.196 108.15L157.344 108.158L157.948 99.3062L155.735 93.875L149.196 108.15Z" fill="#FFBE21"/>
<path d="M153.546 38.8149C151.519 37.6816 148.337 36.5545 144.744 37.6733C138.154 39.7254 136.89 45.4316 136.019 49.2108C135.415 51.8254 134.81 54.8358 134.81 54.8358C134.81 54.8358 123.544 55.6399 124.752 67.1087C118.762 68.4774 112.485 76.5379 117.3 84.2399C118.193 85.6335 119.297 86.8796 120.573 87.9337C120.705 88.042 120.824 88.142 120.929 88.2337C123.946 90.8483 136.421 94.2754 140.444 81.192C151.108 76.3629 145.475 65.0962 145.475 65.0962C146.526 61.9357 146.382 58.4995 145.071 55.4379C141.652 55.2295 139.148 50.1795 142.858 47.7941C145.675 45.9816 148.9 50.6295 148.9 50.6295C148.9 50.6295 153.881 49.5233 157.881 47.392C157.881 47.392 157.881 47.3754 157.881 47.3691C157.881 47.3629 161.085 45.8233 161.967 42.9649C163.581 37.742 156.942 34.9254 153.546 38.8149Z" fill="#FFBE21"/>
<path d="M157.637 99.6172C156.496 96.9359 154.542 92.1755 153.321 88.2422" stroke="#30242A" stroke-width="2" stroke-linecap="round" stroke-linejoin="round"/>
<path d="M196.69 129.521L195.973 127.875" stroke="#30242A" stroke-width="2" stroke-linecap="round" stroke-linejoin="round"/>
<path d="M204.831 134.552C203.523 132.846 200.806 129.023 198.581 126.064" stroke="#30242A" stroke-width="2" stroke-linecap="round" stroke-linejoin="round"/>
<path d="M207.123 132.469C205.523 130.117 203.071 126.428 201.406 124.055" stroke="#30242A" stroke-width="2" stroke-linecap="round" stroke-linejoin="round"/>
<path d="M205.333 123.529C204.581 122.375 203.738 121.119 202.833 119.846" stroke="#30242A" stroke-width="2" stroke-linecap="round" stroke-linejoin="round"/>
<path d="M154.096 38.6631C154.558 38.9902 155.075 39.3714 155.533 39.7547" stroke="#CA7358" stroke-width="2" stroke-linecap="round" stroke-linejoin="round"/>
<path d="M134.302 55.0693L133.804 57.4589" stroke="#CA7358" stroke-width="2" stroke-linecap="round" stroke-linejoin="round"/>
<path d="M124.342 67.4854C124.666 69.1345 125.282 70.7127 126.161 72.1458" stroke="#CA7358" stroke-width="2" stroke-linecap="round" stroke-linejoin="round"/>
<path d="M150.585 63.3025C149.786 63.0229 149.014 62.6685 148.281 62.2441" stroke="#30242A" stroke-width="2" stroke-linecap="round" stroke-linejoin="round"/>
<path d="M165.392 149.371C165.081 149.985 164.607 150.502 164.021 150.862C163.435 151.223 162.76 151.414 162.072 151.414C161.384 151.414 160.709 151.223 160.123 150.862C159.537 150.502 159.062 149.985 158.752 149.371C158.442 149.985 157.967 150.502 157.381 150.862C156.795 151.223 156.12 151.414 155.432 151.414C154.744 151.414 154.069 151.223 153.483 150.862C152.897 150.502 152.422 149.985 152.112 149.371C151.803 149.986 151.328 150.502 150.742 150.863C150.156 151.224 149.482 151.415 148.794 151.415C148.105 151.415 147.431 151.224 146.845 150.863C146.259 150.502 145.785 149.986 145.475 149.371C145.334 149.646 145.16 149.903 144.956 150.136C150.504 165.096 147.083 172.34 145.475 186.825C145.149 189.899 145.056 192.992 145.196 196.079H164.444C165.144 189.979 166.583 181.74 167.406 171.523C165.538 171.398 163.791 170.555 162.532 169.17C161.272 167.785 160.597 165.967 160.649 164.095C160.701 162.224 161.475 160.446 162.809 159.133C164.143 157.82 165.934 157.074 167.806 157.052C167.875 157.052 167.944 157.052 168.014 157.052C168.014 155.102 167.954 153.188 167.856 151.311C167.329 151.186 166.835 150.948 166.41 150.613C165.984 150.278 165.637 149.854 165.392 149.371Z" fill="#F5EBDD"/>
<path d="M138.835 149.371C138.525 149.985 138.051 150.502 137.465 150.862C136.878 151.223 136.204 151.414 135.516 151.414C134.827 151.414 134.153 151.223 133.567 150.862C132.98 150.502 132.506 149.985 132.196 149.371C131.886 149.985 131.411 150.502 130.825 150.862C130.239 151.223 129.564 151.414 128.876 151.414C128.188 151.414 127.513 151.223 126.927 150.862C126.341 150.502 125.866 149.985 125.556 149.371C125.305 149.87 124.944 150.306 124.501 150.646C124.058 150.986 123.543 151.222 122.997 151.336C122.45 151.45 121.884 151.44 121.342 151.305C120.799 151.17 120.295 150.915 119.865 150.559C117.99 156.084 115.829 157.865 106.242 172.54C103.726 176.42 101.559 180.515 99.7666 184.777L117.058 193.567C120.665 187.559 126.15 180.254 130.725 172.942C129.121 172.004 127.938 170.486 127.422 168.701C126.906 166.916 127.096 165.001 127.952 163.352C128.808 161.703 130.266 160.446 132.023 159.842C133.78 159.237 135.702 159.331 137.392 160.104C138.942 156.419 140.056 153.192 140.754 151.146C139.922 150.805 139.24 150.174 138.835 149.371Z" fill="#F5EBDD"/>
<path d="M142.608 151.386C142.727 151.371 142.846 151.352 142.963 151.327H142.988C143.1 151.301 143.211 151.27 143.319 151.234L143.373 151.219C143.488 151.177 143.602 151.134 143.713 151.082H143.727C143.838 151.029 143.936 150.973 144.05 150.911L144.069 150.898C144.177 150.834 144.282 150.765 144.383 150.69C144.59 150.534 144.779 150.356 144.948 150.161C145.152 149.928 145.326 149.671 145.467 149.396C145.777 150.011 146.251 150.527 146.837 150.888C147.423 151.249 148.097 151.44 148.786 151.44C149.474 151.44 150.148 151.249 150.734 150.888C151.32 150.527 151.795 150.011 152.104 149.396C152.414 150.01 152.889 150.527 153.475 150.887C154.061 151.248 154.736 151.439 155.424 151.439C156.112 151.439 156.787 151.248 157.373 150.887C157.959 150.527 158.434 150.01 158.744 149.396C159.054 150.01 159.529 150.527 160.115 150.887C160.701 151.248 161.375 151.439 162.064 151.439C162.752 151.439 163.427 151.248 164.013 150.887C164.599 150.527 165.073 150.01 165.383 149.396C165.628 149.879 165.975 150.303 166.4 150.638C166.824 150.974 167.317 151.212 167.844 151.338C167.538 145.687 166.834 140.065 165.738 134.513C164.234 134.927 162.662 135.033 161.116 134.825C159.57 134.617 158.083 134.099 156.742 133.302C150.969 130.004 149.523 113.867 149.19 108.152H131.794C121.733 117.207 121.936 144.167 120.023 150.077C119.971 150.24 119.917 150.396 119.865 150.552C120.295 150.909 120.8 151.164 121.342 151.299C121.884 151.434 122.45 151.444 122.997 151.33C123.544 151.216 124.058 150.98 124.501 150.64C124.944 150.3 125.305 149.864 125.556 149.365C125.867 149.979 126.341 150.496 126.927 150.856C127.513 151.217 128.188 151.408 128.876 151.408C129.564 151.408 130.239 151.217 130.825 150.856C131.411 150.496 131.886 149.979 132.196 149.365C132.506 149.979 132.981 150.496 133.567 150.856C134.153 151.217 134.828 151.408 135.516 151.408C136.204 151.408 136.879 151.217 137.465 150.856C138.051 150.496 138.525 149.979 138.836 149.365C139.24 150.164 139.918 150.79 140.746 151.132C140.962 151.222 141.187 151.292 141.417 151.34H141.45C141.546 151.359 141.642 151.373 141.74 151.384H141.819C141.929 151.384 142.042 151.4 142.154 151.4C142.267 151.4 142.402 151.4 142.525 151.382L142.608 151.386Z" fill="#30242A"/>
<path d="M148.292 215.594H164.79C164.79 215.594 165.381 211.694 167.471 209.148C165.84 207.967 164.515 206.5 164.185 204.125C163.904 202.098 164.065 199.406 164.444 196.077H145.196C145.501 202.677 146.54 209.223 148.292 215.594Z" fill="#FF7235"/>
<path d="M94.1709 203.719L93.6521 203.461C93.6002 203.435 93.5466 203.413 93.4917 203.394L108.933 211.286C108.933 211.286 111.225 208.144 114.177 206.861C113.786 206.051 113.486 205.2 113.283 204.324C112.717 201.824 114.363 198.049 117.056 193.561L99.7646 184.771C95.3417 195.219 94.1709 203.719 94.1709 203.719Z" fill="#FF7235"/>
<path d="M148.292 215.594H147.788C147.612 215.587 147.436 215.616 147.271 215.678C147.107 215.741 146.956 215.836 146.829 215.958C146.702 216.08 146.601 216.227 146.532 216.389C146.463 216.551 146.427 216.725 146.427 216.902C146.427 217.078 146.463 217.252 146.532 217.414C146.601 217.576 146.702 217.723 146.829 217.845C146.956 217.967 147.107 218.062 147.271 218.125C147.436 218.187 147.612 218.216 147.788 218.209H175.457C175.457 212.792 170.819 211.571 167.475 209.148C165.392 211.694 164.794 215.594 164.794 215.594H148.292Z" fill="#30242A"/>
<path d="M108.933 211.292L93.4917 203.4C93.1884 203.295 92.8563 203.309 92.5628 203.439C92.2694 203.57 92.0368 203.807 91.9122 204.103C91.7877 204.399 91.7807 204.731 91.8926 205.033C92.0045 205.334 92.2269 205.581 92.5146 205.723L117.098 218.211C119.458 213.321 116.083 210.89 114.169 206.867C111.225 208.15 108.933 211.292 108.933 211.292Z" fill="#30242A"/>
<path d="M160.564 164.292C160.564 166.144 161.273 167.925 162.546 169.27C163.818 170.615 165.557 171.421 167.406 171.523C167.735 167.417 167.967 162.982 168.008 158.257C168.008 157.855 168.008 157.455 168.008 157.055C167.942 157.055 167.873 157.055 167.8 157.055C165.881 157.057 164.042 157.82 162.685 159.177C161.329 160.534 160.566 162.374 160.564 164.292Z" fill="#FFBE21"/>
<path d="M127.165 166.706C127.164 167.965 127.492 169.202 128.116 170.295C128.74 171.389 129.639 172.3 130.723 172.94C131.225 172.136 131.719 171.331 132.196 170.529C134.161 167.176 135.894 163.692 137.383 160.102C136.281 159.608 135.072 159.397 133.867 159.489C132.662 159.581 131.499 159.973 130.484 160.63C129.469 161.286 128.635 162.186 128.057 163.247C127.479 164.309 127.176 165.498 127.175 166.706H127.165Z" fill="#FFBE21"/>
<path d="M156.742 133.302C158.086 134.095 159.576 134.608 161.123 134.811C162.671 135.014 164.243 134.902 165.746 134.482C162.621 118.55 157.344 108.152 157.344 108.152H149.189C149.523 113.873 150.969 130.011 156.742 133.302Z" fill="#FFBE21"/>
<path d="M156.746 56.4271C156.396 56.6042 155.139 56.6562 154.721 55.6562" stroke="#30242A" stroke-width="2" stroke-linecap="round" stroke-linejoin="round"/>
<path d="M155.936 52.0277C156.269 52.0277 156.54 51.7572 156.54 51.4235C156.54 51.0898 156.269 50.8193 155.936 50.8193C155.602 50.8193 155.332 51.0898 155.332 51.4235C155.332 51.7572 155.602 52.0277 155.936 52.0277Z" fill="#30242A"/>
<path d="M144.469 51.2207L146.479 52.629" stroke="#30242A" stroke-width="2" stroke-linecap="round" stroke-linejoin="round"/>
<path d="M131.592 108.158H157.344" stroke="#30242A" stroke-width="2" stroke-miterlimit="10" stroke-linecap="round"/>
<path d="M138.983 108.763C138.983 108.763 143.696 115.5 141.483 116.227C139.438 116.898 139.035 111.867 138.983 108.763Z" stroke="#A15842" stroke-width="2" stroke-linecap="round" stroke-linejoin="round"/>
<path d="M138.837 108.763C138.837 108.763 136.421 114.804 134.61 113.792C133.431 113.138 136.421 110.177 138.837 108.763Z" stroke="#A15842" stroke-width="2" stroke-linecap="round" stroke-linejoin="round"/>
<path d="M101.917 107.152H69.5251C68.8026 107.152 68.2168 107.738 68.2168 108.46C68.2168 109.182 68.8026 109.767 69.5251 109.767H101.917C102.639 109.767 103.225 109.182 103.225 108.46C103.225 107.738 102.639 107.152 101.917 107.152Z" fill="#30242A"/>
<path d="M85.7208 107.959C76.2645 107.959 72.0396 101.117 72.0396 101.117V118.009C72.0423 119.555 72.6578 121.037 73.7511 122.131C74.8445 123.224 76.3266 123.839 77.8729 123.842H93.5458C95.0939 123.842 96.5787 123.228 97.6743 122.134C98.7699 121.041 99.3868 119.557 99.3895 118.009V101.117C99.3895 101.117 95.175 107.959 85.7208 107.959Z" fill="#FFB7D5"/>
<path d="M85.7208 107.959C95.175 107.959 99.4 101.117 99.4 101.117H72.0396C72.0396 101.117 76.2645 107.959 85.7208 107.959Z" fill="#A15842"/>
<path d="M86.0209 101.117C87.4097 101.117 88.5355 99.9912 88.5355 98.6025C88.5355 97.2137 87.4097 96.0879 86.0209 96.0879C84.6322 96.0879 83.5063 97.2137 83.5063 98.6025C83.5063 99.9912 84.6322 101.117 86.0209 101.117Z" fill="#30242A"/>
<path d="M86.2229 85.4253C88.279 85.4253 89.9458 83.7585 89.9458 81.7024C89.9458 79.6463 88.279 77.9795 86.2229 77.9795C84.1668 77.9795 82.5 79.6463 82.5 81.7024C82.5 83.7585 84.1668 85.4253 86.2229 85.4253Z" fill="#F5EBDD"/>
<path d="M86.2875 74.2606C89.3159 74.2606 91.7709 71.8056 91.7709 68.7773C91.7709 65.7489 89.3159 63.2939 86.2875 63.2939C83.2592 63.2939 80.8042 65.7489 80.8042 68.7773C80.8042 71.8056 83.2592 74.2606 86.2875 74.2606Z" fill="#F5EBDD"/>
<path d="M269.206 168.928C269.206 168.928 267.292 173.236 262.267 173.236C257.242 173.236 255.329 168.928 255.329 168.928C255.329 168.928 241.212 201.232 255.089 218.219H269.448C283.325 201.219 269.206 168.928 269.206 168.928Z" fill="#3EC1F3"/>
<path d="M262.269 173.227C267.294 173.227 269.208 168.919 269.208 168.919H255.329C255.329 168.919 257.244 173.227 262.269 173.227Z" fill="#30242A"/>
<path d="M275.248 197.678C267.437 197.817 258.202 200.636 251.081 210.594" stroke="#F5EBDD" stroke-width="2" stroke-linecap="round" stroke-linejoin="round"/>
<path d="M249.831 189.76C255.073 188.481 265.002 187.26 274.623 189.552" stroke="#F5EBDD" stroke-width="2" stroke-linecap="round" stroke-linejoin="round"/>
<path d="M274.575 205.971C271.081 206.01 264.623 209.969 265.336 217.948" stroke="#F5EBDD" stroke-width="2" stroke-linecap="round" stroke-linejoin="round"/>
<path d="M266.594 137.34L262.752 170.934" stroke="#30242A" stroke-width="2" stroke-miterlimit="10"/>
<path d="M268.452 150.834L263.623 170.659" stroke="#30242A" stroke-width="2" stroke-miterlimit="10"/>
<path d="M258.376 159.965C258.815 158.939 255.702 156.625 251.423 154.796C247.145 152.967 243.321 152.315 242.883 153.34C242.445 154.365 245.558 156.679 249.836 158.508C254.114 160.338 257.938 160.99 258.376 159.965Z" fill="#30242A"/>
<path d="M274.393 161.74C278.908 160.038 282.261 157.845 281.883 156.843C281.505 155.841 277.539 156.408 273.025 158.11C268.511 159.813 265.157 162.005 265.535 163.007C265.913 164.01 269.879 163.442 274.393 161.74Z" fill="#30242A"/>
<path d="M264.705 154.669C265.192 153.998 263.808 152.164 261.614 150.573C259.42 148.983 257.247 148.238 256.76 148.91C256.273 149.581 257.657 151.415 259.851 153.006C262.045 154.596 264.218 155.341 264.705 154.669Z" fill="#30242A"/>
<path d="M252.527 142.832L261.965 170.932" stroke="#30242A" stroke-width="2" stroke-miterlimit="10"/>
<path d="M264.675 144.705C265.047 143.895 265.609 143.187 266.313 142.64C267.017 142.093 267.842 141.723 268.719 141.562C269.596 141.401 270.498 141.453 271.351 141.715C272.203 141.976 272.98 142.438 273.616 143.063C274.252 143.687 274.728 144.456 275.005 145.303C275.281 146.151 275.35 147.052 275.205 147.932C275.059 148.812 274.705 149.643 274.171 150.357C273.636 151.07 272.938 151.645 272.135 152.032C271.654 150.258 270.71 148.645 269.399 147.357C268.087 146.069 266.457 145.154 264.675 144.705Z" fill="#FF7235"/>
<path d="M267.581 147.846C268.331 145.441 269.93 143.39 272.079 142.075" stroke="#F5EBDD" stroke-width="2" stroke-miterlimit="10" stroke-linecap="round"/>
<path d="M268.508 148.585C270.049 146.578 272.273 145.208 274.758 144.735" stroke="#F5EBDD" stroke-width="2" stroke-miterlimit="10" stroke-linecap="round"/>
<path d="M272.135 152.031C271.105 152.528 269.946 152.694 268.818 152.508C267.689 152.322 266.646 151.792 265.829 150.99C265.013 150.189 264.465 149.155 264.258 148.03C264.051 146.905 264.197 145.743 264.675 144.704C266.457 145.153 268.088 146.068 269.399 147.356C270.71 148.644 271.655 150.257 272.135 152.031Z" fill="#FF7235"/>
<path d="M256.146 136.659C255.687 135.894 255.051 135.25 254.291 134.783C253.531 134.316 252.669 134.039 251.779 133.975C250.89 133.911 249.997 134.063 249.178 134.416C248.359 134.77 247.638 135.316 247.074 136.007C246.511 136.699 246.122 137.516 245.941 138.39C245.76 139.263 245.792 140.167 246.034 141.026C246.276 141.885 246.722 142.672 247.333 143.322C247.944 143.972 248.702 144.466 249.544 144.761C249.827 142.946 250.588 141.239 251.748 139.816C252.908 138.392 254.426 137.302 256.146 136.659Z" fill="#FF7235"/>
<path d="M253.604 140.105C252.594 137.796 250.778 135.935 248.496 134.867" stroke="#F5EBDD" stroke-width="2" stroke-miterlimit="10" stroke-linecap="round"/>
<path d="M252.767 140.939C251.011 139.117 248.645 138.005 246.121 137.814" stroke="#F5EBDD" stroke-width="2" stroke-miterlimit="10" stroke-linecap="round"/>
<path d="M249.544 144.761C250.623 145.14 251.793 145.178 252.895 144.867C253.996 144.557 254.975 143.914 255.697 143.027C256.419 142.14 256.85 141.051 256.93 139.91C257.011 138.768 256.737 137.63 256.146 136.65C254.425 137.295 252.906 138.385 251.746 139.811C250.586 141.236 249.826 142.945 249.544 144.761Z" fill="#FF7235"/>
<path d="M271.915 134.192C271.935 133.301 271.74 132.418 271.347 131.618C270.954 130.818 270.375 130.124 269.657 129.595C268.94 129.066 268.106 128.717 267.226 128.579C266.345 128.44 265.444 128.515 264.599 128.797C263.754 129.08 262.989 129.561 262.369 130.202C261.749 130.842 261.292 131.622 261.036 132.476C260.781 133.33 260.735 134.233 260.902 135.108C261.069 135.984 261.444 136.806 261.996 137.506C263.206 136.123 264.763 135.087 266.506 134.504C268.249 133.922 270.116 133.814 271.915 134.192Z" fill="#FF7235"/>
<path d="M267.927 135.742C268.308 133.251 267.771 130.706 266.415 128.582" stroke="#F5EBDD" stroke-width="2" stroke-miterlimit="10" stroke-linecap="round"/>
<path d="M266.773 135.998C266.266 133.517 264.865 131.31 262.835 129.796" stroke="#F5EBDD" stroke-width="2" stroke-miterlimit="10" stroke-linecap="round"/>
<path d="M262 137.507C262.709 138.404 263.677 139.06 264.772 139.387C265.868 139.713 267.037 139.694 268.122 139.332C269.206 138.969 270.152 138.281 270.831 137.361C271.509 136.442 271.888 135.335 271.915 134.192C270.117 133.815 268.251 133.923 266.508 134.506C264.766 135.088 263.21 136.124 262 137.507Z" fill="#FF7235"/>
<path d="M256.354 136.867C254.634 137.511 253.116 138.6 251.956 140.024C250.796 141.448 250.035 143.155 249.752 144.969" stroke="#F5EBDD" stroke-width="2" stroke-miterlimit="10" stroke-linecap="round"/>
<path d="M272.013 134.192C270.226 133.767 268.357 133.825 266.6 134.36C264.843 134.896 263.259 135.889 262.013 137.238" stroke="#F5EBDD" stroke-width="2" stroke-miterlimit="10" stroke-linecap="round"/>
<path d="M272.688 151.604C272.125 149.854 271.107 148.286 269.738 147.06C268.369 145.834 266.699 144.994 264.898 144.627" stroke="#F5EBDD" stroke-width="2" stroke-miterlimit="10" stroke-linecap="round"/>
<path d="M205.256 88.7173L205.961 89.3829C206.391 89.7882 207.088 89.7872 207.517 89.3818C207.653 89.2532 207.751 89.0928 207.802 88.9168L209.202 83.9787C209.372 83.3748 208.992 82.7545 208.352 82.594C208.15 82.5436 207.937 82.5436 207.735 82.594L202.504 83.917C201.918 84.0651 201.569 84.634 201.726 85.1875C201.776 85.3645 201.874 85.525 202.011 85.6546L202.716 86.3202L200.913 88.0218C200.054 88.8325 198.662 88.8335 197.802 88.0228L197.801 88.0218L195.646 85.9879C194.786 85.1772 194.785 83.8625 195.643 83.0508C195.916 82.7936 196.255 82.6084 196.626 82.5127L210.23 79.0715C211.403 78.7742 212.61 79.4315 212.925 80.5395C213.025 80.8924 213.025 81.2628 212.925 81.6156L209.288 94.4599C208.973 95.5679 207.767 96.2252 206.593 95.9289C206.22 95.8343 205.879 95.6491 205.607 95.3909L203.452 93.357C202.593 92.5463 202.593 91.2305 203.452 90.4199L205.256 88.7173Z" fill="url(#paint0_linear_1417_6105)"/>
<defs>
<linearGradient id="paint0_linear_1417_6105" x1="198.082" y1="76.7282" x2="214.224" y2="95.3068" gradientUnits="userSpaceOnUse">
<stop offset="0.2" stop-color="#28C993"/>
<stop offset="0.8" stop-color="#6853E0"/>
</linearGradient>
</defs>
</svg>
