<svg width="16" height="16" viewBox="0 0 16 16" fill="none" xmlns="http://www.w3.org/2000/svg">
<g id="Icons" clip-path="url(#clip0_1417_5964)">
<g id="Group">
<path id="Vector" d="M8.00065 1.33337C4.32065 1.33337 1.33398 4.32004 1.33398 8.00004C1.33398 11.68 4.32065 14.6667 8.00065 14.6667C11.6807 14.6667 14.6673 11.68 14.6673 8.00004C14.6673 4.32004 11.6807 1.33337 8.00065 1.33337ZM8.56065 11.8467V12.1067C8.56065 12.4134 8.31398 12.66 8.00732 12.66C7.70065 12.66 7.45398 12.4134 7.45398 12.1067V11.8067C6.42732 11.5734 5.90065 10.9267 5.63398 10.4C5.48065 10.1067 5.62732 9.74004 5.93398 9.61337L5.98065 9.59337C6.25398 9.48004 6.56065 9.59337 6.70065 9.85337C6.91398 10.26 7.34065 10.7734 8.12065 10.7734C8.74065 10.7734 9.44065 10.46 9.44065 9.70671C9.44065 9.06671 8.97398 8.72671 7.92065 8.35337C6.97398 8.01337 5.68732 7.57337 5.68732 6.14671C5.68732 4.94004 6.70065 4.31337 7.46065 4.16671V3.88671C7.44732 3.58004 7.69398 3.33337 8.00065 3.33337C8.30732 3.33337 8.55398 3.58004 8.55398 3.88671V4.14671C9.28732 4.26671 9.74065 4.65337 10.014 5.00004C10.2473 5.30004 10.134 5.73337 9.78732 5.88671C9.54732 5.98671 9.26732 5.91337 9.10732 5.70671C8.92065 5.45337 8.58732 5.19337 8.03398 5.19337C7.56732 5.19337 6.82732 5.44004 6.82732 6.12004C6.82732 6.85337 7.68065 7.09337 8.58732 7.39337C9.78732 7.81337 10.6073 8.44671 10.594 9.68671C10.6007 11.62 8.59398 11.84 8.56065 11.8467Z" fill="#4AD582"/>
</g>
</g>
<defs>
<clipPath id="clip0_1417_5964">
<rect width="16" height="16" fill="white"/>
</clipPath>
</defs>
</svg>
