<svg width="32" height="32" viewBox="0 0 32 32" fill="currentColor" xmlns="http://www.w3.org/2000/svg">
<g clip-path="url(#clip0_192_32)">
<path d="M25.0756 24H6.92437C6.41445 24 6 24.4484 6 25C6 25.5516 6.41445 26 6.92437 26H25.0756C25.5855 26 26 25.5516 26 25C26 24.4484 25.5855 24 25.0756 24Z" fill="currentColor"/>
<path d="M8.2556 18C8.11451 18 8 18.1285 8 18.2869V24H12V18.2869C12 18.1285 11.8855 18 11.7444 18H8.2556Z" fill="currentColor"/>
<path d="M14 16.2645V24H18V16.2645C18 16.1185 17.8855 16 17.7444 16H14.2556C14.1145 16 14 16.1185 14 16.2645Z" fill="currentColor"/>
<path d="M24 13.2689C24 13.1205 23.8855 13 23.7444 13H20.2556C20.1145 13 20 13.1205 20 13.2689V24H24V13.2689Z" fill="currentColor"/>
<path d="M10.5 15C12.9814 15 15 12.9815 15 10.5002C15 8.01881 12.9814 6 10.5 6C8.01856 6 6 8.01849 6 10.4998C6 12.9812 8.01856 15 10.5 15ZM10.4553 10.6983C9.67814 10.6983 9.04564 10.0658 9.04564 9.28862C9.04564 8.59432 9.55125 8.01913 10.2126 7.90325V7.54235C10.2126 7.40834 10.3213 7.29959 10.4553 7.29959C10.5893 7.29959 10.6981 7.40834 10.6981 7.54235V7.90325C11.3597 8.01913 11.8653 8.59432 11.8653 9.28862C11.8653 9.42262 11.7566 9.53138 11.6226 9.53138C11.4886 9.53138 11.3798 9.42262 11.3798 9.28862C11.3798 8.77914 10.9651 8.3645 10.4553 8.3645C9.94551 8.3645 9.53118 8.77914 9.53118 9.28862C9.53118 9.79809 9.94583 10.2127 10.4553 10.2127C11.2328 10.2127 11.8653 10.8452 11.8653 11.6224C11.8653 12.3167 11.3597 12.8922 10.6981 13.0081V13.3686C10.6981 13.5026 10.5893 13.6114 10.4553 13.6114C10.3213 13.6114 10.2126 13.5026 10.2126 13.3686V13.0081C9.55093 12.8922 9.04564 12.317 9.04564 11.6224C9.04564 11.4884 9.1544 11.3796 9.28841 11.3796C9.42242 11.3796 9.53118 11.4884 9.53118 11.6224C9.53118 12.1322 9.94583 12.5468 10.4553 12.5468C10.9648 12.5468 11.3798 12.1322 11.3798 11.6224C11.3798 11.1126 10.9651 10.6983 10.4553 10.6983Z" fill="currentColor"/>
</g>
<defs>
<clipPath id="clip0_192_32">
<rect width="32" height="32" fill="currentColor"/>
</clipPath>
</defs>
</svg>
