<svg width="33" height="34" viewBox="0 0 33 34" fill="none" xmlns="http://www.w3.org/2000/svg">
<rect y="0.5" width="24.2857" height="24.2857" rx="6" fill="#EDE1FF"/>
<path d="M14.3335 12.209C13.8552 12.209 13.4585 11.8123 13.4585 11.334V7.83398C13.4585 7.35565 13.8552 6.95898 14.3335 6.95898C14.8118 6.95898 15.2085 7.35565 15.2085 7.83398V11.334C15.2085 11.8123 14.8118 12.209 14.3335 12.209Z" fill="#8833FF"/>
<path d="M23.6665 12.209C23.1882 12.209 22.7915 11.8123 22.7915 11.334V7.83398C22.7915 7.35565 23.1882 6.95898 23.6665 6.95898C24.1448 6.95898 24.5415 7.35565 24.5415 7.83398V11.334C24.5415 11.8123 24.1448 12.209 23.6665 12.209Z" fill="#8833FF"/>
<path d="M14.9167 22.4148C14.765 22.4148 14.6133 22.3798 14.4733 22.3214C14.3217 22.2631 14.205 22.1814 14.0883 22.0764C13.8783 21.8547 13.75 21.5631 13.75 21.2481C13.75 21.0964 13.785 20.9447 13.8433 20.8047C13.9017 20.6647 13.9833 20.5364 14.0883 20.4198C14.205 20.3148 14.3217 20.2331 14.4733 20.1747C14.8933 19.9997 15.4183 20.0931 15.745 20.4198C15.955 20.6414 16.0833 20.9448 16.0833 21.2481C16.0833 21.3181 16.0717 21.3998 16.06 21.4814C16.0483 21.5514 16.025 21.6214 15.99 21.6914C15.9667 21.7614 15.9317 21.8314 15.885 21.9014C15.85 21.9597 15.7917 22.0181 15.745 22.0764C15.5233 22.2864 15.22 22.4148 14.9167 22.4148Z" fill="#8833FF"/>
<path d="M19.0002 22.416C18.8485 22.416 18.6968 22.381 18.5568 22.3227C18.4052 22.2644 18.2885 22.1827 18.1718 22.0777C17.9618 21.856 17.8335 21.5644 17.8335 21.2494C17.8335 21.0977 17.8685 20.946 17.9268 20.806C17.9852 20.666 18.0668 20.5377 18.1718 20.421C18.2885 20.316 18.4052 20.2343 18.5568 20.176C18.9768 19.9893 19.5018 20.0944 19.8285 20.421C20.0385 20.6427 20.1668 20.946 20.1668 21.2494C20.1668 21.3194 20.1552 21.401 20.1435 21.4827C20.1318 21.5527 20.1085 21.6227 20.0735 21.6927C20.0502 21.7627 20.0152 21.8327 19.9685 21.9027C19.9335 21.961 19.8752 22.0194 19.8285 22.0777C19.6068 22.2877 19.3035 22.416 19.0002 22.416Z" fill="#8833FF"/>
<path d="M23.0832 22.416C22.9315 22.416 22.7798 22.381 22.6398 22.3227C22.4882 22.2644 22.3715 22.1827 22.2548 22.0777C22.2082 22.0194 22.1615 21.961 22.1148 21.9027C22.0682 21.8327 22.0332 21.7627 22.0098 21.6927C21.9748 21.6227 21.9515 21.5527 21.9398 21.4827C21.9282 21.401 21.9165 21.3194 21.9165 21.2494C21.9165 20.946 22.0448 20.6427 22.2548 20.421C22.3715 20.316 22.4882 20.2343 22.6398 20.176C23.0715 19.9893 23.5848 20.0944 23.9115 20.421C24.1215 20.6427 24.2498 20.946 24.2498 21.2494C24.2498 21.3194 24.2382 21.401 24.2265 21.4827C24.2148 21.5527 24.1915 21.6227 24.1565 21.6927C24.1332 21.7627 24.0982 21.8327 24.0515 21.9027C24.0165 21.961 23.9582 22.0194 23.9115 22.0777C23.6898 22.2877 23.3865 22.416 23.0832 22.416Z" fill="#8833FF"/>
<path d="M14.9167 26.4984C14.765 26.4984 14.6133 26.4634 14.4733 26.4051C14.3333 26.3468 14.205 26.2651 14.0883 26.1601C13.8783 25.9384 13.75 25.6351 13.75 25.3318C13.75 25.1801 13.785 25.0284 13.8433 24.8884C13.9017 24.7368 13.9833 24.6084 14.0883 24.5034C14.52 24.0718 15.3133 24.0718 15.745 24.5034C15.955 24.7251 16.0833 25.0284 16.0833 25.3318C16.0833 25.6351 15.955 25.9384 15.745 26.1601C15.5233 26.3701 15.22 26.4984 14.9167 26.4984Z" fill="#8833FF"/>
<path d="M19.0002 26.4984C18.6968 26.4984 18.3935 26.3701 18.1718 26.1601C17.9618 25.9384 17.8335 25.6351 17.8335 25.3318C17.8335 25.1801 17.8685 25.0284 17.9268 24.8884C17.9852 24.7368 18.0668 24.6084 18.1718 24.5034C18.6035 24.0718 19.3968 24.0718 19.8285 24.5034C19.9335 24.6084 20.0152 24.7368 20.0735 24.8884C20.1318 25.0284 20.1668 25.1801 20.1668 25.3318C20.1668 25.6351 20.0385 25.9384 19.8285 26.1601C19.6068 26.3701 19.3035 26.4984 19.0002 26.4984Z" fill="#8833FF"/>
<path d="M23.0832 26.5004C22.7798 26.5004 22.4765 26.372 22.2548 26.162C22.1498 26.057 22.0682 25.9287 22.0098 25.7771C21.9515 25.6371 21.9165 25.4854 21.9165 25.3337C21.9165 25.1821 21.9515 25.0304 22.0098 24.8904C22.0682 24.7387 22.1498 24.6104 22.2548 24.5054C22.5232 24.2371 22.9315 24.1087 23.3048 24.1904C23.3865 24.202 23.4565 24.2254 23.5265 24.2604C23.5965 24.2837 23.6665 24.3187 23.7365 24.3654C23.7948 24.4004 23.8532 24.4587 23.9115 24.5054C24.1215 24.7271 24.2498 25.0304 24.2498 25.3337C24.2498 25.6371 24.1215 25.9404 23.9115 26.162C23.6898 26.372 23.3865 26.5004 23.0832 26.5004Z" fill="#8833FF"/>
<path d="M28.9168 16.9805H9.0835C8.60516 16.9805 8.2085 16.5838 8.2085 16.1055C8.2085 15.6271 8.60516 15.2305 9.0835 15.2305H28.9168C29.3952 15.2305 29.7918 15.6271 29.7918 16.1055C29.7918 16.5838 29.3952 16.9805 28.9168 16.9805Z" fill="#8833FF"/>
<path d="M23.6667 32.0423H14.3333C10.075 32.0423 7.625 29.5923 7.625 25.334V15.4173C7.625 11.159 10.075 8.70898 14.3333 8.70898H23.6667C27.925 8.70898 30.375 11.159 30.375 15.4173V25.334C30.375 29.5923 27.925 32.0423 23.6667 32.0423ZM14.3333 10.459C10.9967 10.459 9.375 12.0807 9.375 15.4173V25.334C9.375 28.6707 10.9967 30.2923 14.3333 30.2923H23.6667C27.0033 30.2923 28.625 28.6707 28.625 25.334V15.4173C28.625 12.0807 27.0033 10.459 23.6667 10.459H14.3333Z" fill="#8833FF"/>
</svg>
