<svg width="64" height="64" viewBox="0 0 64 64" fill="none" xmlns="http://www.w3.org/2000/svg">
<path d="M21.3333 15.334C20.2399 15.334 19.3333 14.4273 19.3333 13.334V5.33398C19.3333 4.24065 20.2399 3.33398 21.3333 3.33398C22.4266 3.33398 23.3333 4.24065 23.3333 5.33398V13.334C23.3333 14.4273 22.4266 15.334 21.3333 15.334Z" fill="#8833FF"/>
<path d="M42.6667 15.334C41.5734 15.334 40.6667 14.4273 40.6667 13.334V5.33398C40.6667 4.24065 41.5734 3.33398 42.6667 3.33398C43.7601 3.33398 44.6667 4.24065 44.6667 5.33398V13.334C44.6667 14.4273 43.7601 15.334 42.6667 15.334Z" fill="#8833FF"/>
<path d="M22.6667 38.6672C21.9733 38.6672 21.28 38.3738 20.7733 37.8938C20.2933 37.3871 20 36.7205 20 36.0005C20 35.6538 20.08 35.3072 20.2133 34.9872C20.3467 34.6672 20.5333 34.3739 20.7733 34.1072C21.76 33.1205 23.5467 33.1205 24.56 34.1072C25.04 34.6139 25.3333 35.3072 25.3333 36.0005C25.3333 36.1605 25.3067 36.3472 25.28 36.5339C25.2533 36.6939 25.2 36.8538 25.12 37.0138C25.0667 37.1738 24.9867 37.3338 24.88 37.4938C24.7733 37.6272 24.6667 37.7605 24.56 37.8938C24.0533 38.3738 23.36 38.6672 22.6667 38.6672Z" fill="#8833FF"/>
<path d="M31.9999 38.6662C31.6533 38.6662 31.3066 38.5862 30.9866 38.4529C30.6399 38.3196 30.3733 38.1328 30.1066 37.8928C29.6266 37.3862 29.3333 36.7195 29.3333 35.9995C29.3333 35.6529 29.4133 35.3062 29.5466 34.9862C29.6799 34.6662 29.8666 34.3729 30.1066 34.1062C30.3733 33.8662 30.6399 33.6795 30.9866 33.5462C31.9733 33.1462 33.1466 33.3596 33.8932 34.1062C34.3733 34.6129 34.6666 35.3062 34.6666 35.9995C34.6666 36.1595 34.6399 36.3462 34.6133 36.5329C34.5866 36.6929 34.5332 36.8529 34.4532 37.0129C34.3999 37.1729 34.3199 37.3329 34.2133 37.4929C34.1333 37.6262 33.9999 37.7595 33.8932 37.8928C33.3866 38.3728 32.6933 38.6662 31.9999 38.6662Z" fill="#8833FF"/>
<path d="M22.6667 48.0001C22.32 48.0001 21.9733 47.9201 21.6533 47.7868C21.3067 47.6534 21.0133 47.4667 20.7733 47.2267C20.5333 46.9867 20.3467 46.6934 20.2133 46.3468C20.08 46.0268 20 45.6801 20 45.3334C20 44.9867 20.08 44.6401 20.2133 44.3201C20.3467 43.9734 20.5333 43.6801 20.7733 43.4401C21.0133 43.2001 21.3067 43.0134 21.6533 42.88C22.2933 42.6134 23.04 42.5867 23.68 42.88C24.0267 43.0134 24.32 43.2001 24.56 43.4401C24.8 43.6801 24.9867 43.9734 25.12 44.3201C25.2533 44.6401 25.3333 44.9867 25.3333 45.3334C25.3333 45.6801 25.2533 46.0268 25.12 46.3468C24.9867 46.6934 24.8 46.9867 24.56 47.2267C24.32 47.4667 24.0267 47.6534 23.68 47.7868C23.36 47.9201 23.0133 48.0001 22.6667 48.0001Z" fill="#8833FF"/>
<path d="M54.6666 26.2402H9.33325C8.23992 26.2402 7.33325 25.3336 7.33325 24.2402C7.33325 23.1469 8.23992 22.2402 9.33325 22.2402H54.6666C55.7599 22.2402 56.6666 23.1469 56.6666 24.2402C56.6666 25.3336 55.7599 26.2402 54.6666 26.2402Z" fill="#8833FF"/>
<path d="M47.9999 63.3333C44.8799 63.3333 41.9199 62.2133 39.6533 60.16C38.6933 59.36 37.8399 58.3467 37.1466 57.1733C35.9733 55.2533 35.3333 52.9867 35.3333 50.6667C35.3333 43.68 41.0133 38 47.9999 38C51.6266 38 55.0932 39.5733 57.4932 42.2933C59.5466 44.64 60.6666 47.6 60.6666 50.6667C60.6666 52.9867 60.0266 55.2534 58.8266 57.2C56.5866 60.9867 52.4266 63.3333 47.9999 63.3333ZM47.9999 42C43.2266 42 39.3333 45.8933 39.3333 50.6667C39.3333 52.24 39.7599 53.7867 40.5866 55.12C41.0399 55.92 41.6266 56.5866 42.2666 57.1466C43.8666 58.5866 45.8666 59.3333 47.9999 59.3333C51.0666 59.3333 53.8399 57.76 55.4133 55.1466C56.2399 53.7866 56.6666 52.2667 56.6666 50.6667C56.6666 48.5867 55.8933 46.56 54.5066 44.9333C52.8533 43.0667 50.4799 42 47.9999 42Z" fill="#8833FF"/>
<path d="M46.4798 55.3068C45.9731 55.3068 45.4664 55.1201 45.0664 54.7201L42.4264 52.0801C41.6531 51.3068 41.6531 50.0268 42.4264 49.2535C43.1998 48.4801 44.4798 48.4801 45.2531 49.2535L46.5331 50.5335L50.7998 46.5868C51.5998 45.8401 52.8798 45.8935 53.6264 46.6935C54.3731 47.4935 54.3198 48.7735 53.5198 49.5202L47.8398 54.7735C47.4398 55.1202 46.9598 55.3068 46.4798 55.3068Z" fill="#8833FF"/>
<path d="M40.9867 60.6673H21.3333C11.6 60.6673 6 55.0673 6 45.334V22.6673C6 12.934 11.6 7.33398 21.3333 7.33398H42.6667C52.4 7.33398 58 12.934 58 22.6673V43.6273C58 44.4539 57.4933 45.2006 56.6933 45.494C55.92 45.7873 55.04 45.574 54.48 44.934C52.8267 43.0673 50.4533 42.0007 47.9733 42.0007C43.2 42.0007 39.3067 45.894 39.3067 50.6673C39.3067 52.2407 39.7333 53.7874 40.56 55.1207C41.0133 55.9207 41.6 56.5873 42.24 57.1473C42.88 57.6806 43.12 58.5607 42.8267 59.3607C42.5867 60.134 41.84 60.6673 40.9867 60.6673ZM21.3333 11.334C13.7067 11.334 10 15.0407 10 22.6673V45.334C10 52.9607 13.7067 56.6673 21.3333 56.6673H36.8533C35.8667 54.854 35.3333 52.8007 35.3333 50.6673C35.3333 43.6807 41.0133 38.0007 48 38.0007C50.1067 38.0007 52.1867 38.534 54 39.5207V22.6673C54 15.0407 50.2933 11.334 42.6667 11.334H21.3333Z" fill="#8833FF"/>
</svg>
