<svg width="32" height="32" viewBox="0 0 32 32" fill="currentColor" xmlns="http://www.w3.org/2000/svg">
<g clip-path="url(#clip0_324_2232)">
<path d="M24.7814 14.4861L23.6982 14.1196C23.2643 13.9718 22.9139 13.6439 22.7339 13.2036C22.5571 12.7761 22.57 12.2971 22.7757 11.8857L23.2804 10.8604C23.3414 10.7382 23.3189 10.5903 23.2193 10.4907L21.5093 8.78071C21.4096 8.68428 21.2618 8.65856 21.1396 8.71963L20.1143 9.22428C19.7029 9.43 19.2239 9.44285 18.7804 9.25963C18.3561 9.08607 18.0282 8.73571 17.8804 8.30178L17.5139 7.21857C17.4721 7.08677 17.3468 7 17.2118 7H14.7882C14.6532 7 14.5279 7.08677 14.4861 7.21857L14.1197 8.30178C13.9718 8.73571 13.6439 9.08607 13.2036 9.26607C12.7761 9.44285 12.2972 9.43 11.8857 9.22428L10.8604 8.71964C10.7382 8.65857 10.5904 8.68428 10.4907 8.78071L8.78072 10.4907C8.68108 10.5904 8.65858 10.7382 8.71965 10.8604L9.2243 11.8857C9.43 12.2971 9.44287 12.7761 9.25965 13.2196C9.08607 13.6439 8.73572 13.9718 8.30178 14.1196L7.21857 14.4861C7.08679 14.5279 7 14.6532 7 14.7882V17.2118C7 17.3468 7.08679 17.4721 7.21857 17.5139L8.30178 17.8803C8.73572 18.0282 9.08607 18.3561 9.26607 18.7964C9.44287 19.2239 9.43 19.7028 9.2243 20.1143L8.71966 21.1396C8.65859 21.2618 8.68108 21.4096 8.78073 21.5093L10.4907 23.2193C10.5904 23.3157 10.7382 23.3414 10.8604 23.2803L11.8857 22.7757C12.2972 22.57 12.7793 22.5571 13.2197 22.7403C13.6439 22.9139 13.9718 23.2643 14.1197 23.6982L14.4861 24.7814C14.5279 24.9132 14.6532 25 14.7882 25H17.2118C17.3468 25 17.4721 24.9132 17.5139 24.7814L17.8804 23.6982C18.0282 23.2643 18.3561 22.9139 18.7964 22.7339C19.2239 22.5571 19.7029 22.57 20.1143 22.7757L21.1396 23.2803C21.2618 23.3414 21.4097 23.3189 21.5093 23.2193L23.2193 21.5093C23.3189 21.4096 23.3414 21.2618 23.2804 21.1396L22.7757 20.1143C22.57 19.7028 22.5572 19.2239 22.7403 18.7803C22.9139 18.3561 23.2643 18.0282 23.6982 17.8803L24.7814 17.5139C24.9132 17.4721 25 17.3468 25 17.2118V14.7882C25 14.6532 24.9132 14.5279 24.7814 14.4861ZM16 18.8157C14.4475 18.8157 13.1843 17.5525 13.1843 16C13.1843 14.4475 14.4475 13.1843 16 13.1843C17.5525 13.1843 18.8157 14.4475 18.8157 16C18.8157 17.5525 17.5525 18.8157 16 18.8157Z" fill="currentColor"/>
</g>
<defs>
<clipPath id="clip0_324_2232">
<rect width="32" height="32" fill="currentColor"/>
</clipPath>
</defs>
</svg>
