<svg width="22" height="22" viewBox="0 0 22 22" fill="none" xmlns="http://www.w3.org/2000/svg">
<path d="M9.94573 3.10852H2.98794C2.46071 3.10852 1.95507 3.31796 1.58225 3.69077C1.20944 4.06359 1 4.56923 1 5.09646V19.012C1 19.5393 1.20944 20.0449 1.58225 20.4177C1.95507 20.7905 2.46071 21 2.98794 21H16.9035C17.4308 21 17.9364 20.7905 18.3092 20.4177C18.682 20.0449 18.8915 19.5393 18.8915 19.012V12.0543" stroke="#101828" stroke-width="1.5" stroke-linecap="round" stroke-linejoin="round"/>
<path d="M17.4005 1.61757C17.7959 1.22215 18.3322 1 18.8915 1C19.4507 1 19.987 1.22215 20.3824 1.61757C20.7778 2.013 21 2.54931 21 3.10853C21 3.66775 20.7778 4.20406 20.3824 4.59949L10.9397 14.0422L6.96381 15.0362L7.95778 11.0603L17.4005 1.61757Z" stroke="#101828" stroke-width="1.5" stroke-linecap="round" stroke-linejoin="round"/>
</svg>
