<svg width="420" height="256" viewBox="0 0 420 256" fill="none" xmlns="http://www.w3.org/2000/svg">
<g filter="url(#filter0_d_1091_8395)">
<rect x="4" y="4" width="412" height="247.338" fill="white" shape-rendering="crispEdges"/>
<rect x="4.48528" y="4.48528" width="411.029" height="246.367" stroke="#EDF2F6" stroke-width="0.970554" shape-rendering="crispEdges"/>
<path d="M4 15.0234C4 9.82692 4 7.22868 5.61434 5.61434C7.22868 4 9.82692 4 15.0234 4H404.977C410.173 4 412.771 4 414.386 5.61434C416 7.22868 416 9.82693 416 15.0234V240.314C416 245.511 416 248.109 414.386 249.723C412.771 251.338 410.173 251.338 404.977 251.338H15.0234C9.82693 251.338 7.22868 251.338 5.61434 249.723C4 248.109 4 245.511 4 240.314V15.0234Z" fill="white"/>
<path d="M46.5633 213.238V217.495C46.5633 217.969 46.4172 218.35 46.1251 218.636C45.833 218.917 45.4471 219.058 44.9676 219.058C44.4826 219.058 44.094 218.915 43.8019 218.628C43.5098 218.336 43.3637 217.939 43.3637 217.437H44.1161C44.1216 217.719 44.1932 217.947 44.331 218.124C44.4743 218.3 44.6865 218.388 44.9676 218.388C45.2487 218.388 45.4582 218.306 45.5959 218.14C45.7337 217.969 45.8026 217.754 45.8026 217.495V213.238H46.5633ZM52.0634 214.469V219H51.3111V218.33C51.1678 218.562 50.9666 218.744 50.7076 218.876C50.454 219.003 50.1729 219.066 49.8643 219.066C49.5115 219.066 49.1946 218.994 48.9135 218.851C48.6324 218.702 48.4092 218.482 48.2438 218.19C48.084 217.898 48.0041 217.542 48.0041 217.123V214.469H48.7481V217.024C48.7481 217.471 48.8611 217.815 49.0871 218.057C49.3131 218.295 49.6218 218.413 50.0131 218.413C50.4154 218.413 50.7324 218.289 50.9639 218.041C51.1953 217.793 51.3111 217.432 51.3111 216.958V214.469H52.0634ZM55.5412 214.387C56.0923 214.387 56.5388 214.555 56.8805 214.891C57.2222 215.222 57.3931 215.701 57.3931 216.33V219H56.649V216.437C56.649 215.985 56.536 215.641 56.3101 215.404C56.0841 215.161 55.7754 215.04 55.3841 215.04C54.9872 215.04 54.6703 215.164 54.4333 215.412C54.2018 215.66 54.0861 216.021 54.0861 216.495V219H53.3337V214.469H54.0861V215.114C54.2349 214.883 54.4361 214.704 54.6896 214.577C54.9487 214.45 55.2325 214.387 55.5412 214.387ZM40.9516 230.396C41.6516 229.834 42.2 229.374 42.5968 229.016C42.9937 228.652 43.3271 228.274 43.5972 227.883C43.8728 227.486 44.0106 227.098 44.0106 226.717C44.0106 226.359 43.9224 226.078 43.746 225.874C43.5752 225.665 43.2968 225.56 42.911 225.56C42.5362 225.56 42.2441 225.678 42.0346 225.915C41.8307 226.147 41.7205 226.458 41.7039 226.85H40.9764C40.9984 226.232 41.1858 225.756 41.5386 225.419C41.8913 225.083 42.346 224.915 42.9027 224.915C43.4704 224.915 43.9196 225.072 44.2503 225.386C44.5866 225.7 44.7547 226.133 44.7547 226.684C44.7547 227.142 44.6169 227.588 44.3413 228.024C44.0712 228.454 43.7626 228.834 43.4153 229.165C43.0681 229.49 42.6244 229.87 42.0842 230.306H44.9283V230.934H40.9516V230.396ZM45.798 227.949C45.798 227.001 45.9523 226.263 46.261 225.734C46.5696 225.199 47.1098 224.932 47.8814 224.932C48.6475 224.932 49.1849 225.199 49.4936 225.734C49.8022 226.263 49.9566 227.001 49.9566 227.949C49.9566 228.914 49.8022 229.663 49.4936 230.198C49.1849 230.733 48.6475 231 47.8814 231C47.1098 231 46.5696 230.733 46.261 230.198C45.9523 229.663 45.798 228.914 45.798 227.949ZM49.2125 227.949C49.2125 227.47 49.1794 227.065 49.1133 226.734C49.0526 226.398 48.9231 226.128 48.7247 225.924C48.5318 225.72 48.2507 225.618 47.8814 225.618C47.5066 225.618 47.22 225.72 47.0216 225.924C46.8287 226.128 46.6991 226.398 46.633 226.734C46.5724 227.065 46.5421 227.47 46.5421 227.949C46.5421 228.445 46.5724 228.861 46.633 229.198C46.6991 229.534 46.8287 229.804 47.0216 230.008C47.22 230.212 47.5066 230.314 47.8814 230.314C48.2507 230.314 48.5318 230.212 48.7247 230.008C48.9231 229.804 49.0526 229.534 49.1133 229.198C49.1794 228.861 49.2125 228.445 49.2125 227.949ZM50.8985 230.396C51.5985 229.834 52.1469 229.374 52.5437 229.016C52.9406 228.652 53.274 228.274 53.5441 227.883C53.8197 227.486 53.9575 227.098 53.9575 226.717C53.9575 226.359 53.8693 226.078 53.6929 225.874C53.5221 225.665 53.2437 225.56 52.8579 225.56C52.4831 225.56 52.191 225.678 51.9815 225.915C51.7776 226.147 51.6674 226.458 51.6508 226.85H50.9233C50.9453 226.232 51.1327 225.756 51.4855 225.419C51.8382 225.083 52.293 224.915 52.8496 224.915C53.4173 224.915 53.8665 225.072 54.1972 225.386C54.5335 225.7 54.7016 226.133 54.7016 226.684C54.7016 227.142 54.5638 227.588 54.2882 228.024C54.0181 228.454 53.7095 228.834 53.3622 229.165C53.015 229.49 52.5713 229.87 52.0311 230.306H54.8752V230.934H50.8985V230.396ZM59.0767 226.445C58.9555 225.833 58.5779 225.527 57.9441 225.527C57.4535 225.527 57.087 225.717 56.8445 226.097C56.602 226.472 56.4835 227.092 56.489 227.958C56.6157 227.671 56.8252 227.448 57.1173 227.288C57.4149 227.123 57.7456 227.04 58.1094 227.04C58.6771 227.04 59.1291 227.216 59.4653 227.569C59.807 227.922 59.9779 228.409 59.9779 229.032C59.9779 229.407 59.9035 229.743 59.7547 230.041C59.6114 230.339 59.3909 230.576 59.0933 230.752C58.8011 230.928 58.4456 231.017 58.0267 231.017C57.459 231.017 57.0153 230.89 56.6957 230.636C56.376 230.383 56.1528 230.033 56.026 229.586C55.8992 229.14 55.8358 228.589 55.8358 227.933C55.8358 225.91 56.5413 224.899 57.9523 224.899C58.4925 224.899 58.9169 225.045 59.2255 225.337C59.5342 225.629 59.7161 225.998 59.7712 226.445H59.0767ZM57.9523 227.676C57.7153 227.676 57.4921 227.726 57.2827 227.825C57.0732 227.919 56.9024 228.065 56.7701 228.263C56.6433 228.456 56.5799 228.693 56.5799 228.974C56.5799 229.393 56.7012 229.735 56.9437 230C57.1862 230.259 57.5334 230.388 57.9854 230.388C58.3712 230.388 58.6771 230.27 58.9031 230.033C59.1346 229.79 59.2503 229.465 59.2503 229.057C59.2503 228.627 59.1401 228.291 58.9196 228.048C58.6992 227.8 58.3767 227.676 57.9523 227.676Z" fill="#747682"/>
<path d="M84.7057 213.238V217.495C84.7057 217.969 84.5597 218.35 84.2676 218.636C83.9754 218.917 83.5896 219.058 83.1101 219.058C82.6251 219.058 82.2365 218.915 81.9444 218.628C81.6523 218.336 81.5062 217.939 81.5062 217.437H82.2585C82.2641 217.719 82.3357 217.947 82.4735 218.124C82.6168 218.3 82.829 218.388 83.1101 218.388C83.3912 218.388 83.6006 218.306 83.7384 218.14C83.8762 217.969 83.9451 217.754 83.9451 217.495V213.238H84.7057ZM90.2059 214.469V219H89.4536V218.33C89.3103 218.562 89.1091 218.744 88.8501 218.876C88.5965 219.003 88.3154 219.066 88.0068 219.066C87.654 219.066 87.3371 218.994 87.056 218.851C86.7749 218.702 86.5517 218.482 86.3863 218.19C86.2265 217.898 86.1466 217.542 86.1466 217.123V214.469H86.8906V217.024C86.8906 217.471 87.0036 217.815 87.2296 218.057C87.4556 218.295 87.7642 218.413 88.1556 218.413C88.5579 218.413 88.8749 218.289 89.1063 218.041C89.3378 217.793 89.4536 217.432 89.4536 216.958V214.469H90.2059ZM92.2286 212.882V219H91.4762V212.882H92.2286ZM77.4672 230.396C78.1672 229.834 78.7156 229.374 79.1125 229.016C79.5093 228.652 79.8428 228.274 80.1128 227.883C80.3884 227.486 80.5262 227.098 80.5262 226.717C80.5262 226.359 80.438 226.078 80.2616 225.874C80.0908 225.665 79.8124 225.56 79.4266 225.56C79.0518 225.56 78.7597 225.678 78.5503 225.915C78.3463 226.147 78.2361 226.458 78.2196 226.85H77.492C77.5141 226.232 77.7015 225.756 78.0542 225.419C78.407 225.083 78.8617 224.915 79.4184 224.915C79.9861 224.915 80.4353 225.072 80.766 225.386C81.1022 225.7 81.2703 226.133 81.2703 226.684C81.2703 227.142 81.1325 227.588 80.8569 228.024C80.5868 228.454 80.2782 228.834 79.9309 229.165C79.5837 229.49 79.14 229.87 78.5999 230.306H81.4439V230.934H77.4672V230.396ZM82.3136 227.949C82.3136 227.001 82.4679 226.263 82.7766 225.734C83.0852 225.199 83.6254 224.932 84.397 224.932C85.1632 224.932 85.7006 225.199 86.0092 225.734C86.3179 226.263 86.4722 227.001 86.4722 227.949C86.4722 228.914 86.3179 229.663 86.0092 230.198C85.7006 230.733 85.1632 231 84.397 231C83.6254 231 83.0852 230.733 82.7766 230.198C82.4679 229.663 82.3136 228.914 82.3136 227.949ZM85.7281 227.949C85.7281 227.47 85.695 227.065 85.6289 226.734C85.5683 226.398 85.4387 226.128 85.2403 225.924C85.0474 225.72 84.7663 225.618 84.397 225.618C84.0222 225.618 83.7356 225.72 83.5372 225.924C83.3443 226.128 83.2148 226.398 83.1486 226.734C83.088 227.065 83.0577 227.47 83.0577 227.949C83.0577 228.445 83.088 228.861 83.1486 229.198C83.2148 229.534 83.3443 229.804 83.5372 230.008C83.7356 230.212 84.0222 230.314 84.397 230.314C84.7663 230.314 85.0474 230.212 85.2403 230.008C85.4387 229.804 85.5683 229.534 85.6289 229.198C85.695 228.861 85.7281 228.445 85.7281 227.949ZM87.4141 230.396C88.1141 229.834 88.6625 229.374 89.0594 229.016C89.4562 228.652 89.7897 228.274 90.0597 227.883C90.3353 227.486 90.4731 227.098 90.4731 226.717C90.4731 226.359 90.3849 226.078 90.2085 225.874C90.0377 225.665 89.7593 225.56 89.3735 225.56C88.9987 225.56 88.7066 225.678 88.4972 225.915C88.2932 226.147 88.183 226.458 88.1665 226.85H87.4389C87.461 226.232 87.6484 225.756 88.0011 225.419C88.3539 225.083 88.8086 224.915 89.3653 224.915C89.933 224.915 90.3822 225.072 90.7129 225.386C91.0491 225.7 91.2172 226.133 91.2172 226.684C91.2172 227.142 91.0794 227.588 90.8038 228.024C90.5337 228.454 90.2251 228.834 89.8778 229.165C89.5306 229.49 89.0869 229.87 88.5468 230.306H91.3908V230.934H87.4141V230.396ZM95.5923 226.445C95.4711 225.833 95.0935 225.527 94.4597 225.527C93.9691 225.527 93.6026 225.717 93.3601 226.097C93.1176 226.472 92.9991 227.092 93.0046 227.958C93.1314 227.671 93.3408 227.448 93.6329 227.288C93.9306 227.123 94.2613 227.04 94.625 227.04C95.1927 227.04 95.6447 227.216 95.9809 227.569C96.3226 227.922 96.4935 228.409 96.4935 229.032C96.4935 229.407 96.4191 229.743 96.2703 230.041C96.127 230.339 95.9065 230.576 95.6089 230.752C95.3168 230.928 94.9613 231.017 94.5424 231.017C93.9747 231.017 93.531 230.89 93.2113 230.636C92.8916 230.383 92.6684 230.033 92.5416 229.586C92.4148 229.14 92.3515 228.589 92.3515 227.933C92.3515 225.91 93.057 224.899 94.468 224.899C95.0081 224.899 95.4325 225.045 95.7412 225.337C96.0498 225.629 96.2317 225.998 96.2868 226.445H95.5923ZM94.468 227.676C94.231 227.676 94.0077 227.726 93.7983 227.825C93.5888 227.919 93.418 228.065 93.2857 228.263C93.1589 228.456 93.0955 228.693 93.0955 228.974C93.0955 229.393 93.2168 229.735 93.4593 230C93.7018 230.259 94.0491 230.388 94.501 230.388C94.8868 230.388 95.1927 230.27 95.4187 230.033C95.6502 229.79 95.766 229.465 95.766 229.057C95.766 228.627 95.6557 228.291 95.4353 228.048C95.2148 227.8 94.8924 227.676 94.468 227.676Z" fill="#747682"/>
<path d="M119.354 217.719H116.841L116.378 219H115.584L117.667 213.271H118.536L120.611 219H119.817L119.354 217.719ZM119.139 217.107L118.097 214.197L117.056 217.107H119.139ZM125.537 214.469V219H124.784V218.33C124.641 218.562 124.44 218.744 124.181 218.876C123.927 219.003 123.646 219.066 123.338 219.066C122.985 219.066 122.668 218.994 122.387 218.851C122.106 218.702 121.883 218.482 121.717 218.19C121.557 217.898 121.477 217.542 121.477 217.123V214.469H122.222V217.024C122.222 217.471 122.334 217.815 122.56 218.057C122.786 218.295 123.095 218.413 123.486 218.413C123.889 218.413 124.206 218.289 124.437 218.041C124.669 217.793 124.784 217.432 124.784 216.958V214.469H125.537ZM128.676 214.395C129.067 214.395 129.409 214.48 129.701 214.651C129.998 214.822 130.219 215.037 130.362 215.296V214.469H131.123V219.099C131.123 219.513 131.035 219.879 130.858 220.199C130.682 220.524 130.428 220.778 130.098 220.959C129.772 221.141 129.392 221.232 128.957 221.232C128.361 221.232 127.865 221.092 127.468 220.811C127.072 220.529 126.837 220.146 126.766 219.661H127.51C127.593 219.937 127.763 220.157 128.022 220.323C128.281 220.494 128.593 220.579 128.957 220.579C129.37 220.579 129.706 220.45 129.965 220.191C130.23 219.931 130.362 219.568 130.362 219.099V218.148C130.213 218.413 129.993 218.633 129.701 218.81C129.409 218.986 129.067 219.074 128.676 219.074C128.273 219.074 127.907 218.975 127.576 218.777C127.251 218.578 126.994 218.3 126.807 217.942C126.62 217.583 126.526 217.176 126.526 216.718C126.526 216.255 126.62 215.85 126.807 215.503C126.994 215.15 127.251 214.877 127.576 214.684C127.907 214.491 128.273 214.395 128.676 214.395ZM130.362 216.726C130.362 216.385 130.293 216.087 130.155 215.834C130.018 215.58 129.83 215.387 129.593 215.255C129.362 215.117 129.105 215.048 128.824 215.048C128.543 215.048 128.287 215.114 128.055 215.247C127.824 215.379 127.639 215.572 127.502 215.825C127.364 216.079 127.295 216.376 127.295 216.718C127.295 217.065 127.364 217.369 127.502 217.628C127.639 217.881 127.824 218.077 128.055 218.215C128.287 218.347 128.543 218.413 128.824 218.413C129.105 218.413 129.362 218.347 129.593 218.215C129.83 218.077 130.018 217.881 130.155 217.628C130.293 217.369 130.362 217.068 130.362 216.726ZM113.981 230.396C114.681 229.834 115.229 229.374 115.626 229.016C116.023 228.652 116.356 228.274 116.626 227.883C116.902 227.486 117.04 227.098 117.04 226.717C117.04 226.359 116.952 226.078 116.775 225.874C116.604 225.665 116.326 225.56 115.94 225.56C115.565 225.56 115.273 225.678 115.064 225.915C114.86 226.147 114.75 226.458 114.733 226.85H114.006C114.028 226.232 114.215 225.756 114.568 225.419C114.921 225.083 115.375 224.915 115.932 224.915C116.5 224.915 116.949 225.072 117.28 225.386C117.616 225.7 117.784 226.133 117.784 226.684C117.784 227.142 117.646 227.588 117.371 228.024C117.101 228.454 116.792 228.834 116.445 229.165C116.097 229.49 115.654 229.87 115.114 230.306H117.958V230.934H113.981V230.396ZM118.827 227.949C118.827 227.001 118.982 226.263 119.29 225.734C119.599 225.199 120.139 224.932 120.911 224.932C121.677 224.932 122.214 225.199 122.523 225.734C122.832 226.263 122.986 227.001 122.986 227.949C122.986 228.914 122.832 229.663 122.523 230.198C122.214 230.733 121.677 231 120.911 231C120.139 231 119.599 230.733 119.29 230.198C118.982 229.663 118.827 228.914 118.827 227.949ZM122.242 227.949C122.242 227.47 122.209 227.065 122.143 226.734C122.082 226.398 121.952 226.128 121.754 225.924C121.561 225.72 121.28 225.618 120.911 225.618C120.536 225.618 120.249 225.72 120.051 225.924C119.858 226.128 119.728 226.398 119.662 226.734C119.602 227.065 119.571 227.47 119.571 227.949C119.571 228.445 119.602 228.861 119.662 229.198C119.728 229.534 119.858 229.804 120.051 230.008C120.249 230.212 120.536 230.314 120.911 230.314C121.28 230.314 121.561 230.212 121.754 230.008C121.952 229.804 122.082 229.534 122.143 229.198C122.209 228.861 122.242 228.445 122.242 227.949ZM123.928 230.396C124.628 229.834 125.176 229.374 125.573 229.016C125.97 228.652 126.303 228.274 126.573 227.883C126.849 227.486 126.987 227.098 126.987 226.717C126.987 226.359 126.899 226.078 126.722 225.874C126.551 225.665 126.273 225.56 125.887 225.56C125.512 225.56 125.22 225.678 125.011 225.915C124.807 226.147 124.697 226.458 124.68 226.85H123.953C123.975 226.232 124.162 225.756 124.515 225.419C124.868 225.083 125.322 224.915 125.879 224.915C126.447 224.915 126.896 225.072 127.227 225.386C127.563 225.7 127.731 226.133 127.731 226.684C127.731 227.142 127.593 227.588 127.317 228.024C127.047 228.454 126.739 228.834 126.392 229.165C126.044 229.49 125.601 229.87 125.06 230.306H127.904V230.934H123.928V230.396ZM132.106 226.445C131.985 225.833 131.607 225.527 130.973 225.527C130.483 225.527 130.116 225.717 129.874 226.097C129.631 226.472 129.513 227.092 129.518 227.958C129.645 227.671 129.854 227.448 130.147 227.288C130.444 227.123 130.775 227.04 131.139 227.04C131.706 227.04 132.158 227.216 132.495 227.569C132.836 227.922 133.007 228.409 133.007 229.032C133.007 229.407 132.933 229.743 132.784 230.041C132.641 230.339 132.42 230.576 132.123 230.752C131.83 230.928 131.475 231.017 131.056 231.017C130.488 231.017 130.045 230.89 129.725 230.636C129.405 230.383 129.182 230.033 129.055 229.586C128.929 229.14 128.865 228.589 128.865 227.933C128.865 225.91 129.571 224.899 130.982 224.899C131.522 224.899 131.946 225.045 132.255 225.337C132.563 225.629 132.745 225.998 132.8 226.445H132.106ZM130.982 227.676C130.745 227.676 130.521 227.726 130.312 227.825C130.103 227.919 129.932 228.065 129.799 228.263C129.673 228.456 129.609 228.693 129.609 228.974C129.609 229.393 129.73 229.735 129.973 230C130.216 230.259 130.563 230.388 131.015 230.388C131.401 230.388 131.706 230.27 131.932 230.033C132.164 229.79 132.28 229.465 132.28 229.057C132.28 228.627 132.169 228.291 131.949 228.048C131.728 227.8 131.406 227.676 130.982 227.676Z" fill="#747682"/>
<path d="M154.731 219.058C154.351 219.058 154.009 218.992 153.706 218.859C153.408 218.722 153.174 218.534 153.003 218.297C152.832 218.055 152.744 217.776 152.738 217.462H153.54C153.568 217.732 153.678 217.961 153.871 218.148C154.069 218.33 154.356 218.421 154.731 218.421C155.089 218.421 155.37 218.333 155.574 218.157C155.784 217.975 155.888 217.743 155.888 217.462C155.888 217.242 155.828 217.063 155.706 216.925C155.585 216.787 155.434 216.682 155.252 216.611C155.07 216.539 154.825 216.462 154.516 216.379C154.136 216.28 153.83 216.181 153.598 216.082C153.372 215.982 153.177 215.828 153.011 215.619C152.851 215.404 152.771 215.117 152.771 214.759C152.771 214.445 152.851 214.166 153.011 213.924C153.171 213.681 153.394 213.494 153.681 213.362C153.973 213.229 154.306 213.163 154.681 213.163C155.221 213.163 155.662 213.298 156.004 213.568C156.351 213.838 156.547 214.197 156.591 214.643H155.764C155.737 214.423 155.621 214.23 155.417 214.064C155.213 213.893 154.943 213.808 154.607 213.808C154.293 213.808 154.036 213.891 153.838 214.056C153.64 214.216 153.54 214.442 153.54 214.734C153.54 214.943 153.598 215.114 153.714 215.247C153.835 215.379 153.981 215.481 154.152 215.552C154.329 215.619 154.574 215.696 154.888 215.784C155.268 215.889 155.574 215.993 155.806 216.098C156.037 216.197 156.236 216.354 156.401 216.569C156.566 216.779 156.649 217.065 156.649 217.429C156.649 217.71 156.575 217.975 156.426 218.223C156.277 218.471 156.056 218.672 155.764 218.826C155.472 218.981 155.128 219.058 154.731 219.058ZM161.89 216.561C161.89 216.704 161.882 216.856 161.865 217.016H158.244C158.271 217.462 158.423 217.812 158.699 218.066C158.98 218.314 159.319 218.438 159.715 218.438C160.041 218.438 160.311 218.363 160.526 218.215C160.746 218.06 160.901 217.856 160.989 217.603H161.799C161.678 218.038 161.435 218.394 161.071 218.669C160.708 218.939 160.256 219.074 159.715 219.074C159.286 219.074 158.9 218.978 158.558 218.785C158.222 218.592 157.957 218.319 157.764 217.967C157.571 217.608 157.475 217.195 157.475 216.726C157.475 216.258 157.569 215.847 157.756 215.495C157.943 215.142 158.205 214.872 158.542 214.684C158.883 214.491 159.275 214.395 159.715 214.395C160.145 214.395 160.526 214.489 160.856 214.676C161.187 214.863 161.441 215.123 161.617 215.453C161.799 215.778 161.89 216.148 161.89 216.561ZM161.113 216.404C161.113 216.117 161.049 215.872 160.923 215.668C160.796 215.459 160.622 215.302 160.402 215.197C160.187 215.087 159.947 215.032 159.682 215.032C159.302 215.032 158.977 215.153 158.707 215.395C158.442 215.638 158.291 215.974 158.252 216.404H161.113ZM163.635 215.304C163.784 215.045 164.005 214.83 164.297 214.66C164.594 214.483 164.939 214.395 165.33 214.395C165.732 214.395 166.096 214.491 166.421 214.684C166.752 214.877 167.011 215.15 167.199 215.503C167.386 215.85 167.48 216.255 167.48 216.718C167.48 217.176 167.386 217.583 167.199 217.942C167.011 218.3 166.752 218.578 166.421 218.777C166.096 218.975 165.732 219.074 165.33 219.074C164.944 219.074 164.603 218.989 164.305 218.818C164.013 218.642 163.79 218.424 163.635 218.165V221.15H162.883V214.469H163.635V215.304ZM166.711 216.718C166.711 216.376 166.642 216.079 166.504 215.825C166.366 215.572 166.179 215.379 165.942 215.247C165.71 215.114 165.454 215.048 165.173 215.048C164.897 215.048 164.641 215.117 164.404 215.255C164.173 215.387 163.985 215.583 163.842 215.842C163.704 216.095 163.635 216.39 163.635 216.726C163.635 217.068 163.704 217.369 163.842 217.628C163.985 217.881 164.173 218.077 164.404 218.215C164.641 218.347 164.897 218.413 165.173 218.413C165.454 218.413 165.71 218.347 165.942 218.215C166.179 218.077 166.366 217.881 166.504 217.628C166.642 217.369 166.711 217.065 166.711 216.718ZM150.497 230.396C151.197 229.834 151.745 229.374 152.142 229.016C152.539 228.652 152.872 228.274 153.142 227.883C153.418 227.486 153.556 227.098 153.556 226.717C153.556 226.359 153.468 226.078 153.291 225.874C153.12 225.665 152.842 225.56 152.456 225.56C152.081 225.56 151.789 225.678 151.58 225.915C151.376 226.147 151.266 226.458 151.249 226.85H150.522C150.544 226.232 150.731 225.756 151.084 225.419C151.436 225.083 151.891 224.915 152.448 224.915C153.016 224.915 153.465 225.072 153.796 225.386C154.132 225.7 154.3 226.133 154.3 226.684C154.3 227.142 154.162 227.588 153.886 228.024C153.616 228.454 153.308 228.834 152.96 229.165C152.613 229.49 152.17 229.87 151.629 230.306H154.473V230.934H150.497V230.396ZM155.343 227.949C155.343 227.001 155.497 226.263 155.806 225.734C156.115 225.199 156.655 224.932 157.427 224.932C158.193 224.932 158.73 225.199 159.039 225.734C159.347 226.263 159.502 227.001 159.502 227.949C159.502 228.914 159.347 229.663 159.039 230.198C158.73 230.733 158.193 231 157.427 231C156.655 231 156.115 230.733 155.806 230.198C155.497 229.663 155.343 228.914 155.343 227.949ZM158.758 227.949C158.758 227.47 158.725 227.065 158.658 226.734C158.598 226.398 158.468 226.128 158.27 225.924C158.077 225.72 157.796 225.618 157.427 225.618C157.052 225.618 156.765 225.72 156.567 225.924C156.374 226.128 156.244 226.398 156.178 226.734C156.118 227.065 156.087 227.47 156.087 227.949C156.087 228.445 156.118 228.861 156.178 229.198C156.244 229.534 156.374 229.804 156.567 230.008C156.765 230.212 157.052 230.314 157.427 230.314C157.796 230.314 158.077 230.212 158.27 230.008C158.468 229.804 158.598 229.534 158.658 229.198C158.725 228.861 158.758 228.445 158.758 227.949ZM160.444 230.396C161.144 229.834 161.692 229.374 162.089 229.016C162.486 228.652 162.819 228.274 163.089 227.883C163.365 227.486 163.503 227.098 163.503 226.717C163.503 226.359 163.414 226.078 163.238 225.874C163.067 225.665 162.789 225.56 162.403 225.56C162.028 225.56 161.736 225.678 161.527 225.915C161.323 226.147 161.213 226.458 161.196 226.85H160.468C160.491 226.232 160.678 225.756 161.031 225.419C161.383 225.083 161.838 224.915 162.395 224.915C162.963 224.915 163.412 225.072 163.742 225.386C164.079 225.7 164.247 226.133 164.247 226.684C164.247 227.142 164.109 227.588 163.833 228.024C163.563 228.454 163.255 228.834 162.907 229.165C162.56 229.49 162.116 229.87 161.576 230.306H164.42V230.934H160.444V230.396ZM168.622 226.445C168.501 225.833 168.123 225.527 167.489 225.527C166.999 225.527 166.632 225.717 166.39 226.097C166.147 226.472 166.029 227.092 166.034 227.958C166.161 227.671 166.37 227.448 166.662 227.288C166.96 227.123 167.291 227.04 167.655 227.04C168.222 227.04 168.674 227.216 169.01 227.569C169.352 227.922 169.523 228.409 169.523 229.032C169.523 229.407 169.449 229.743 169.3 230.041C169.157 230.339 168.936 230.576 168.638 230.752C168.346 230.928 167.991 231.017 167.572 231.017C167.004 231.017 166.561 230.89 166.241 230.636C165.921 230.383 165.698 230.033 165.571 229.586C165.444 229.14 165.381 228.589 165.381 227.933C165.381 225.91 166.086 224.899 167.497 224.899C168.038 224.899 168.462 225.045 168.771 225.337C169.079 225.629 169.261 225.998 169.316 226.445H168.622ZM167.497 227.676C167.26 227.676 167.037 227.726 166.828 227.825C166.618 227.919 166.448 228.065 166.315 228.263C166.188 228.456 166.125 228.693 166.125 228.974C166.125 229.393 166.246 229.735 166.489 230C166.731 230.259 167.079 230.388 167.531 230.388C167.916 230.388 168.222 230.27 168.448 230.033C168.68 229.79 168.796 229.465 168.796 229.057C168.796 228.627 168.685 228.291 168.465 228.048C168.244 227.8 167.922 227.676 167.497 227.676Z" fill="#747682"/>
<path d="M192.549 219.058C192.014 219.058 191.526 218.934 191.085 218.686C190.644 218.432 190.294 218.082 190.035 217.636C189.782 217.184 189.655 216.677 189.655 216.115C189.655 215.552 189.782 215.048 190.035 214.602C190.294 214.15 190.644 213.8 191.085 213.552C191.526 213.298 192.014 213.171 192.549 213.171C193.089 213.171 193.579 213.298 194.02 213.552C194.461 213.8 194.808 214.147 195.062 214.593C195.316 215.04 195.442 215.547 195.442 216.115C195.442 216.682 195.316 217.189 195.062 217.636C194.808 218.082 194.461 218.432 194.02 218.686C193.579 218.934 193.089 219.058 192.549 219.058ZM192.549 218.405C192.951 218.405 193.312 218.311 193.632 218.124C193.957 217.936 194.21 217.669 194.392 217.322C194.58 216.974 194.673 216.572 194.673 216.115C194.673 215.652 194.58 215.249 194.392 214.908C194.21 214.56 193.96 214.293 193.64 214.106C193.32 213.918 192.956 213.825 192.549 213.825C192.141 213.825 191.777 213.918 191.457 214.106C191.138 214.293 190.884 214.56 190.697 214.908C190.515 215.249 190.424 215.652 190.424 216.115C190.424 216.572 190.515 216.974 190.697 217.322C190.884 217.669 191.138 217.936 191.457 218.124C191.783 218.311 192.146 218.405 192.549 218.405ZM196.154 216.726C196.154 216.258 196.248 215.85 196.435 215.503C196.623 215.15 196.882 214.877 197.213 214.684C197.549 214.491 197.932 214.395 198.362 214.395C198.919 214.395 199.376 214.53 199.734 214.8C200.098 215.07 200.338 215.445 200.454 215.924H199.643C199.566 215.649 199.415 215.431 199.189 215.271C198.968 215.111 198.693 215.032 198.362 215.032C197.932 215.032 197.585 215.18 197.32 215.478C197.056 215.77 196.923 216.186 196.923 216.726C196.923 217.272 197.056 217.694 197.32 217.991C197.585 218.289 197.932 218.438 198.362 218.438C198.693 218.438 198.968 218.361 199.189 218.206C199.409 218.052 199.561 217.832 199.643 217.545H200.454C200.332 218.008 200.09 218.38 199.726 218.661C199.362 218.937 198.907 219.074 198.362 219.074C197.932 219.074 197.549 218.978 197.213 218.785C196.882 218.592 196.623 218.319 196.435 217.967C196.248 217.614 196.154 217.2 196.154 216.726ZM202.375 215.089V217.76C202.375 217.98 202.422 218.137 202.516 218.231C202.609 218.319 202.772 218.363 203.003 218.363H203.557V219H202.879C202.461 219 202.146 218.904 201.937 218.711C201.727 218.518 201.623 218.201 201.623 217.76V215.089H201.036V214.469H201.623V213.328H202.375V214.469H203.557V215.089H202.375ZM187.012 230.396C187.712 229.834 188.261 229.374 188.658 229.016C189.054 228.652 189.388 228.274 189.658 227.883C189.934 227.486 190.071 227.098 190.071 226.717C190.071 226.359 189.983 226.078 189.807 225.874C189.636 225.665 189.358 225.56 188.972 225.56C188.597 225.56 188.305 225.678 188.095 225.915C187.891 226.147 187.781 226.458 187.765 226.85H187.037C187.059 226.232 187.247 225.756 187.599 225.419C187.952 225.083 188.407 224.915 188.964 224.915C189.531 224.915 189.98 225.072 190.311 225.386C190.647 225.7 190.815 226.133 190.815 226.684C190.815 227.142 190.678 227.588 190.402 228.024C190.132 228.454 189.823 228.834 189.476 229.165C189.129 229.49 188.685 229.87 188.145 230.306H190.989V230.934H187.012V230.396ZM191.859 227.949C191.859 227.001 192.013 226.263 192.322 225.734C192.63 225.199 193.171 224.932 193.942 224.932C194.708 224.932 195.246 225.199 195.554 225.734C195.863 226.263 196.017 227.001 196.017 227.949C196.017 228.914 195.863 229.663 195.554 230.198C195.246 230.733 194.708 231 193.942 231C193.171 231 192.63 230.733 192.322 230.198C192.013 229.663 191.859 228.914 191.859 227.949ZM195.273 227.949C195.273 227.47 195.24 227.065 195.174 226.734C195.113 226.398 194.984 226.128 194.785 225.924C194.593 225.72 194.311 225.618 193.942 225.618C193.567 225.618 193.281 225.72 193.082 225.924C192.889 226.128 192.76 226.398 192.694 226.734C192.633 227.065 192.603 227.47 192.603 227.949C192.603 228.445 192.633 228.861 192.694 229.198C192.76 229.534 192.889 229.804 193.082 230.008C193.281 230.212 193.567 230.314 193.942 230.314C194.311 230.314 194.593 230.212 194.785 230.008C194.984 229.804 195.113 229.534 195.174 229.198C195.24 228.861 195.273 228.445 195.273 227.949ZM196.959 230.396C197.659 229.834 198.208 229.374 198.605 229.016C199.001 228.652 199.335 228.274 199.605 227.883C199.88 227.486 200.018 227.098 200.018 226.717C200.018 226.359 199.93 226.078 199.754 225.874C199.583 225.665 199.305 225.56 198.919 225.56C198.544 225.56 198.252 225.678 198.042 225.915C197.838 226.147 197.728 226.458 197.712 226.85H196.984C197.006 226.232 197.194 225.756 197.546 225.419C197.899 225.083 198.354 224.915 198.91 224.915C199.478 224.915 199.927 225.072 200.258 225.386C200.594 225.7 200.762 226.133 200.762 226.684C200.762 227.142 200.625 227.588 200.349 228.024C200.079 228.454 199.77 228.834 199.423 229.165C199.076 229.49 198.632 229.87 198.092 230.306H200.936V230.934H196.959V230.396ZM205.138 226.445C205.016 225.833 204.639 225.527 204.005 225.527C203.514 225.527 203.148 225.717 202.905 226.097C202.663 226.472 202.544 227.092 202.55 227.958C202.677 227.671 202.886 227.448 203.178 227.288C203.476 227.123 203.806 227.04 204.17 227.04C204.738 227.04 205.19 227.216 205.526 227.569C205.868 227.922 206.039 228.409 206.039 229.032C206.039 229.407 205.964 229.743 205.815 230.041C205.672 230.339 205.452 230.576 205.154 230.752C204.862 230.928 204.506 231.017 204.088 231.017C203.52 231.017 203.076 230.89 202.756 230.636C202.437 230.383 202.214 230.033 202.087 229.586C201.96 229.14 201.897 228.589 201.897 227.933C201.897 225.91 202.602 224.899 204.013 224.899C204.553 224.899 204.978 225.045 205.286 225.337C205.595 225.629 205.777 225.998 205.832 226.445H205.138ZM204.013 227.676C203.776 227.676 203.553 227.726 203.343 227.825C203.134 227.919 202.963 228.065 202.831 228.263C202.704 228.456 202.641 228.693 202.641 228.974C202.641 229.393 202.762 229.735 203.004 230C203.247 230.259 203.594 230.388 204.046 230.388C204.432 230.388 204.738 230.27 204.964 230.033C205.195 229.79 205.311 229.465 205.311 229.057C205.311 228.627 205.201 228.291 204.98 228.048C204.76 227.8 204.438 227.676 204.013 227.676Z" fill="#747682"/>
<path d="M230.379 219H229.627L226.601 214.412V219H225.848V213.229H226.601L229.627 217.809V213.229H230.379V219ZM233.637 219.074C233.213 219.074 232.827 218.978 232.48 218.785C232.138 218.592 231.868 218.319 231.67 217.967C231.477 217.608 231.38 217.195 231.38 216.726C231.38 216.263 231.48 215.856 231.678 215.503C231.882 215.145 232.157 214.872 232.505 214.684C232.852 214.491 233.24 214.395 233.67 214.395C234.1 214.395 234.489 214.491 234.836 214.684C235.183 214.872 235.456 215.142 235.655 215.495C235.859 215.847 235.961 216.258 235.961 216.726C235.961 217.195 235.856 217.608 235.646 217.967C235.442 218.319 235.164 218.592 234.811 218.785C234.459 218.978 234.067 219.074 233.637 219.074ZM233.637 218.413C233.907 218.413 234.161 218.35 234.398 218.223C234.635 218.096 234.825 217.906 234.968 217.652C235.117 217.399 235.192 217.09 235.192 216.726C235.192 216.363 235.12 216.054 234.977 215.8C234.833 215.547 234.646 215.36 234.414 215.238C234.183 215.111 233.932 215.048 233.662 215.048C233.387 215.048 233.133 215.111 232.902 215.238C232.676 215.36 232.494 215.547 232.356 215.8C232.218 216.054 232.149 216.363 232.149 216.726C232.149 217.096 232.215 217.407 232.348 217.661C232.485 217.914 232.667 218.104 232.893 218.231C233.119 218.352 233.367 218.413 233.637 218.413ZM238.636 218.306L240.042 214.469H240.844L239.066 219H238.19L236.412 214.469H237.223L238.636 218.306ZM223.526 230.396C224.226 229.834 224.774 229.374 225.171 229.016C225.568 228.652 225.902 228.274 226.172 227.883C226.447 227.486 226.585 227.098 226.585 226.717C226.585 226.359 226.497 226.078 226.32 225.874C226.15 225.665 225.871 225.56 225.485 225.56C225.111 225.56 224.819 225.678 224.609 225.915C224.405 226.147 224.295 226.458 224.278 226.85H223.551C223.573 226.232 223.76 225.756 224.113 225.419C224.466 225.083 224.921 224.915 225.477 224.915C226.045 224.915 226.494 225.072 226.825 225.386C227.161 225.7 227.329 226.133 227.329 226.684C227.329 227.142 227.191 227.588 226.916 228.024C226.646 228.454 226.337 228.834 225.99 229.165C225.643 229.49 225.199 229.87 224.659 230.306H227.503V230.934H223.526V230.396ZM228.372 227.949C228.372 227.001 228.527 226.263 228.835 225.734C229.144 225.199 229.684 224.932 230.456 224.932C231.222 224.932 231.759 225.199 232.068 225.734C232.377 226.263 232.531 227.001 232.531 227.949C232.531 228.914 232.377 229.663 232.068 230.198C231.759 230.733 231.222 231 230.456 231C229.684 231 229.144 230.733 228.835 230.198C228.527 229.663 228.372 228.914 228.372 227.949ZM231.787 227.949C231.787 227.47 231.754 227.065 231.688 226.734C231.627 226.398 231.498 226.128 231.299 225.924C231.106 225.72 230.825 225.618 230.456 225.618C230.081 225.618 229.794 225.72 229.596 225.924C229.403 226.128 229.274 226.398 229.207 226.734C229.147 227.065 229.117 227.47 229.117 227.949C229.117 228.445 229.147 228.861 229.207 229.198C229.274 229.534 229.403 229.804 229.596 230.008C229.794 230.212 230.081 230.314 230.456 230.314C230.825 230.314 231.106 230.212 231.299 230.008C231.498 229.804 231.627 229.534 231.688 229.198C231.754 228.861 231.787 228.445 231.787 227.949ZM233.473 230.396C234.173 229.834 234.721 229.374 235.118 229.016C235.515 228.652 235.848 228.274 236.119 227.883C236.394 227.486 236.532 227.098 236.532 226.717C236.532 226.359 236.444 226.078 236.267 225.874C236.097 225.665 235.818 225.56 235.432 225.56C235.058 225.56 234.765 225.678 234.556 225.915C234.352 226.147 234.242 226.458 234.225 226.85H233.498C233.52 226.232 233.707 225.756 234.06 225.419C234.413 225.083 234.867 224.915 235.424 224.915C235.992 224.915 236.441 225.072 236.772 225.386C237.108 225.7 237.276 226.133 237.276 226.684C237.276 227.142 237.138 227.588 236.863 228.024C236.593 228.454 236.284 228.834 235.937 229.165C235.589 229.49 235.146 229.87 234.606 230.306H237.45V230.934H233.473V230.396ZM241.651 226.445C241.53 225.833 241.152 225.527 240.519 225.527C240.028 225.527 239.661 225.717 239.419 226.097C239.176 226.472 239.058 227.092 239.063 227.958C239.19 227.671 239.4 227.448 239.692 227.288C239.989 227.123 240.32 227.04 240.684 227.04C241.252 227.04 241.704 227.216 242.04 227.569C242.381 227.922 242.552 228.409 242.552 229.032C242.552 229.407 242.478 229.743 242.329 230.041C242.186 230.339 241.965 230.576 241.668 230.752C241.376 230.928 241.02 231.017 240.601 231.017C240.033 231.017 239.59 230.89 239.27 230.636C238.95 230.383 238.727 230.033 238.6 229.586C238.474 229.14 238.41 228.589 238.41 227.933C238.41 225.91 239.116 224.899 240.527 224.899C241.067 224.899 241.491 225.045 241.8 225.337C242.109 225.629 242.291 225.998 242.346 226.445H241.651ZM240.527 227.676C240.29 227.676 240.067 227.726 239.857 227.825C239.648 227.919 239.477 228.065 239.345 228.263C239.218 228.456 239.154 228.693 239.154 228.974C239.154 229.393 239.276 229.735 239.518 230C239.761 230.259 240.108 230.388 240.56 230.388C240.946 230.388 241.252 230.27 241.478 230.033C241.709 229.79 241.825 229.465 241.825 229.057C241.825 228.627 241.715 228.291 241.494 228.048C241.274 227.8 240.951 227.676 240.527 227.676Z" fill="#747682"/>
<path d="M264.029 213.238C264.657 213.238 265.2 213.356 265.657 213.593C266.12 213.825 266.473 214.158 266.715 214.593C266.964 215.029 267.088 215.541 267.088 216.131C267.088 216.721 266.964 217.233 266.715 217.669C266.473 218.099 266.12 218.43 265.657 218.661C265.2 218.887 264.657 219 264.029 219H262.234V213.238H264.029ZM264.029 218.38C264.773 218.38 265.34 218.184 265.732 217.793C266.123 217.396 266.319 216.842 266.319 216.131C266.319 215.415 266.12 214.855 265.723 214.453C265.332 214.05 264.767 213.849 264.029 213.849H262.987V218.38H264.029ZM272.214 216.561C272.214 216.704 272.205 216.856 272.189 217.016H268.568C268.595 217.462 268.747 217.812 269.022 218.066C269.303 218.314 269.642 218.438 270.039 218.438C270.364 218.438 270.635 218.363 270.85 218.215C271.07 218.06 271.224 217.856 271.312 217.603H272.123C272.001 218.038 271.759 218.394 271.395 218.669C271.031 218.939 270.579 219.074 270.039 219.074C269.609 219.074 269.224 218.978 268.882 218.785C268.546 218.592 268.281 218.319 268.088 217.967C267.895 217.608 267.799 217.195 267.799 216.726C267.799 216.258 267.892 215.847 268.08 215.495C268.267 215.142 268.529 214.872 268.865 214.684C269.207 214.491 269.598 214.395 270.039 214.395C270.469 214.395 270.85 214.489 271.18 214.676C271.511 214.863 271.764 215.123 271.941 215.453C272.123 215.778 272.214 216.148 272.214 216.561ZM271.437 216.404C271.437 216.117 271.373 215.872 271.246 215.668C271.12 215.459 270.946 215.302 270.726 215.197C270.511 215.087 270.271 215.032 270.006 215.032C269.626 215.032 269.301 215.153 269.031 215.395C268.766 215.638 268.615 215.974 268.576 216.404H271.437ZM272.926 216.726C272.926 216.258 273.019 215.85 273.207 215.503C273.394 215.15 273.653 214.877 273.984 214.684C274.32 214.491 274.703 214.395 275.133 214.395C275.69 214.395 276.147 214.53 276.505 214.8C276.869 215.07 277.109 215.445 277.225 215.924H276.415C276.337 215.649 276.186 215.431 275.96 215.271C275.739 215.111 275.464 215.032 275.133 215.032C274.703 215.032 274.356 215.18 274.091 215.478C273.827 215.77 273.695 216.186 273.695 216.726C273.695 217.272 273.827 217.694 274.091 217.991C274.356 218.289 274.703 218.438 275.133 218.438C275.464 218.438 275.739 218.361 275.96 218.206C276.18 218.052 276.332 217.832 276.415 217.545H277.225C277.104 218.008 276.861 218.38 276.497 218.661C276.133 218.937 275.679 219.074 275.133 219.074C274.703 219.074 274.32 218.978 273.984 218.785C273.653 218.592 273.394 218.319 273.207 217.967C273.019 217.614 272.926 217.2 272.926 216.726ZM260.041 230.396C260.741 229.834 261.29 229.374 261.687 229.016C262.084 228.652 262.417 228.274 262.687 227.883C262.963 227.486 263.1 227.098 263.1 226.717C263.1 226.359 263.012 226.078 262.836 225.874C262.665 225.665 262.387 225.56 262.001 225.56C261.626 225.56 261.334 225.678 261.124 225.915C260.921 226.147 260.81 226.458 260.794 226.85H260.066C260.088 226.232 260.276 225.756 260.628 225.419C260.981 225.083 261.436 224.915 261.993 224.915C262.56 224.915 263.009 225.072 263.34 225.386C263.676 225.7 263.845 226.133 263.845 226.684C263.845 227.142 263.707 227.588 263.431 228.024C263.161 228.454 262.852 228.834 262.505 229.165C262.158 229.49 261.714 229.87 261.174 230.306H264.018V230.934H260.041V230.396ZM264.888 227.949C264.888 227.001 265.042 226.263 265.351 225.734C265.659 225.199 266.2 224.932 266.971 224.932C267.737 224.932 268.275 225.199 268.583 225.734C268.892 226.263 269.046 227.001 269.046 227.949C269.046 228.914 268.892 229.663 268.583 230.198C268.275 230.733 267.737 231 266.971 231C266.2 231 265.659 230.733 265.351 230.198C265.042 229.663 264.888 228.914 264.888 227.949ZM268.302 227.949C268.302 227.47 268.269 227.065 268.203 226.734C268.142 226.398 268.013 226.128 267.815 225.924C267.622 225.72 267.341 225.618 266.971 225.618C266.596 225.618 266.31 225.72 266.111 225.924C265.919 226.128 265.789 226.398 265.723 226.734C265.662 227.065 265.632 227.47 265.632 227.949C265.632 228.445 265.662 228.861 265.723 229.198C265.789 229.534 265.919 229.804 266.111 230.008C266.31 230.212 266.596 230.314 266.971 230.314C267.341 230.314 267.622 230.212 267.815 230.008C268.013 229.804 268.142 229.534 268.203 229.198C268.269 228.861 268.302 228.445 268.302 227.949ZM269.988 230.396C270.688 229.834 271.237 229.374 271.634 229.016C272.03 228.652 272.364 228.274 272.634 227.883C272.91 227.486 273.047 227.098 273.047 226.717C273.047 226.359 272.959 226.078 272.783 225.874C272.612 225.665 272.334 225.56 271.948 225.56C271.573 225.56 271.281 225.678 271.071 225.915C270.867 226.147 270.757 226.458 270.741 226.85H270.013C270.035 226.232 270.223 225.756 270.575 225.419C270.928 225.083 271.383 224.915 271.939 224.915C272.507 224.915 272.956 225.072 273.287 225.386C273.623 225.7 273.791 226.133 273.791 226.684C273.791 227.142 273.654 227.588 273.378 228.024C273.108 228.454 272.799 228.834 272.452 229.165C272.105 229.49 271.661 229.87 271.121 230.306H273.965V230.934H269.988V230.396ZM278.167 226.445C278.045 225.833 277.668 225.527 277.034 225.527C276.543 225.527 276.177 225.717 275.934 226.097C275.692 226.472 275.573 227.092 275.579 227.958C275.706 227.671 275.915 227.448 276.207 227.288C276.505 227.123 276.835 227.04 277.199 227.04C277.767 227.04 278.219 227.216 278.555 227.569C278.897 227.922 279.068 228.409 279.068 229.032C279.068 229.407 278.993 229.743 278.845 230.041C278.701 230.339 278.481 230.576 278.183 230.752C277.891 230.928 277.535 231.017 277.117 231.017C276.549 231.017 276.105 230.89 275.786 230.636C275.466 230.383 275.243 230.033 275.116 229.586C274.989 229.14 274.926 228.589 274.926 227.933C274.926 225.91 275.631 224.899 277.042 224.899C277.582 224.899 278.007 225.045 278.315 225.337C278.624 225.629 278.806 225.998 278.861 226.445H278.167ZM277.042 227.676C276.805 227.676 276.582 227.726 276.373 227.825C276.163 227.919 275.992 228.065 275.86 228.263C275.733 228.456 275.67 228.693 275.67 228.974C275.67 229.393 275.791 229.735 276.034 230C276.276 230.259 276.623 230.388 277.075 230.388C277.461 230.388 277.767 230.27 277.993 230.033C278.224 229.79 278.34 229.465 278.34 229.057C278.34 228.627 278.23 228.291 278.009 228.048C277.789 227.8 277.467 227.676 277.042 227.676Z" fill="#747682"/>
<path d="M305.463 213.238V217.495C305.463 217.969 305.317 218.35 305.025 218.636C304.732 218.917 304.347 219.058 303.867 219.058C303.382 219.058 302.993 218.915 302.701 218.628C302.409 218.336 302.263 217.939 302.263 217.437H303.016C303.021 217.719 303.093 217.947 303.23 218.124C303.374 218.3 303.586 218.388 303.867 218.388C304.148 218.388 304.358 218.306 304.495 218.14C304.633 217.969 304.702 217.754 304.702 217.495V213.238H305.463ZM306.664 216.718C306.664 216.255 306.757 215.85 306.945 215.503C307.132 215.15 307.389 214.877 307.714 214.684C308.044 214.491 308.411 214.395 308.813 214.395C309.21 214.395 309.555 214.48 309.847 214.651C310.139 214.822 310.357 215.037 310.5 215.296V214.469H311.261V219H310.5V218.157C310.351 218.421 310.128 218.642 309.83 218.818C309.538 218.989 309.196 219.074 308.805 219.074C308.403 219.074 308.039 218.975 307.714 218.777C307.389 218.578 307.132 218.3 306.945 217.942C306.757 217.583 306.664 217.176 306.664 216.718ZM310.5 216.726C310.5 216.385 310.431 216.087 310.293 215.834C310.155 215.58 309.968 215.387 309.731 215.255C309.5 215.117 309.243 215.048 308.962 215.048C308.681 215.048 308.425 215.114 308.193 215.247C307.962 215.379 307.777 215.572 307.639 215.825C307.502 216.079 307.433 216.376 307.433 216.718C307.433 217.065 307.502 217.369 307.639 217.628C307.777 217.881 307.962 218.077 308.193 218.215C308.425 218.347 308.681 218.413 308.962 218.413C309.243 218.413 309.5 218.347 309.731 218.215C309.968 218.077 310.155 217.881 310.293 217.628C310.431 217.369 310.5 217.068 310.5 216.726ZM314.739 214.387C315.291 214.387 315.737 214.555 316.079 214.891C316.42 215.222 316.591 215.701 316.591 216.33V219H315.847V216.437C315.847 215.985 315.734 215.641 315.508 215.404C315.282 215.161 314.974 215.04 314.582 215.04C314.185 215.04 313.869 215.164 313.632 215.412C313.4 215.66 313.284 216.021 313.284 216.495V219H312.532V214.469H313.284V215.114C313.433 214.883 313.634 214.704 313.888 214.577C314.147 214.45 314.431 214.387 314.739 214.387ZM300 230.396C300.7 229.834 301.249 229.374 301.646 229.016C302.042 228.652 302.376 228.274 302.646 227.883C302.922 227.486 303.059 227.098 303.059 226.717C303.059 226.359 302.971 226.078 302.795 225.874C302.624 225.665 302.346 225.56 301.96 225.56C301.585 225.56 301.293 225.678 301.083 225.915C300.88 226.147 300.769 226.458 300.753 226.85H300.025C300.047 226.232 300.235 225.756 300.587 225.419C300.94 225.083 301.395 224.915 301.952 224.915C302.519 224.915 302.968 225.072 303.299 225.386C303.635 225.7 303.803 226.133 303.803 226.684C303.803 227.142 303.666 227.588 303.39 228.024C303.12 228.454 302.811 228.834 302.464 229.165C302.117 229.49 301.673 229.87 301.133 230.306H303.977V230.934H300V230.396ZM304.847 227.949C304.847 227.001 305.001 226.263 305.31 225.734C305.618 225.199 306.159 224.932 306.93 224.932C307.696 224.932 308.234 225.199 308.542 225.734C308.851 226.263 309.005 227.001 309.005 227.949C309.005 228.914 308.851 229.663 308.542 230.198C308.234 230.733 307.696 231 306.93 231C306.159 231 305.618 230.733 305.31 230.198C305.001 229.663 304.847 228.914 304.847 227.949ZM308.261 227.949C308.261 227.47 308.228 227.065 308.162 226.734C308.101 226.398 307.972 226.128 307.774 225.924C307.581 225.72 307.3 225.618 306.93 225.618C306.555 225.618 306.269 225.72 306.07 225.924C305.878 226.128 305.748 226.398 305.682 226.734C305.621 227.065 305.591 227.47 305.591 227.949C305.591 228.445 305.621 228.861 305.682 229.198C305.748 229.534 305.878 229.804 306.07 230.008C306.269 230.212 306.555 230.314 306.93 230.314C307.3 230.314 307.581 230.212 307.774 230.008C307.972 229.804 308.101 229.534 308.162 229.198C308.228 228.861 308.261 228.445 308.261 227.949ZM309.947 230.396C310.647 229.834 311.196 229.374 311.593 229.016C311.989 228.652 312.323 228.274 312.593 227.883C312.869 227.486 313.006 227.098 313.006 226.717C313.006 226.359 312.918 226.078 312.742 225.874C312.571 225.665 312.293 225.56 311.907 225.56C311.532 225.56 311.24 225.678 311.03 225.915C310.826 226.147 310.716 226.458 310.7 226.85H309.972C309.994 226.232 310.182 225.756 310.534 225.419C310.887 225.083 311.342 224.915 311.898 224.915C312.466 224.915 312.915 225.072 313.246 225.386C313.582 225.7 313.75 226.133 313.75 226.684C313.75 227.142 313.613 227.588 313.337 228.024C313.067 228.454 312.758 228.834 312.411 229.165C312.064 229.49 311.62 229.87 311.08 230.306H313.924V230.934H309.947V230.396ZM318.126 226.445C318.004 225.833 317.627 225.527 316.993 225.527C316.502 225.527 316.136 225.717 315.893 226.097C315.651 226.472 315.532 227.092 315.538 227.958C315.665 227.671 315.874 227.448 316.166 227.288C316.464 227.123 316.794 227.04 317.158 227.04C317.726 227.04 318.178 227.216 318.514 227.569C318.856 227.922 319.027 228.409 319.027 229.032C319.027 229.407 318.952 229.743 318.803 230.041C318.66 230.339 318.44 230.576 318.142 230.752C317.85 230.928 317.494 231.017 317.076 231.017C316.508 231.017 316.064 230.89 315.744 230.636C315.425 230.383 315.202 230.033 315.075 229.586C314.948 229.14 314.885 228.589 314.885 227.933C314.885 225.91 315.59 224.899 317.001 224.899C317.541 224.899 317.966 225.045 318.274 225.337C318.583 225.629 318.765 225.998 318.82 226.445H318.126ZM317.001 227.676C316.764 227.676 316.541 227.726 316.331 227.825C316.122 227.919 315.951 228.065 315.819 228.263C315.692 228.456 315.629 228.693 315.629 228.974C315.629 229.393 315.75 229.735 315.993 230C316.235 230.259 316.582 230.388 317.034 230.388C317.42 230.388 317.726 230.27 317.952 230.033C318.183 229.79 318.299 229.465 318.299 229.057C318.299 228.627 318.189 228.291 317.968 228.048C317.748 227.8 317.426 227.676 317.001 227.676Z" fill="#747682"/>
<path d="M342.524 213.238V213.849H340.019V215.792H342.052V216.404H340.019V219H339.266V213.238H342.524ZM347.566 216.561C347.566 216.704 347.558 216.856 347.541 217.016H343.92C343.948 217.462 344.099 217.812 344.375 218.066C344.656 218.314 344.995 218.438 345.392 218.438C345.717 218.438 345.987 218.363 346.202 218.215C346.422 218.06 346.577 217.856 346.665 217.603H347.475C347.354 218.038 347.111 218.394 346.748 218.669C346.384 218.939 345.932 219.074 345.392 219.074C344.962 219.074 344.576 218.978 344.234 218.785C343.898 218.592 343.633 218.319 343.441 217.967C343.248 217.608 343.151 217.195 343.151 216.726C343.151 216.258 343.245 215.847 343.432 215.495C343.62 215.142 343.881 214.872 344.218 214.684C344.559 214.491 344.951 214.395 345.392 214.395C345.822 214.395 346.202 214.489 346.533 214.676C346.863 214.863 347.117 215.123 347.293 215.453C347.475 215.778 347.566 216.148 347.566 216.561ZM346.789 216.404C346.789 216.117 346.725 215.872 346.599 215.668C346.472 215.459 346.298 215.302 346.078 215.197C345.863 215.087 345.623 215.032 345.359 215.032C344.978 215.032 344.653 215.153 344.383 215.395C344.118 215.638 343.967 215.974 343.928 216.404H346.789ZM349.311 215.313C349.466 215.043 349.692 214.822 349.989 214.651C350.287 214.48 350.626 214.395 351.006 214.395C351.414 214.395 351.781 214.491 352.106 214.684C352.431 214.877 352.687 215.15 352.875 215.503C353.062 215.85 353.156 216.255 353.156 216.718C353.156 217.176 353.062 217.583 352.875 217.942C352.687 218.3 352.428 218.578 352.098 218.777C351.772 218.975 351.409 219.074 351.006 219.074C350.615 219.074 350.27 218.989 349.973 218.818C349.681 218.647 349.46 218.43 349.311 218.165V219H348.559V212.882H349.311V215.313ZM352.387 216.718C352.387 216.376 352.318 216.079 352.18 215.825C352.042 215.572 351.855 215.379 351.618 215.247C351.387 215.114 351.13 215.048 350.849 215.048C350.574 215.048 350.317 215.117 350.08 215.255C349.849 215.387 349.661 215.583 349.518 215.842C349.38 216.095 349.311 216.39 349.311 216.726C349.311 217.068 349.38 217.369 349.518 217.628C349.661 217.881 349.849 218.077 350.08 218.215C350.317 218.347 350.574 218.413 350.849 218.413C351.13 218.413 351.387 218.347 351.618 218.215C351.855 218.077 352.042 217.881 352.18 217.628C352.318 217.369 352.387 217.065 352.387 216.718ZM336.516 230.396C337.216 229.834 337.764 229.374 338.161 229.016C338.558 228.652 338.892 228.274 339.162 227.883C339.437 227.486 339.575 227.098 339.575 226.717C339.575 226.359 339.487 226.078 339.31 225.874C339.14 225.665 338.861 225.56 338.475 225.56C338.101 225.56 337.809 225.678 337.599 225.915C337.395 226.147 337.285 226.458 337.268 226.85H336.541C336.563 226.232 336.75 225.756 337.103 225.419C337.456 225.083 337.91 224.915 338.467 224.915C339.035 224.915 339.484 225.072 339.815 225.386C340.151 225.7 340.319 226.133 340.319 226.684C340.319 227.142 340.181 227.588 339.906 228.024C339.636 228.454 339.327 228.834 338.98 229.165C338.633 229.49 338.189 229.87 337.649 230.306H340.493V230.934H336.516V230.396ZM341.362 227.949C341.362 227.001 341.517 226.263 341.825 225.734C342.134 225.199 342.674 224.932 343.446 224.932C344.212 224.932 344.749 225.199 345.058 225.734C345.367 226.263 345.521 227.001 345.521 227.949C345.521 228.914 345.367 229.663 345.058 230.198C344.749 230.733 344.212 231 343.446 231C342.674 231 342.134 230.733 341.825 230.198C341.517 229.663 341.362 228.914 341.362 227.949ZM344.777 227.949C344.777 227.47 344.744 227.065 344.678 226.734C344.617 226.398 344.488 226.128 344.289 225.924C344.096 225.72 343.815 225.618 343.446 225.618C343.071 225.618 342.784 225.72 342.586 225.924C342.393 226.128 342.264 226.398 342.197 226.734C342.137 227.065 342.107 227.47 342.107 227.949C342.107 228.445 342.137 228.861 342.197 229.198C342.264 229.534 342.393 229.804 342.586 230.008C342.784 230.212 343.071 230.314 343.446 230.314C343.815 230.314 344.096 230.212 344.289 230.008C344.488 229.804 344.617 229.534 344.678 229.198C344.744 228.861 344.777 228.445 344.777 227.949ZM346.463 230.396C347.163 229.834 347.711 229.374 348.108 229.016C348.505 228.652 348.838 228.274 349.109 227.883C349.384 227.486 349.522 227.098 349.522 226.717C349.522 226.359 349.434 226.078 349.257 225.874C349.087 225.665 348.808 225.56 348.422 225.56C348.048 225.56 347.755 225.678 347.546 225.915C347.342 226.147 347.232 226.458 347.215 226.85H346.488C346.51 226.232 346.697 225.756 347.05 225.419C347.403 225.083 347.857 224.915 348.414 224.915C348.982 224.915 349.431 225.072 349.762 225.386C350.098 225.7 350.266 226.133 350.266 226.684C350.266 227.142 350.128 227.588 349.853 228.024C349.583 228.454 349.274 228.834 348.927 229.165C348.579 229.49 348.136 229.87 347.596 230.306H350.44V230.934H346.463V230.396ZM354.641 226.445C354.52 225.833 354.142 225.527 353.509 225.527C353.018 225.527 352.651 225.717 352.409 226.097C352.166 226.472 352.048 227.092 352.053 227.958C352.18 227.671 352.39 227.448 352.682 227.288C352.979 227.123 353.31 227.04 353.674 227.04C354.242 227.04 354.694 227.216 355.03 227.569C355.371 227.922 355.542 228.409 355.542 229.032C355.542 229.407 355.468 229.743 355.319 230.041C355.176 230.339 354.955 230.576 354.658 230.752C354.366 230.928 354.01 231.017 353.591 231.017C353.023 231.017 352.58 230.89 352.26 230.636C351.94 230.383 351.717 230.033 351.59 229.586C351.464 229.14 351.4 228.589 351.4 227.933C351.4 225.91 352.106 224.899 353.517 224.899C354.057 224.899 354.481 225.045 354.79 225.337C355.099 225.629 355.281 225.998 355.336 226.445H354.641ZM353.517 227.676C353.28 227.676 353.057 227.726 352.847 227.825C352.638 227.919 352.467 228.065 352.335 228.263C352.208 228.456 352.144 228.693 352.144 228.974C352.144 229.393 352.266 229.735 352.508 230C352.751 230.259 353.098 230.388 353.55 230.388C353.936 230.388 354.242 230.27 354.468 230.033C354.699 229.79 354.815 229.465 354.815 229.057C354.815 228.627 354.705 228.291 354.484 228.048C354.264 227.8 353.941 227.676 353.517 227.676Z" fill="#747682"/>
<path d="M382.548 213.279V219H381.795V214.734L379.894 219H379.365L377.455 214.726V219H376.703V213.279H377.513L379.629 218.008L381.746 213.279H382.548ZM383.543 216.718C383.543 216.255 383.636 215.85 383.824 215.503C384.011 215.15 384.267 214.877 384.593 214.684C384.923 214.491 385.29 214.395 385.692 214.395C386.089 214.395 386.433 214.48 386.726 214.651C387.018 214.822 387.235 215.037 387.379 215.296V214.469H388.139V219H387.379V218.157C387.23 218.421 387.007 218.642 386.709 218.818C386.417 218.989 386.075 219.074 385.684 219.074C385.281 219.074 384.918 218.975 384.593 218.777C384.267 218.578 384.011 218.3 383.824 217.942C383.636 217.583 383.543 217.176 383.543 216.718ZM387.379 216.726C387.379 216.385 387.31 216.087 387.172 215.834C387.034 215.58 386.847 215.387 386.61 215.255C386.378 215.117 386.122 215.048 385.841 215.048C385.56 215.048 385.304 215.114 385.072 215.247C384.841 215.379 384.656 215.572 384.518 215.825C384.38 216.079 384.311 216.376 384.311 216.718C384.311 217.065 384.38 217.369 384.518 217.628C384.656 217.881 384.841 218.077 385.072 218.215C385.304 218.347 385.56 218.413 385.841 218.413C386.122 218.413 386.378 218.347 386.61 218.215C386.847 218.077 387.034 217.881 387.172 217.628C387.31 217.369 387.379 217.068 387.379 216.726ZM390.163 215.205C390.295 214.946 390.483 214.745 390.725 214.602C390.973 214.458 391.274 214.387 391.626 214.387V215.164H391.428C390.585 215.164 390.163 215.621 390.163 216.536V219H389.411V214.469H390.163V215.205ZM374.409 230.396C375.109 229.834 375.657 229.374 376.054 229.016C376.451 228.652 376.784 228.274 377.054 227.883C377.33 227.486 377.468 227.098 377.468 226.717C377.468 226.359 377.379 226.078 377.203 225.874C377.032 225.665 376.754 225.56 376.368 225.56C375.993 225.56 375.701 225.678 375.492 225.915C375.288 226.147 375.177 226.458 375.161 226.85H374.433C374.455 226.232 374.643 225.756 374.996 225.419C375.348 225.083 375.803 224.915 376.36 224.915C376.927 224.915 377.377 225.072 377.707 225.386C378.044 225.7 378.212 226.133 378.212 226.684C378.212 227.142 378.074 227.588 377.798 228.024C377.528 228.454 377.22 228.834 376.872 229.165C376.525 229.49 376.081 229.87 375.541 230.306H378.385V230.934H374.409V230.396ZM379.255 227.949C379.255 227.001 379.409 226.263 379.718 225.734C380.027 225.199 380.567 224.932 381.338 224.932C382.105 224.932 382.642 225.199 382.951 225.734C383.259 226.263 383.414 227.001 383.414 227.949C383.414 228.914 383.259 229.663 382.951 230.198C382.642 230.733 382.105 231 381.338 231C380.567 231 380.027 230.733 379.718 230.198C379.409 229.663 379.255 228.914 379.255 227.949ZM382.67 227.949C382.67 227.47 382.636 227.065 382.57 226.734C382.51 226.398 382.38 226.128 382.182 225.924C381.989 225.72 381.708 225.618 381.338 225.618C380.964 225.618 380.677 225.72 380.479 225.924C380.286 226.128 380.156 226.398 380.09 226.734C380.029 227.065 379.999 227.47 379.999 227.949C379.999 228.445 380.029 228.861 380.09 229.198C380.156 229.534 380.286 229.804 380.479 230.008C380.677 230.212 380.964 230.314 381.338 230.314C381.708 230.314 381.989 230.212 382.182 230.008C382.38 229.804 382.51 229.534 382.57 229.198C382.636 228.861 382.67 228.445 382.67 227.949ZM384.356 230.396C385.056 229.834 385.604 229.374 386.001 229.016C386.398 228.652 386.731 228.274 387.001 227.883C387.277 227.486 387.415 227.098 387.415 226.717C387.415 226.359 387.326 226.078 387.15 225.874C386.979 225.665 386.701 225.56 386.315 225.56C385.94 225.56 385.648 225.678 385.439 225.915C385.235 226.147 385.124 226.458 385.108 226.85H384.38C384.402 226.232 384.59 225.756 384.943 225.419C385.295 225.083 385.75 224.915 386.307 224.915C386.874 224.915 387.324 225.072 387.654 225.386C387.99 225.7 388.159 226.133 388.159 226.684C388.159 227.142 388.021 227.588 387.745 228.024C387.475 228.454 387.166 228.834 386.819 229.165C386.472 229.49 386.028 229.87 385.488 230.306H388.332V230.934H384.356V230.396ZM392.534 226.445C392.412 225.833 392.035 225.527 391.401 225.527C390.911 225.527 390.544 225.717 390.302 226.097C390.059 226.472 389.94 227.092 389.946 227.958C390.073 227.671 390.282 227.448 390.574 227.288C390.872 227.123 391.203 227.04 391.566 227.04C392.134 227.04 392.586 227.216 392.922 227.569C393.264 227.922 393.435 228.409 393.435 229.032C393.435 229.407 393.361 229.743 393.212 230.041C393.068 230.339 392.848 230.576 392.55 230.752C392.258 230.928 391.903 231.017 391.484 231.017C390.916 231.017 390.472 230.89 390.153 230.636C389.833 230.383 389.61 230.033 389.483 229.586C389.356 229.14 389.293 228.589 389.293 227.933C389.293 225.91 389.998 224.899 391.409 224.899C391.95 224.899 392.374 225.045 392.683 225.337C392.991 225.629 393.173 225.998 393.228 226.445H392.534ZM391.409 227.676C391.172 227.676 390.949 227.726 390.74 227.825C390.53 227.919 390.359 228.065 390.227 228.263C390.1 228.456 390.037 228.693 390.037 228.974C390.037 229.393 390.158 229.735 390.401 230C390.643 230.259 390.99 230.388 391.442 230.388C391.828 230.388 392.134 230.27 392.36 230.033C392.592 229.79 392.707 229.465 392.707 229.057C392.707 228.627 392.597 228.291 392.377 228.048C392.156 227.8 391.834 227.676 391.409 227.676Z" fill="#747682"/>
<rect x="49.1296" y="52.575" width="349.993" height="146.749" stroke="#F2F4FA" stroke-width="0.688963"/>
<path d="M48.7852 143.172H399.467" stroke="#F2F4FA" stroke-width="0.688963" stroke-dasharray="3.44 3.44"/>
<path d="M48.7852 124.57H399.467" stroke="#F2F4FA" stroke-width="0.688963" stroke-dasharray="3.44 3.44"/>
<path d="M48.7852 106.66H399.467" stroke="#F2F4FA" stroke-width="0.688963" stroke-dasharray="3.44 3.44"/>
<path d="M48.7852 88.75H399.467" stroke="#F2F4FA" stroke-width="0.688963" stroke-dasharray="3.44 3.44"/>
<path d="M48.7852 70.832H399.467" stroke="#F2F4FA" stroke-width="0.688963" stroke-dasharray="3.44 3.44"/>
<path d="M48.7852 161.773H399.467" stroke="#F2F4FA" stroke-width="0.688963" stroke-dasharray="3.44 3.44"/>
<path d="M48.7852 180.375H399.467" stroke="#F2F4FA" stroke-width="0.688963" stroke-dasharray="3.44 3.44"/>
<path d="M85.9883 52.2305L85.9883 198.98" stroke="#F2F4FA" stroke-width="0.688963" stroke-dasharray="3.44 3.44"/>
<path d="M123.193 52.2305L123.193 198.98" stroke="#F2F4FA" stroke-width="0.688963" stroke-dasharray="3.44 3.44"/>
<path d="M160.398 52.2305L160.398 198.98" stroke="#F2F4FA" stroke-width="0.688963" stroke-dasharray="3.44 3.44"/>
<path d="M197.604 52.2305L197.604 198.98" stroke="#F2F4FA" stroke-width="0.688963" stroke-dasharray="3.44 3.44"/>
<path d="M234.805 52.2305L234.805 198.98" stroke="#F2F4FA" stroke-width="0.688963" stroke-dasharray="3.44 3.44"/>
<path d="M272.01 52.2305L272.01 198.98" stroke="#F2F4FA" stroke-width="0.688963" stroke-dasharray="3.44 3.44"/>
<path d="M309.213 52.2305L309.213 198.98" stroke="#F2F4FA" stroke-width="0.688963" stroke-dasharray="3.44 3.44"/>
<path d="M346.418 52.2305L346.418 198.98" stroke="#F2F4FA" stroke-width="0.688963" stroke-dasharray="3.44 3.44"/>
<path d="M383.621 52.2305L383.621 198.98" stroke="#F2F4FA" stroke-width="0.688963" stroke-dasharray="3.44 3.44"/>
<path d="M34.3694 199.593C34.3694 198.487 34.5495 197.625 34.9096 197.008C35.2697 196.384 35.8998 196.073 36.8001 196.073C37.6939 196.073 38.3208 196.384 38.6809 197.008C39.041 197.625 39.2211 198.487 39.2211 199.593C39.2211 200.718 39.041 201.593 38.6809 202.217C38.3208 202.84 37.6939 203.152 36.8001 203.152C35.8998 203.152 35.2697 202.84 34.9096 202.217C34.5495 201.593 34.3694 200.718 34.3694 199.593ZM38.353 199.593C38.353 199.034 38.3144 198.561 38.2373 198.175C38.1665 197.783 38.0154 197.468 37.7839 197.23C37.5589 196.992 37.2309 196.873 36.8001 196.873C36.3628 196.873 36.0284 196.992 35.7969 197.23C35.5719 197.468 35.4208 197.783 35.3436 198.175C35.2729 198.561 35.2375 199.034 35.2375 199.593C35.2375 200.172 35.2729 200.657 35.3436 201.05C35.4208 201.442 35.5719 201.757 35.7969 201.995C36.0284 202.233 36.3628 202.352 36.8001 202.352C37.2309 202.352 37.5589 202.233 37.7839 201.995C38.0154 201.757 38.1665 201.442 38.2373 201.05C38.3144 200.657 38.353 200.172 38.353 199.593Z" fill="#747682"/>
<path d="M29.1838 182.994V182.328L32.5693 177.641H33.6207V182.232H34.5852V182.994H33.6207V184.547H32.7526V182.994H29.1838ZM32.7912 178.557L30.1965 182.232H32.7912V178.557ZM38.5583 184.547L36.4845 182.213V184.547H35.6067V177.409H36.4845V181.605L38.5197 179.261H39.7447L37.2561 181.894L39.7543 184.547H38.5583Z" fill="#747682"/>
<path d="M30.6503 162.323C30.2902 162.181 30.0137 161.975 29.8208 161.705C29.6279 161.435 29.5314 161.107 29.5314 160.721C29.5314 160.374 29.6183 160.062 29.7919 159.786C29.9655 159.503 30.2227 159.281 30.5635 159.12C30.9108 158.953 31.3287 158.869 31.8174 158.869C32.3061 158.869 32.7209 158.953 33.0617 159.12C33.4089 159.281 33.6694 159.503 33.843 159.786C34.023 160.062 34.1131 160.374 34.1131 160.721C34.1131 161.094 34.0134 161.422 33.814 161.705C33.6147 161.982 33.3414 162.187 32.9942 162.323C33.3929 162.445 33.7079 162.66 33.9394 162.969C34.1774 163.271 34.2963 163.638 34.2963 164.068C34.2963 164.486 34.1934 164.853 33.9877 165.168C33.7819 165.477 33.4893 165.718 33.1099 165.891C32.737 166.059 32.3061 166.142 31.8174 166.142C31.3287 166.142 30.8979 166.059 30.5249 165.891C30.1584 165.718 29.8723 165.477 29.6665 165.168C29.4607 164.853 29.3578 164.486 29.3578 164.068C29.3578 163.638 29.4736 163.268 29.7051 162.959C29.9366 162.65 30.2516 162.438 30.6503 162.323ZM33.2643 160.827C33.2643 160.435 33.1356 160.133 32.8784 159.921C32.6212 159.709 32.2676 159.602 31.8174 159.602C31.3737 159.602 31.0233 159.709 30.7661 159.921C30.5089 160.133 30.3803 160.438 30.3803 160.837C30.3803 161.197 30.5121 161.487 30.7757 161.705C31.0458 161.924 31.393 162.033 31.8174 162.033C32.2483 162.033 32.5955 161.924 32.8591 161.705C33.1292 161.48 33.2643 161.188 33.2643 160.827ZM31.8174 162.708C31.3416 162.708 30.9525 162.821 30.6503 163.046C30.3481 163.265 30.197 163.596 30.197 164.039C30.197 164.451 30.3417 164.782 30.631 165.033C30.9268 165.284 31.3223 165.409 31.8174 165.409C32.3126 165.409 32.7048 165.284 32.9942 165.033C33.2835 164.782 33.4282 164.451 33.4282 164.039C33.4282 163.609 33.2803 163.281 32.9845 163.056C32.6887 162.824 32.2997 162.708 31.8174 162.708ZM38.5583 165.949L36.4845 163.615V165.949H35.6067V158.812H36.4845V163.007L38.5197 160.663H39.7447L37.2561 163.297L39.7543 165.949H38.5583Z" fill="#747682"/>
<path d="M26.0184 141.171V140.37H27.8317V147.344H26.9443V141.171H26.0184ZM33.2266 142.029C33.0851 141.315 32.6446 140.958 31.9051 140.958C31.3328 140.958 30.9052 141.18 30.6223 141.624C30.3394 142.061 30.2011 142.785 30.2075 143.794C30.3554 143.46 30.5998 143.199 30.9406 143.013C31.2878 142.82 31.6737 142.724 32.0981 142.724C32.7604 142.724 33.2877 142.929 33.6799 143.341C34.0786 143.752 34.2779 144.321 34.2779 145.048C34.2779 145.485 34.1911 145.878 34.0175 146.225C33.8503 146.572 33.5931 146.849 33.2459 147.054C32.9051 147.26 32.4903 147.363 32.0016 147.363C31.3393 147.363 30.8216 147.215 30.4487 146.919C30.0757 146.624 29.8153 146.215 29.6674 145.694C29.5195 145.174 29.4455 144.53 29.4455 143.765C29.4455 141.405 30.2686 140.225 31.9148 140.225C32.545 140.225 33.0401 140.396 33.4002 140.737C33.7603 141.077 33.9725 141.508 34.0368 142.029H33.2266ZM31.9148 143.466C31.6383 143.466 31.3779 143.524 31.1335 143.64C30.8892 143.749 30.6898 143.92 30.5355 144.151C30.3876 144.376 30.3136 144.653 30.3136 144.981C30.3136 145.469 30.4551 145.868 30.738 146.177C31.021 146.479 31.4261 146.63 31.9534 146.63C32.4035 146.63 32.7604 146.492 33.024 146.215C33.2941 145.932 33.4291 145.553 33.4291 145.077C33.4291 144.575 33.3005 144.183 33.0433 143.9C32.7861 143.611 32.4099 143.466 31.9148 143.466ZM38.5583 147.344L36.4845 145.01V147.344H35.6067V140.206H36.4845V144.402L38.5197 142.058H39.7447L37.2561 144.691L39.7543 147.344H38.5583Z" fill="#747682"/>
<path d="M23.7418 128.038C24.5585 127.382 25.1983 126.845 25.6613 126.427C26.1243 126.003 26.5133 125.562 26.8284 125.106C27.1499 124.643 27.3107 124.19 27.3107 123.746C27.3107 123.328 27.2078 123 27.002 122.762C26.8027 122.518 26.4779 122.395 26.0278 122.395C25.5905 122.395 25.2497 122.534 25.0054 122.81C24.7675 123.08 24.6389 123.444 24.6196 123.9H23.7708C23.7965 123.18 24.0151 122.624 24.4267 122.231C24.8382 121.839 25.3687 121.643 26.0182 121.643C26.6805 121.643 27.2046 121.826 27.5904 122.193C27.9826 122.559 28.1787 123.064 28.1787 123.707C28.1787 124.241 28.018 124.762 27.6965 125.27C27.3814 125.771 27.0213 126.215 26.6162 126.601C26.2111 126.98 25.6934 127.424 25.0633 127.932H28.3813V128.665H23.7418V128.038ZM29.1838 127.189V126.524L32.5693 121.836H33.6207V126.427H34.5852V127.189H33.6207V128.742H32.7526V127.189H29.1838ZM32.7912 122.752L30.1965 126.427H32.7912V122.752ZM38.5583 128.742L36.4845 126.408V128.742H35.6067V121.605H36.4845V125.8L38.5197 123.456H39.7447L37.2561 126.09L39.7543 128.742H38.5583Z" fill="#747682"/>
<path d="M24.2148 104.922C24.2598 104.331 24.4881 103.868 24.8997 103.533C25.3112 103.199 25.8449 103.032 26.5008 103.032C26.9381 103.032 27.3142 103.112 27.6293 103.273C27.9508 103.427 28.192 103.64 28.3527 103.91C28.5199 104.18 28.6035 104.485 28.6035 104.826C28.6035 105.225 28.4878 105.569 28.2563 105.858C28.0312 106.147 27.7354 106.334 27.3689 106.417V106.466C27.7869 106.569 28.118 106.771 28.3624 107.073C28.6067 107.376 28.7289 107.771 28.7289 108.26C28.7289 108.626 28.6453 108.957 28.4781 109.253C28.3109 109.543 28.0602 109.771 27.7258 109.938C27.3914 110.105 26.9895 110.189 26.5201 110.189C25.8385 110.189 25.279 110.012 24.8418 109.658C24.4045 109.298 24.1602 108.79 24.1087 108.134H24.9575C25.0025 108.52 25.1601 108.835 25.4302 109.08C25.7002 109.324 26.0603 109.446 26.5105 109.446C26.9606 109.446 27.3014 109.33 27.5329 109.099C27.7708 108.861 27.8898 108.556 27.8898 108.183C27.8898 107.7 27.729 107.353 27.4075 107.141C27.086 106.929 26.6005 106.823 25.951 106.823H25.7292V106.09H25.9607C26.5522 106.083 26.9992 105.987 27.3014 105.8C27.6036 105.607 27.7547 105.311 27.7547 104.913C27.7547 104.572 27.6422 104.299 27.4171 104.093C27.1985 103.887 26.8834 103.784 26.4719 103.784C26.0732 103.784 25.7517 103.887 25.5073 104.093C25.263 104.299 25.1183 104.575 25.0733 104.922H24.2148ZM29.8079 109.437C30.6246 108.781 31.2644 108.244 31.7274 107.826C32.1904 107.401 32.5794 106.961 32.8945 106.504C33.216 106.041 33.3768 105.588 33.3768 105.144C33.3768 104.726 33.2739 104.398 33.0681 104.16C32.8688 103.916 32.544 103.794 32.0939 103.794C31.6566 103.794 31.3158 103.932 31.0715 104.209C30.8336 104.479 30.705 104.842 30.6857 105.299H29.8369C29.8626 104.578 30.0812 104.022 30.4928 103.63C30.9043 103.238 31.4348 103.042 32.0843 103.042C32.7466 103.042 33.2707 103.225 33.6565 103.591C34.0487 103.958 34.2449 104.463 34.2449 105.106C34.2449 105.639 34.0841 106.16 33.7626 106.668C33.4475 107.17 33.0874 107.614 32.6823 107.999C32.2772 108.379 31.7595 108.822 31.1294 109.33H34.4474V110.063H29.8079V109.437ZM38.5583 110.141L36.4845 107.806V110.141H35.6067V103.003H36.4845V107.199L38.5197 104.855H39.7447L37.2561 107.488L39.7543 110.141H38.5583Z" fill="#747682"/>
<path d="M23.1271 89.9822V89.3167L26.5126 84.629H27.564V89.2202H28.5285V89.9822H27.564V91.5352H26.6959V89.9822H23.1271ZM26.7345 85.5453L24.1398 89.2202H26.7345V85.5453ZM29.4054 87.976C29.4054 86.87 29.5854 86.0083 29.9455 85.391C30.3056 84.7672 30.9358 84.4554 31.836 84.4554C32.7299 84.4554 33.3568 84.7672 33.7169 85.391C34.077 86.0083 34.2571 86.87 34.2571 87.976C34.2571 89.1013 34.077 89.9758 33.7169 90.5995C33.3568 91.2233 32.7299 91.5352 31.836 91.5352C30.9358 91.5352 30.3056 91.2233 29.9455 90.5995C29.5854 89.9758 29.4054 89.1013 29.4054 87.976ZM33.389 87.976C33.389 87.4165 33.3504 86.9439 33.2732 86.5581C33.2025 86.1658 33.0514 85.8507 32.8199 85.6128C32.5948 85.3749 32.2669 85.2559 31.836 85.2559C31.3988 85.2559 31.0644 85.3749 30.8329 85.6128C30.6079 85.8507 30.4567 86.1658 30.3796 86.5581C30.3088 86.9439 30.2735 87.4165 30.2735 87.976C30.2735 88.5547 30.3088 89.0402 30.3796 89.4324C30.4567 89.8247 30.6079 90.1398 30.8329 90.3777C31.0644 90.6156 31.3988 90.7346 31.836 90.7346C32.2669 90.7346 32.5948 90.6156 32.8199 90.3777C33.0514 90.1398 33.2025 89.8247 33.2732 89.4324C33.3504 89.0402 33.389 88.5547 33.389 87.976ZM38.5583 91.5352L36.4845 89.2009V91.5352H35.6067V84.3975H36.4845V88.5933L38.5197 86.2494H39.7447L37.2561 88.8826L39.7543 91.5352H38.5583Z" fill="#747682"/>
<path d="M23.0988 71.3846V70.719L26.4844 66.0313H27.5357V70.6226H28.5003V71.3846H27.5357V72.9375H26.6676V71.3846H23.0988ZM26.7062 66.9477L24.1116 70.6226H26.7062V66.9477ZM30.6503 69.3108C30.2902 69.1693 30.0137 68.9636 29.8208 68.6935C29.6279 68.4234 29.5314 68.0955 29.5314 67.7096C29.5314 67.3624 29.6183 67.0505 29.7919 66.774C29.9655 66.4911 30.2227 66.2693 30.5635 66.1085C30.9108 65.9413 31.3287 65.8577 31.8174 65.8577C32.3061 65.8577 32.7209 65.9413 33.0617 66.1085C33.4089 66.2693 33.6694 66.4911 33.843 66.774C34.023 67.0505 34.1131 67.3624 34.1131 67.7096C34.1131 68.0826 34.0134 68.4106 33.814 68.6935C33.6147 68.97 33.3414 69.1758 32.9942 69.3108C33.3929 69.433 33.7079 69.6484 33.9394 69.957C34.1774 70.2593 34.2963 70.6258 34.2963 71.0566C34.2963 71.4746 34.1934 71.8411 33.9877 72.1562C33.7819 72.4649 33.4893 72.706 33.1099 72.8796C32.737 73.0468 32.3061 73.1304 31.8174 73.1304C31.3287 73.1304 30.8979 73.0468 30.5249 72.8796C30.1584 72.706 29.8723 72.4649 29.6665 72.1562C29.4607 71.8411 29.3578 71.4746 29.3578 71.0566C29.3578 70.6258 29.4736 70.2561 29.7051 69.9474C29.9366 69.6387 30.2516 69.4265 30.6503 69.3108ZM33.2643 67.8157C33.2643 67.4235 33.1356 67.1213 32.8784 66.9091C32.6212 66.6969 32.2676 66.5908 31.8174 66.5908C31.3737 66.5908 31.0233 66.6969 30.7661 66.9091C30.5089 67.1213 30.3803 67.4267 30.3803 67.8254C30.3803 68.1855 30.5121 68.4749 30.7757 68.6935C31.0458 68.9121 31.393 69.0214 31.8174 69.0214C32.2483 69.0214 32.5955 68.9121 32.8591 68.6935C33.1292 68.4684 33.2643 68.1758 33.2643 67.8157ZM31.8174 69.6966C31.3416 69.6966 30.9525 69.8091 30.6503 70.0342C30.3481 70.2528 30.197 70.584 30.197 71.0277C30.197 71.4392 30.3417 71.7704 30.631 72.0212C30.9268 72.272 31.3223 72.3974 31.8174 72.3974C32.3126 72.3974 32.7048 72.272 32.9942 72.0212C33.2835 71.7704 33.4282 71.4392 33.4282 71.0277C33.4282 70.5969 33.2803 70.2689 32.9845 70.0439C32.6887 69.8124 32.2997 69.6966 31.8174 69.6966ZM38.5583 72.9375L36.4845 70.6033V72.9375H35.6067V65.7998H36.4845V69.9956L38.5197 67.6518H39.7447L37.2561 70.285L39.7543 72.9375H38.5583Z" fill="#747682"/>
<path d="M398.431 198.291L50.1602 53.9531V198.635L398.431 198.291Z" fill="url(#paint0_linear_1091_8395)" fill-opacity="0.1" stroke="url(#paint1_linear_1091_8395)" stroke-width="1.37793"/>
<path d="M152.638 30.6199C153.152 30.7117 153.589 30.9827 153.947 31.4328C154.305 31.883 154.484 32.3928 154.484 32.9623C154.484 33.4492 154.356 33.8901 154.099 34.2851C153.851 34.671 153.488 34.9787 153.01 35.2084C152.532 35.4288 151.977 35.5391 151.343 35.5391H147.512V25.9625H151.164C151.816 25.9625 152.376 26.0727 152.845 26.2932C153.313 26.5136 153.667 26.8122 153.906 27.1888C154.145 27.5563 154.264 27.9697 154.264 28.429C154.264 28.9801 154.117 29.4394 153.823 29.8069C153.529 30.1743 153.134 30.4453 152.638 30.6199ZM149.083 29.986H151.026C151.54 29.986 151.94 29.8712 152.225 29.6415C152.519 29.4027 152.666 29.0628 152.666 28.6219C152.666 28.1901 152.519 27.8548 152.225 27.616C151.94 27.368 151.54 27.2439 151.026 27.2439H149.083V29.986ZM151.205 34.2576C151.738 34.2576 152.156 34.129 152.459 33.8718C152.762 33.6146 152.914 33.2563 152.914 32.797C152.914 32.3285 152.753 31.9565 152.431 31.6809C152.11 31.4053 151.683 31.2675 151.15 31.2675H149.083V34.2576H151.205ZM155.668 31.7084C155.668 30.946 155.824 30.2708 156.136 29.6829C156.458 29.095 156.89 28.6402 157.432 28.3187C157.983 27.988 158.589 27.8227 159.25 27.8227C159.848 27.8227 160.367 27.9421 160.807 28.1809C161.258 28.4106 161.616 28.7 161.882 29.049V27.9467H163.467V35.5391H161.882V34.4092C161.616 34.7674 161.253 35.066 160.794 35.3048C160.334 35.5437 159.811 35.6631 159.223 35.6631C158.571 35.6631 157.974 35.4977 157.432 35.167C156.89 34.8271 156.458 34.3586 156.136 33.7615C155.824 33.1552 155.668 32.4709 155.668 31.7084ZM161.882 31.736C161.882 31.2124 161.772 30.7577 161.552 30.3718C161.34 29.986 161.06 29.6921 160.711 29.49C160.362 29.2879 159.985 29.1868 159.581 29.1868C159.177 29.1868 158.8 29.2879 158.451 29.49C158.102 29.6829 157.817 29.9722 157.597 30.3581C157.386 30.7347 157.28 31.1848 157.28 31.7084C157.28 32.232 157.386 32.6913 157.597 33.0864C157.817 33.4814 158.102 33.7845 158.451 33.9958C158.809 34.1979 159.186 34.2989 159.581 34.2989C159.985 34.2989 160.362 34.1979 160.711 33.9958C161.06 33.7937 161.34 33.4997 161.552 33.1139C161.772 32.7189 161.882 32.2596 161.882 31.736ZM167.101 25.3424V35.5391H165.53V25.3424H167.101ZM168.64 31.7084C168.64 30.946 168.796 30.2708 169.108 29.6829C169.43 29.095 169.861 28.6402 170.403 28.3187C170.955 27.988 171.561 27.8227 172.222 27.8227C172.819 27.8227 173.338 27.9421 173.779 28.1809C174.229 28.4106 174.588 28.7 174.854 29.049V27.9467H176.439V35.5391H174.854V34.4092C174.588 34.7674 174.225 35.066 173.766 35.3048C173.306 35.5437 172.783 35.6631 172.195 35.6631C171.543 35.6631 170.945 35.4977 170.403 35.167C169.861 34.8271 169.43 34.3586 169.108 33.7615C168.796 33.1552 168.64 32.4709 168.64 31.7084ZM174.854 31.736C174.854 31.2124 174.744 30.7577 174.523 30.3718C174.312 29.986 174.032 29.6921 173.683 29.49C173.334 29.2879 172.957 29.1868 172.553 29.1868C172.149 29.1868 171.772 29.2879 171.423 29.49C171.074 29.6829 170.789 29.9722 170.569 30.3581C170.358 30.7347 170.252 31.1848 170.252 31.7084C170.252 32.232 170.358 32.6913 170.569 33.0864C170.789 33.4814 171.074 33.7845 171.423 33.9958C171.781 34.1979 172.158 34.2989 172.553 34.2989C172.957 34.2989 173.334 34.1979 173.683 33.9958C174.032 33.7937 174.312 33.4997 174.523 33.1139C174.744 32.7189 174.854 32.2596 174.854 31.736ZM182.333 27.8227C182.93 27.8227 183.463 27.9467 183.931 28.1947C184.409 28.4427 184.781 28.8102 185.047 29.2971C185.314 29.7839 185.447 30.3718 185.447 31.0608V35.5391H183.89V31.295C183.89 30.6153 183.72 30.0963 183.38 29.738C183.04 29.3705 182.576 29.1868 181.988 29.1868C181.4 29.1868 180.932 29.3705 180.583 29.738C180.243 30.0963 180.073 30.6153 180.073 31.295V35.5391H178.502V27.9467H180.073V28.8148C180.33 28.5025 180.656 28.259 181.051 28.0845C181.455 27.9099 181.883 27.8227 182.333 27.8227ZM186.927 31.736C186.927 30.9552 187.083 30.2708 187.395 29.6829C187.717 29.0858 188.158 28.6265 188.718 28.3049C189.278 27.9834 189.922 27.8227 190.647 27.8227C191.566 27.8227 192.324 28.0431 192.921 28.4841C193.527 28.9158 193.936 29.5359 194.147 30.3443H192.452C192.315 29.9676 192.094 29.6737 191.791 29.4624C191.488 29.2511 191.107 29.1455 190.647 29.1455C190.004 29.1455 189.49 29.3751 189.104 29.8344C188.727 30.2846 188.539 30.9184 188.539 31.736C188.539 32.5536 188.727 33.192 189.104 33.6513C189.49 34.1106 190.004 34.3403 190.647 34.3403C191.557 34.3403 192.158 33.9407 192.452 33.1415H194.147C193.927 33.9131 193.513 34.5286 192.907 34.9879C192.301 35.438 191.547 35.6631 190.647 35.6631C189.922 35.6631 189.278 35.5023 188.718 35.1808C188.158 34.8501 187.717 34.3908 187.395 33.8029C187.083 33.2058 186.927 32.5168 186.927 31.736ZM202.671 31.5569C202.671 31.8416 202.653 32.0988 202.616 32.3285H196.815C196.861 32.9348 197.086 33.4216 197.49 33.7891C197.894 34.1565 198.39 34.3403 198.978 34.3403C199.823 34.3403 200.421 33.9866 200.77 33.2793H202.464C202.235 33.9774 201.817 34.5515 201.211 35.0017C200.613 35.4426 199.869 35.6631 198.978 35.6631C198.253 35.6631 197.6 35.5023 197.022 35.1808C196.452 34.8501 196.002 34.3908 195.671 33.8029C195.35 33.2058 195.189 32.5168 195.189 31.736C195.189 30.9552 195.345 30.2708 195.658 29.6829C195.979 29.0858 196.425 28.6265 196.994 28.3049C197.573 27.9834 198.234 27.8227 198.978 27.8227C199.695 27.8227 200.333 27.9788 200.894 28.2912C201.454 28.6035 201.89 29.0444 202.203 29.614C202.515 30.1743 202.671 30.822 202.671 31.5569ZM201.031 31.0608C201.022 30.4821 200.816 30.0182 200.411 29.6691C200.007 29.32 199.507 29.1455 198.909 29.1455C198.367 29.1455 197.904 29.32 197.518 29.6691C197.132 30.009 196.902 30.4729 196.829 31.0608H201.031ZM211.09 35.6631C210.373 35.6631 209.725 35.5023 209.147 35.1808C208.568 34.8501 208.113 34.3908 207.783 33.8029C207.452 33.2058 207.287 32.5168 207.287 31.736C207.287 30.9643 207.457 30.28 207.796 29.6829C208.136 29.0858 208.6 28.6265 209.188 28.3049C209.776 27.9834 210.433 27.8227 211.159 27.8227C211.884 27.8227 212.541 27.9834 213.129 28.3049C213.717 28.6265 214.181 29.0858 214.521 29.6829C214.861 30.28 215.031 30.9643 215.031 31.736C215.031 32.5076 214.856 33.192 214.507 33.7891C214.158 34.3862 213.68 34.8501 213.074 35.1808C212.477 35.5023 211.815 35.6631 211.09 35.6631ZM211.09 34.2989C211.494 34.2989 211.87 34.2025 212.22 34.0096C212.578 33.8167 212.867 33.5273 213.088 33.1415C213.308 32.7557 213.418 32.2872 213.418 31.736C213.418 31.1848 213.313 30.7209 213.101 30.3443C212.89 29.9585 212.61 29.6691 212.261 29.4762C211.912 29.2833 211.535 29.1868 211.131 29.1868C210.727 29.1868 210.35 29.2833 210.001 29.4762C209.661 29.6691 209.39 29.9585 209.188 30.3443C208.986 30.7209 208.885 31.1848 208.885 31.736C208.885 32.5536 209.092 33.1874 209.505 33.6375C209.928 34.0785 210.456 34.2989 211.09 34.2989ZM219.518 34.1336L221.668 27.9467H223.335L220.442 35.5391H218.568L215.688 27.9467H217.369L219.518 34.1336ZM231.481 31.5569C231.481 31.8416 231.463 32.0988 231.426 32.3285H225.625C225.671 32.9348 225.896 33.4216 226.3 33.7891C226.704 34.1565 227.2 34.3403 227.788 34.3403C228.633 34.3403 229.231 33.9866 229.58 33.2793H231.274C231.045 33.9774 230.627 34.5515 230.021 35.0017C229.423 35.4426 228.679 35.6631 227.788 35.6631C227.063 35.6631 226.41 35.5023 225.832 35.1808C225.262 34.8501 224.812 34.3908 224.481 33.8029C224.16 33.2058 223.999 32.5168 223.999 31.736C223.999 30.9552 224.155 30.2708 224.467 29.6829C224.789 29.0858 225.235 28.6265 225.804 28.3049C226.383 27.9834 227.044 27.8227 227.788 27.8227C228.505 27.8227 229.143 27.9788 229.704 28.2912C230.264 28.6035 230.7 29.0444 231.013 29.614C231.325 30.1743 231.481 30.822 231.481 31.5569ZM229.841 31.0608C229.832 30.4821 229.626 30.0182 229.221 29.6691C228.817 29.32 228.316 29.1455 227.719 29.1455C227.177 29.1455 226.713 29.32 226.328 29.6691C225.942 30.009 225.712 30.4729 225.639 31.0608H229.841ZM234.598 29.049C234.827 28.6632 235.131 28.3647 235.507 28.1534C235.893 27.9329 236.348 27.8227 236.871 27.8227V29.4486H236.472C235.856 29.4486 235.388 29.6048 235.066 29.9171C234.754 30.2295 234.598 30.7714 234.598 31.5431V35.5391H233.027V27.9467H234.598V29.049ZM243.727 29.2282V33.4308C243.727 33.7156 243.792 33.9223 243.92 34.0509C244.058 34.1703 244.288 34.23 244.609 34.23H245.574V35.5391H244.334C243.626 35.5391 243.084 35.3737 242.708 35.043C242.331 34.7123 242.143 34.1749 242.143 33.4308V29.2282H241.247V27.9467H242.143V26.0589H243.727V27.9467H245.574V29.2282H243.727ZM247.821 26.9408C247.536 26.9408 247.297 26.8443 247.104 26.6514C246.911 26.4585 246.815 26.2197 246.815 25.9349C246.815 25.6501 246.911 25.4113 247.104 25.2184C247.297 25.0255 247.536 24.929 247.821 24.929C248.096 24.929 248.331 25.0255 248.523 25.2184C248.716 25.4113 248.813 25.6501 248.813 25.9349C248.813 26.2197 248.716 26.4585 248.523 26.6514C248.331 26.8443 248.096 26.9408 247.821 26.9408ZM248.592 27.9467V35.5391H247.022V27.9467H248.592ZM259.846 27.8227C260.443 27.8227 260.975 27.9467 261.444 28.1947C261.922 28.4427 262.294 28.8102 262.56 29.2971C262.836 29.7839 262.973 30.3718 262.973 31.0608V35.5391H261.416V31.295C261.416 30.6153 261.246 30.0963 260.907 29.738C260.567 29.3705 260.103 29.1868 259.515 29.1868C258.927 29.1868 258.458 29.3705 258.109 29.738C257.769 30.0963 257.6 30.6153 257.6 31.295V35.5391H256.042V31.295C256.042 30.6153 255.873 30.0963 255.533 29.738C255.193 29.3705 254.729 29.1868 254.141 29.1868C253.553 29.1868 253.084 29.3705 252.735 29.738C252.396 30.0963 252.226 30.6153 252.226 31.295V35.5391H250.655V27.9467H252.226V28.8148C252.483 28.5025 252.809 28.259 253.204 28.0845C253.599 27.9099 254.021 27.8227 254.472 27.8227C255.078 27.8227 255.62 27.9513 256.098 28.2085C256.575 28.4657 256.943 28.8377 257.2 29.3246C257.43 28.8653 257.788 28.5025 258.275 28.2361C258.762 27.9605 259.285 27.8227 259.846 27.8227ZM271.931 31.5569C271.931 31.8416 271.912 32.0988 271.876 32.3285H266.075C266.121 32.9348 266.346 33.4216 266.75 33.7891C267.154 34.1565 267.65 34.3403 268.238 34.3403C269.083 34.3403 269.68 33.9866 270.029 33.2793H271.724C271.494 33.9774 271.076 34.5515 270.47 35.0017C269.873 35.4426 269.129 35.6631 268.238 35.6631C267.512 35.6631 266.86 35.5023 266.281 35.1808C265.712 34.8501 265.262 34.3908 264.931 33.8029C264.609 33.2058 264.449 32.5168 264.449 31.736C264.449 30.9552 264.605 30.2708 264.917 29.6829C265.239 29.0858 265.684 28.6265 266.254 28.3049C266.832 27.9834 267.494 27.8227 268.238 27.8227C268.954 27.8227 269.593 27.9788 270.153 28.2912C270.714 28.6035 271.15 29.0444 271.462 29.614C271.775 30.1743 271.931 30.822 271.931 31.5569ZM270.291 31.0608C270.282 30.4821 270.075 30.0182 269.671 29.6691C269.267 29.32 268.766 29.1455 268.169 29.1455C267.627 29.1455 267.163 29.32 266.777 29.6691C266.392 30.009 266.162 30.4729 266.088 31.0608H270.291Z" fill="#747682"/>
</g>
<defs>
<filter id="filter0_d_1091_8395" x="0.117786" y="0.117786" width="419.764" height="255.102" filterUnits="userSpaceOnUse" color-interpolation-filters="sRGB">
<feFlood flood-opacity="0" result="BackgroundImageFix"/>
<feColorMatrix in="SourceAlpha" type="matrix" values="0 0 0 0 0 0 0 0 0 0 0 0 0 0 0 0 0 0 127 0" result="hardAlpha"/>
<feOffset/>
<feGaussianBlur stdDeviation="1.94111"/>
<feComposite in2="hardAlpha" operator="out"/>
<feColorMatrix type="matrix" values="0 0 0 0 0 0 0 0 0 0 0 0 0 0 0 0 0 0 0.1 0"/>
<feBlend mode="normal" in2="BackgroundImageFix" result="effect1_dropShadow_1091_8395"/>
<feBlend mode="normal" in="SourceGraphic" in2="effect1_dropShadow_1091_8395" result="shape"/>
</filter>
<linearGradient id="paint0_linear_1091_8395" x1="50.1602" y1="54.2976" x2="398.087" y2="198.98" gradientUnits="userSpaceOnUse">
<stop stop-color="#8833FF"/>
<stop offset="1" stop-color="#8833FF" stop-opacity="0"/>
</linearGradient>
<linearGradient id="paint1_linear_1091_8395" x1="214.133" y1="122.16" x2="398.087" y2="198.98" gradientUnits="userSpaceOnUse">
<stop stop-color="#8833FF"/>
<stop offset="1" stop-color="#8833FF" stop-opacity="0"/>
</linearGradient>
</defs>
</svg>
