<svg width="64" height="64" viewBox="0 0 64 64" fill="none" xmlns="http://www.w3.org/2000/svg">
<path d="M34.7999 43.3339H29.7866C26.24 43.3339 23.3333 40.3473 23.3333 36.6673C23.3333 35.5739 24.2399 34.6673 25.3333 34.6673C26.4266 34.6673 27.3333 35.5739 27.3333 36.6673C27.3333 38.1339 28.4266 39.3339 29.7866 39.3339H34.7999C35.8399 39.3339 36.6666 38.4006 36.6666 37.2539C36.6666 35.8139 36.2666 35.6006 35.3599 35.2806L27.3333 32.4806C25.6266 31.8673 23.3333 30.6406 23.3333 26.7206C23.3333 23.3873 25.9733 20.6406 29.2 20.6406H34.2132C37.7599 20.6406 40.6666 23.6273 40.6666 27.3073C40.6666 28.4006 39.7599 29.3073 38.6666 29.3073C37.5733 29.3073 36.6666 28.4006 36.6666 27.3073C36.6666 25.8406 35.5732 24.6406 34.2132 24.6406H29.2C28.16 24.6406 27.3333 25.574 27.3333 26.7206C27.3333 28.1606 27.7332 28.3739 28.6399 28.6939L36.6666 31.4939C38.3733 32.1073 40.6666 33.3339 40.6666 37.2539C40.6666 40.6139 38.0266 43.3339 34.7999 43.3339Z" fill="#8833FF"/>
<path d="M32 46C30.9067 46 30 45.0933 30 44V20C30 18.9067 30.9067 18 32 18C33.0933 18 34 18.9067 34 20V44C34 45.0933 33.0933 46 32 46Z" fill="#8833FF"/>
<path d="M31.9999 60.6673C16.1866 60.6673 3.33325 47.814 3.33325 32.0007C3.33325 16.1873 16.1866 3.33398 31.9999 3.33398C33.0933 3.33398 33.9999 4.24065 33.9999 5.33398C33.9999 6.42732 33.0933 7.33398 31.9999 7.33398C18.3999 7.33398 7.33325 18.4007 7.33325 32.0007C7.33325 45.6007 18.3999 56.6673 31.9999 56.6673C45.5999 56.6673 56.6666 45.6007 56.6666 32.0007C56.6666 30.9073 57.5733 30.0007 58.6666 30.0007C59.7599 30.0007 60.6666 30.9073 60.6666 32.0007C60.6666 47.814 47.8133 60.6673 31.9999 60.6673Z" fill="#8833FF"/>
<path d="M58.6667 18.0007C57.5733 18.0007 56.6667 17.094 56.6667 16.0007V7.33398H48C46.9067 7.33398 46 6.42732 46 5.33398C46 4.24065 46.9067 3.33398 48 3.33398H58.6667C59.76 3.33398 60.6667 4.24065 60.6667 5.33398V16.0007C60.6667 17.094 59.76 18.0007 58.6667 18.0007Z" fill="#8833FF"/>
<path d="M45.3332 20.6665C44.8265 20.6665 44.3198 20.4798 43.9198 20.0798C43.1465 19.3065 43.1465 18.0265 43.9198 17.2532L57.2532 3.91984C58.0265 3.14651 59.3065 3.14651 60.0798 3.91984C60.8532 4.69318 60.8532 5.97317 60.0798 6.7465L46.7465 20.0798C46.3465 20.4798 45.8398 20.6665 45.3332 20.6665Z" fill="#8833FF"/>
</svg>
