<svg width="37" height="30" viewBox="0 0 37 30" fill="none" xmlns="http://www.w3.org/2000/svg">
<path d="M4.20594 11.8687C4.80926 9.90458 5.94146 8.14432 7.47853 6.78074C6.64238 6.11188 7.47853 1.9555 7.47853 1.9555C7.47853 1.9555 10.8227 3.43627 11.4199 4.12918C11.4199 4.12918 13.9997 1 21.4764 1C28.9532 1 36 6.78074 36 14.4963C36 22.212 30.4103 24.6724 30.4103 24.6724C30.119 26.0336 29.6701 27.3563 29.0727 28.6137H26.1103C25.6377 27.8868 25.2149 27.1286 24.8449 26.3445C24.8449 26.3445 22.4801 26.6311 20.784 26.6311C19.5888 26.6068 18.3979 26.4789 17.2248 26.2489C17.1236 27.0891 16.8381 27.8966 16.3887 28.6137H13.1637C12.1604 27.7538 11.6588 25.0546 11.6588 25.0546C11.6588 25.0546 3.53708 21.3761 1.81715 19.1783C0.885608 17.4345 1.00497 13.5647 1.00497 13.5647C1.90806 12.7331 3.01067 12.1489 4.20594 11.8687Z" stroke="black" stroke-width="2" stroke-linecap="round" stroke-linejoin="round"/>
<path d="M14.501 5.63661C16.4147 4.26073 18.7402 3.57825 21.0939 3.70174C23.6658 3.65931 26.1815 4.45596 28.2601 5.97109" stroke="black" stroke-width="2" stroke-linecap="round" stroke-linejoin="round"/>
<path d="M7.38304 13.0415C7.75477 13.0415 8.05611 12.7401 8.05611 12.3684C8.05611 11.9967 7.75477 11.6953 7.38304 11.6953C7.01131 11.6953 6.70996 11.9967 6.70996 12.3684C6.70996 12.7401 7.01131 13.0415 7.38304 13.0415Z" fill="black"/>
</svg>
