<svg version="1.1" id="Layer_1" xmlns="http://www.w3.org/2000/svg" xmlns:xlink="http://www.w3.org/1999/xlink" x="0px" y="0px"
	 width="100%" viewBox="0 0 274 274" enable-background="new 0 0 274 274" xml:space="preserve">
<path fill="#FEFEFE" opacity="1.000000" stroke="none" 
	d="
M1.000000,105.000000 
	C1.000000,70.000015 1.000000,35.500031 1.000000,1.000032 
	C92.333282,1.000022 183.666565,1.000022 274.999878,1.000011 
	C274.999939,92.333244 274.999939,183.666489 274.999969,274.999817 
	C183.666794,274.999878 92.333588,274.999878 1.000193,274.999939 
	C1.000000,218.500000 1.000000,162.000000 1.000000,105.000000 
M238.852936,141.643814 
	C237.525543,140.252167 236.198166,138.860504 234.678802,137.267578 
	C242.868759,129.138931 250.899414,121.389526 258.599243,113.324265 
	C260.000488,111.856537 261.036102,108.855850 260.573456,106.972328 
	C254.787155,83.416100 248.758026,59.918274 242.546982,36.470158 
	C242.085251,34.727051 239.986450,32.594578 238.253387,32.135525 
	C214.808121,25.925350 191.274857,20.047846 167.818008,13.880230 
	C164.964951,13.130060 163.295654,13.671876 161.345490,15.691190 
	C153.510376,23.804085 145.512512,31.759806 137.287033,40.064144 
	C128.940170,31.706673 120.890495,23.769592 113.009140,15.668765 
	C111.047852,13.652858 109.362991,13.131454 106.532288,13.874946 
	C83.072968,20.036587 59.540367,25.919830 36.095566,32.134861 
	C34.386368,32.587959 32.348122,34.756474 31.884533,36.504482 
	C25.751602,59.629250 19.967951,82.846680 13.828130,105.969559 
	C12.928967,109.355850 13.464171,111.388023 15.930810,113.751373 
	C23.948601,121.433395 31.729162,129.363007 39.771713,137.367172 
	C31.334795,145.794800 23.226439,153.699554 15.418456,161.890640 
	C14.158868,163.212036 13.387891,166.017807 13.824231,167.783203 
	C19.644024,191.329926 25.799091,214.793716 31.630463,238.337662 
	C32.362309,241.292465 33.705067,242.348312 36.417473,243.028931 
	C58.976948,248.689636 81.544556,254.328354 104.007278,260.355469 
	C108.564110,261.578156 111.467880,261.169647 114.759628,257.557617 
	C121.890190,249.733353 129.577133,242.416153 137.150864,234.776260 
	C145.554474,243.223236 153.531158,251.032028 161.226120,259.109222 
	C163.400772,261.391876 165.346756,261.672638 168.177475,260.934601 
	C191.326981,254.899185 214.489410,248.910400 237.698746,243.110962 
	C240.706940,242.359299 242.087692,240.998550 242.817596,238.106567 
	C248.712387,214.750900 254.795258,191.442169 260.544159,168.051163 
	C261.010834,166.152313 260.055511,163.160660 258.680603,161.680115 
	C252.450226,154.971298 245.831894,148.622772 238.852936,141.643814 
z"/>
<path fill="#131313" opacity="1.000000" stroke="none" 
	d="
M239.103088,141.894180 
	C245.831894,148.622772 252.450226,154.971298 258.680603,161.680115 
	C260.055511,163.160660 261.010834,166.152313 260.544159,168.051163 
	C254.795258,191.442169 248.712387,214.750900 242.817596,238.106567 
	C242.087692,240.998550 240.706940,242.359299 237.698746,243.110962 
	C214.489410,248.910400 191.326981,254.899185 168.177475,260.934601 
	C165.346756,261.672638 163.400772,261.391876 161.226120,259.109222 
	C153.531158,251.032028 145.554474,243.223236 137.150864,234.776260 
	C129.577133,242.416153 121.890190,249.733353 114.759628,257.557617 
	C111.467880,261.169647 108.564110,261.578156 104.007278,260.355469 
	C81.544556,254.328354 58.976948,248.689636 36.417473,243.028931 
	C33.705067,242.348312 32.362309,241.292465 31.630463,238.337662 
	C25.799091,214.793716 19.644024,191.329926 13.824231,167.783203 
	C13.387891,166.017807 14.158868,163.212036 15.418456,161.890640 
	C23.226439,153.699554 31.334795,145.794800 39.771713,137.367172 
	C31.729162,129.363007 23.948601,121.433395 15.930810,113.751373 
	C13.464171,111.388023 12.928967,109.355850 13.828130,105.969559 
	C19.967951,82.846680 25.751602,59.629250 31.884533,36.504482 
	C32.348122,34.756474 34.386368,32.587959 36.095566,32.134861 
	C59.540367,25.919830 83.072968,20.036587 106.532288,13.874946 
	C109.362991,13.131454 111.047852,13.652858 113.009140,15.668765 
	C120.890495,23.769592 128.940170,31.706673 137.287033,40.064144 
	C145.512512,31.759806 153.510376,23.804085 161.345490,15.691190 
	C163.295654,13.671876 164.964951,13.130060 167.818008,13.880230 
	C191.274857,20.047846 214.808121,25.925350 238.253387,32.135525 
	C239.986450,32.594578 242.085251,34.727051 242.546982,36.470158 
	C248.758026,59.918274 254.787155,83.416100 260.573456,106.972328 
	C261.036102,108.855850 260.000488,111.856537 258.599243,113.324265 
	C250.899414,121.389526 242.868759,129.138931 234.678802,137.267578 
	C236.198166,138.860504 237.525543,140.252167 239.103088,141.894180 
M122.829262,107.670586 
	C127.532028,112.510231 132.234802,117.349884 136.601379,121.843552 
	C145.587021,112.794838 153.882172,104.441483 161.636688,96.632545 
	C153.441742,88.450211 145.020355,80.041771 136.910187,71.944077 
	C128.903854,79.933662 120.548912,88.271141 111.659332,97.142136 
	C115.076431,100.354019 118.702644,103.762459 122.829262,107.670586 
M90.198036,117.699173 
	C83.655609,124.213280 77.113182,130.727386 71.342529,136.473053 
	C80.181122,145.359787 88.563614,153.787949 96.714226,161.982971 
	C104.683144,154.046860 113.032379,145.732010 121.330986,137.467590 
	C112.923592,129.168930 104.449036,120.804001 95.161705,111.636803 
	C93.802856,113.329994 92.249672,115.265327 90.198036,117.699173 
M109.917099,231.435471 
	C114.036514,227.699600 118.155930,223.963715 122.014771,220.464157 
	C112.689178,211.108810 104.386078,202.779221 96.861710,195.230850 
	C86.331329,205.827805 75.666840,216.559708 65.288750,227.003403 
	C75.326057,229.558640 86.343948,232.019562 97.128571,235.257492 
	C102.339371,236.821976 106.312553,236.773819 109.917099,231.435471 
M52.895409,206.363800 
	C62.141068,197.125198 71.386726,187.886597 80.261414,179.018677 
	C71.481934,170.219086 63.162807,161.880905 54.340412,153.038300 
	C49.478031,158.055634 44.347515,163.255219 39.363056,168.591232 
	C38.584129,169.425079 37.889343,171.022919 38.136406,172.025894 
	C41.308342,184.902679 44.658730,197.735504 48.405521,212.295639 
	C50.230183,209.816391 51.317230,208.339371 52.895409,206.363800 
M43.018951,83.451935 
	C41.494701,89.392441 39.903160,95.317108 38.498192,101.285690 
	C38.185596,102.613647 37.942146,104.645065 38.665676,105.419868 
	C43.954147,111.083054 49.497387,116.508324 54.580612,121.626457 
	C63.396465,112.772102 71.692764,104.439575 79.689461,96.407951 
	C69.277199,86.021042 58.616940,75.386742 47.895737,64.691643 
	C46.368519,70.479607 44.764282,76.559456 43.018951,83.451935 
M205.372086,108.127777 
	C209.873184,112.776886 214.374283,117.425995 219.300461,122.514168 
	C224.854568,116.785179 229.973557,111.597885 234.947891,106.275414 
	C235.706879,105.463326 236.353119,103.890419 236.111679,102.898079 
	C232.992432,90.078270 229.702728,77.299927 226.529678,64.800865 
	C215.663269,75.657753 205.027115,86.284599 194.114014,97.188156 
	C197.477432,100.452026 201.174744,104.039909 205.372086,108.127777 
M200.058456,133.586914 
	C192.832138,126.360725 185.605835,119.134537 179.141998,112.670815 
	C170.371429,121.437035 161.978302,129.826019 154.452148,137.348419 
	C162.359940,145.336472 170.706741,153.767990 178.780426,161.923615 
	C186.788986,153.992950 195.156799,145.706528 203.634949,137.310867 
	C202.639847,136.252258 201.621918,135.169357 200.058456,133.586914 
M125.758835,164.258316 
	C120.989075,168.846573 116.219315,173.434830 111.910988,177.579224 
	C120.870636,186.552231 129.299973,194.994141 137.196274,202.902222 
	C145.298889,194.780396 153.685211,186.374176 161.997086,178.042587 
	C153.970993,170.012192 145.643906,161.680634 136.482590,152.514404 
	C133.160767,156.167664 129.709839,159.962921 125.758835,164.258316 
M171.375595,74.145645 
	C173.405518,76.564079 175.435440,78.982513 176.842377,80.658714 
	C188.286484,69.254723 198.948029,58.630566 209.572174,48.043667 
	C197.365585,44.894127 184.695709,41.581013 171.985962,38.428558 
	C170.959793,38.174030 169.330124,38.671925 168.540543,39.414917 
	C163.109406,44.525646 157.827301,49.794765 152.211655,55.292526 
	C158.766602,61.739235 164.818832,67.691528 171.375595,74.145645 
M167.288696,234.297379 
	C168.786560,235.053802 170.501877,236.722870 171.748734,236.425797 
	C184.563721,233.372543 197.302811,230.000824 209.686722,226.814743 
	C198.923416,215.993744 188.342072,205.355652 177.909180,194.866821 
	C169.845627,202.935822 161.505753,211.281311 152.728271,220.064728 
	C157.291885,224.521881 162.034897,229.154236 167.288696,234.297379 
M114.974907,48.540756 
	C114.739929,48.304703 114.453911,48.101559 114.277351,47.827824 
	C108.354553,38.645000 100.655701,37.348095 90.635429,41.127262 
	C82.120865,44.338554 72.996986,45.934303 65.052345,48.007484 
	C75.725311,58.725002 86.350845,69.394905 96.375877,79.461784 
	C104.293739,71.555573 112.615364,63.246181 121.638611,54.236206 
	C119.799782,52.685287 117.640327,50.863949 114.974907,48.540756 
M233.638153,167.160568 
	C229.021729,162.385681 224.405289,157.610779 220.039093,153.094711 
	C211.201126,161.929214 202.749573,170.377441 195.426086,177.698044 
	C205.742737,188.043457 216.341583,198.671875 226.737030,209.096313 
	C229.661575,197.734222 232.915710,185.556961 235.808624,173.294479 
	C236.193161,171.664520 234.743027,169.601761 233.638153,167.160568 
z"/>
<path fill="#FBFBFB" opacity="1.000000" stroke="none" 
	d="
M122.579063,107.420746 
	C118.702644,103.762459 115.076431,100.354019 111.659332,97.142136 
	C120.548912,88.271141 128.903854,79.933662 136.910187,71.944077 
	C145.020355,80.041771 153.441742,88.450211 161.636688,96.632545 
	C153.882172,104.441483 145.587021,112.794838 136.601379,121.843552 
	C132.234802,117.349884 127.532028,112.510231 122.579063,107.420746 
z"/>
<path fill="#FBFBFB" opacity="1.000000" stroke="none" 
	d="
M90.447266,117.449921 
	C92.249672,115.265327 93.802856,113.329994 95.161705,111.636803 
	C104.449036,120.804001 112.923592,129.168930 121.330986,137.467590 
	C113.032379,145.732010 104.683144,154.046860 96.714226,161.982971 
	C88.563614,153.787949 80.181122,145.359787 71.342529,136.473053 
	C77.113182,130.727386 83.655609,124.213280 90.447266,117.449921 
z"/>
<path fill="#F9F9F9" opacity="1.000000" stroke="none" 
	d="
M109.664047,231.686050 
	C106.312553,236.773819 102.339371,236.821976 97.128571,235.257492 
	C86.343948,232.019562 75.326057,229.558640 65.288750,227.003403 
	C75.666840,216.559708 86.331329,205.827805 96.861710,195.230850 
	C104.386078,202.779221 112.689178,211.108810 122.014771,220.464157 
	C118.155930,223.963715 114.036514,227.699600 109.664047,231.686050 
z"/>
<path fill="#FAFAFA" opacity="1.000000" stroke="none" 
	d="
M52.649845,206.613068 
	C51.317230,208.339371 50.230183,209.816391 48.405521,212.295639 
	C44.658730,197.735504 41.308342,184.902679 38.136406,172.025894 
	C37.889343,171.022919 38.584129,169.425079 39.363056,168.591232 
	C44.347515,163.255219 49.478031,158.055634 54.340412,153.038300 
	C63.162807,161.880905 71.481934,170.219086 80.261414,179.018677 
	C71.386726,187.886597 62.141068,197.125198 52.649845,206.613068 
z"/>
<path fill="#FBFBFB" opacity="1.000000" stroke="none" 
	d="
M43.089500,83.045616 
	C44.764282,76.559456 46.368519,70.479607 47.895737,64.691643 
	C58.616940,75.386742 69.277199,86.021042 79.689461,96.407951 
	C71.692764,104.439575 63.396465,112.772102 54.580612,121.626457 
	C49.497387,116.508324 43.954147,111.083054 38.665676,105.419868 
	C37.942146,104.645065 38.185596,102.613647 38.498192,101.285690 
	C39.903160,95.317108 41.494701,89.392441 43.089500,83.045616 
z"/>
<path fill="#FAFAFA" opacity="1.000000" stroke="none" 
	d="
M205.122070,107.877785 
	C201.174744,104.039909 197.477432,100.452026 194.114014,97.188156 
	C205.027115,86.284599 215.663269,75.657753 226.529678,64.800865 
	C229.702728,77.299927 232.992432,90.078270 236.111679,102.898079 
	C236.353119,103.890419 235.706879,105.463326 234.947891,106.275414 
	C229.973557,111.597885 224.854568,116.785179 219.300461,122.514168 
	C214.374283,117.425995 209.873184,112.776886 205.122070,107.877785 
z"/>
<path fill="#FDFDFD" opacity="1.000000" stroke="none" 
	d="
M200.331207,133.836685 
	C201.621918,135.169357 202.639847,136.252258 203.634949,137.310867 
	C195.156799,145.706528 186.788986,153.992950 178.780426,161.923615 
	C170.706741,153.767990 162.359940,145.336472 154.452148,137.348419 
	C161.978302,129.826019 170.371429,121.437035 179.141998,112.670815 
	C185.605835,119.134537 192.832138,126.360725 200.331207,133.836685 
z"/>
<path fill="#FDFDFD" opacity="1.000000" stroke="none" 
	d="
M126.008873,164.008240 
	C129.709839,159.962921 133.160767,156.167664 136.482590,152.514404 
	C145.643906,161.680634 153.970993,170.012192 161.997086,178.042587 
	C153.685211,186.374176 145.298889,194.780396 137.196274,202.902222 
	C129.299973,194.994141 120.870636,186.552231 111.910988,177.579224 
	C116.219315,173.434830 120.989075,168.846573 126.008873,164.008240 
z"/>
<path fill="#FBFBFB" opacity="1.000000" stroke="none" 
	d="
M171.123337,73.894730 
	C164.818832,67.691528 158.766602,61.739235 152.211655,55.292526 
	C157.827301,49.794765 163.109406,44.525646 168.540543,39.414917 
	C169.330124,38.671925 170.959793,38.174030 171.985962,38.428558 
	C184.695709,41.581013 197.365585,44.894127 209.572174,48.043667 
	C198.948029,58.630566 188.286484,69.254723 176.842377,80.658714 
	C175.435440,78.982513 173.405518,76.564079 171.123337,73.894730 
z"/>
<path fill="#FBFBFB" opacity="1.000000" stroke="none" 
	d="
M167.033295,234.041992 
	C162.034897,229.154236 157.291885,224.521881 152.728271,220.064728 
	C161.505753,211.281311 169.845627,202.935822 177.909180,194.866821 
	C188.342072,205.355652 198.923416,215.993744 209.686722,226.814743 
	C197.302811,230.000824 184.563721,233.372543 171.748734,236.425797 
	C170.501877,236.722870 168.786560,235.053802 167.033295,234.041992 
z"/>
<path fill="#FCFCFC" opacity="1.000000" stroke="none" 
	d="
M115.227890,48.791683 
	C117.640327,50.863949 119.799782,52.685287 121.638611,54.236206 
	C112.615364,63.246181 104.293739,71.555573 96.375877,79.461784 
	C86.350845,69.394905 75.725311,58.725002 65.052345,48.007484 
	C72.996986,45.934303 82.120865,44.338554 90.635429,41.127262 
	C100.655701,37.348095 108.354553,38.645000 114.277351,47.827824 
	C114.453911,48.101559 114.739929,48.304703 115.227890,48.791683 
z"/>
<path fill="#FDFDFD" opacity="1.000000" stroke="none" 
	d="
M233.890350,167.449997 
	C234.743027,169.601761 236.193161,171.664520 235.808624,173.294479 
	C232.915710,185.556961 229.661575,197.734222 226.737030,209.096313 
	C216.341583,198.671875 205.742737,188.043457 195.426086,177.698044 
	C202.749573,170.377441 211.201126,161.929214 220.039093,153.094711 
	C224.405289,157.610779 229.021729,162.385681 233.890350,167.449997 
z"/>
</svg>