<svg width="24" height="24" viewBox="0 0 24 24" fill="none" xmlns="http://www.w3.org/2000/svg">
<g id="Group 8939">
<circle id="Ellipse 136" cx="12" cy="12" r="12" fill="#100D40"/>
<g id="Group 8937">
<path id="Vector" d="M18.8129 12.3071C19.0629 12.1712 19.0629 11.8347 18.8129 11.6989L16.3879 10.3762L13.9566 9.04758C13.7129 8.91177 13.4004 9.08301 13.4004 9.35463V12V14.6454C13.4004 14.917 13.7129 15.0882 13.9566 14.9524L16.3816 13.6297L18.8129 12.3071Z" fill="white"/>
<path id="Vector_2" d="M5.18711 12.3071C4.93711 12.1712 4.93711 11.8347 5.18711 11.6989L7.61211 10.3762L10.0434 9.04758C10.2871 8.91177 10.5996 9.08301 10.5996 9.35463V12V14.6454C10.5996 14.917 10.2871 15.0882 10.0434 14.9524L7.61836 13.6297L5.18711 12.3071Z" fill="white"/>
</g>
</g>
</svg>
