<svg width="33" height="32" viewBox="0 0 33 32" fill="none" xmlns="http://www.w3.org/2000/svg">
<g clip-path="url(#clip0_1901_8228)">
<path d="M15.1667 18.2973C14.7615 18.066 14.4247 17.7317 14.1905 17.3282C13.9562 16.9248 13.8328 16.4665 13.8328 16C13.8328 15.5335 13.9562 15.0752 14.1905 14.6718C14.4247 14.2683 14.7615 13.934 15.1667 13.7027V9.33333C15.1667 8.97971 15.3071 8.64057 15.5572 8.39052C15.8072 8.14048 16.1464 8 16.5 8C16.8536 8 17.1928 8.14048 17.4428 8.39052C17.6929 8.64057 17.8333 8.97971 17.8333 9.33333V13.7027C18.2385 13.934 18.5753 14.2683 18.8095 14.6718C19.0438 15.0752 19.1672 15.5335 19.1672 16C19.1672 16.4665 19.0438 16.9248 18.8095 17.3282C18.5753 17.7317 18.2385 18.066 17.8333 18.2973V21.3333C17.8333 21.687 17.6929 22.0261 17.4428 22.2761C17.1928 22.5262 16.8536 22.6667 16.5 22.6667C16.1464 22.6667 15.8072 22.5262 15.5572 22.2761C15.3071 22.0261 15.1667 21.687 15.1667 21.3333V18.2973ZM16.5 0C16.1464 0 15.8072 0.140476 15.5572 0.390524C15.3071 0.640573 15.1667 0.979711 15.1667 1.33333C15.1667 1.68696 15.3071 2.02609 15.5572 2.27614C15.8072 2.52619 16.1464 2.66667 16.5 2.66667C20.0362 2.66667 23.4276 4.07142 25.9281 6.57191C28.4286 9.0724 29.8333 12.4638 29.8333 16C29.8333 19.5362 28.4286 22.9276 25.9281 25.4281C23.4276 27.9286 20.0362 29.3333 16.5 29.3333C16.1464 29.3333 15.8072 29.4738 15.5572 29.7239C15.3071 29.9739 15.1667 30.313 15.1667 30.6667C15.1667 31.0203 15.3071 31.3594 15.5572 31.6095C15.8072 31.8595 16.1464 32 16.5 32C20.7435 32 24.8131 30.3143 27.8137 27.3137C30.8143 24.3131 32.5 20.2435 32.5 16C32.5 11.7565 30.8143 7.68687 27.8137 4.68629C24.8131 1.68571 20.7435 0 16.5 0ZM2.936 9.04533C2.67229 9.04533 2.41451 9.12353 2.19524 9.27004C1.97597 9.41655 1.80508 9.62479 1.70416 9.86842C1.60324 10.1121 1.57684 10.3801 1.62829 10.6388C1.67973 10.8974 1.80672 11.135 1.99319 11.3215C2.17966 11.5079 2.41724 11.6349 2.67588 11.6864C2.93452 11.7378 3.20261 11.7114 3.44625 11.6105C3.68988 11.5096 3.89812 11.3387 4.04463 11.1194C4.19114 10.9002 4.26933 10.6424 4.26933 10.3787C4.26933 10.025 4.12886 9.68591 3.87881 9.43586C3.62876 9.18581 3.28962 9.04533 2.936 9.04533ZM3.16667 16C3.16667 15.7363 3.08847 15.4785 2.94196 15.2592C2.79545 15.04 2.58721 14.8691 2.34358 14.7682C2.09994 14.6672 1.83185 14.6408 1.57321 14.6923C1.31457 14.7437 1.07699 14.8707 0.890525 15.0572C0.704055 15.2437 0.577067 15.4812 0.52562 15.7399C0.474173 15.9985 0.500578 16.2666 0.601495 16.5102C0.702411 16.7539 0.873308 16.9621 1.09257 17.1086C1.31184 17.2551 1.56963 17.3333 1.83333 17.3333C2.18696 17.3333 2.52609 17.1929 2.77614 16.9428C3.02619 16.6928 3.16667 16.3536 3.16667 16ZM6.128 4.276C5.86429 4.276 5.60651 4.3542 5.38724 4.50071C5.16797 4.64722 4.99708 4.85545 4.89616 5.09909C4.79524 5.34272 4.76884 5.61081 4.82029 5.86945C4.87173 6.1281 4.99872 6.36567 5.18519 6.55214C5.37166 6.73861 5.60924 6.8656 5.86788 6.91705C6.12652 6.96849 6.39461 6.94209 6.63825 6.84117C6.88188 6.74026 7.09012 6.56936 7.23663 6.35009C7.38314 6.13083 7.46133 5.87304 7.46133 5.60933C7.46133 5.25571 7.32086 4.91657 7.07081 4.66652C6.82076 4.41648 6.48162 4.276 6.128 4.276ZM10.872 1.12133C10.6083 1.12133 10.3505 1.19953 10.1312 1.34604C9.91197 1.49255 9.74108 1.70079 9.64016 1.94442C9.53924 2.18806 9.51284 2.45615 9.56429 2.71479C9.61573 2.97343 9.74272 3.21101 9.92919 3.39748C10.1157 3.58395 10.3532 3.71093 10.6119 3.76238C10.8705 3.81383 11.1386 3.78742 11.3822 3.68651C11.6259 3.58559 11.8341 3.41469 11.9806 3.19543C12.1271 2.97616 12.2053 2.71838 12.2053 2.45467C12.2053 2.10104 12.0649 1.76191 11.8148 1.51186C11.5648 1.26181 11.2256 1.12133 10.872 1.12133ZM2.936 20.288C2.67229 20.288 2.41451 20.3662 2.19524 20.5127C1.97597 20.6592 1.80508 20.8675 1.70416 21.1111C1.60324 21.3547 1.57684 21.6228 1.62829 21.8815C1.67973 22.1401 1.80672 22.3777 1.99319 22.5641C2.17966 22.7506 2.41724 22.8776 2.67588 22.929C2.93452 22.9805 3.20261 22.9541 3.44625 22.8532C3.68988 22.7523 3.89812 22.5814 4.04463 22.3621C4.19114 22.1428 4.26933 21.885 4.26933 21.6213C4.26933 21.2677 4.12886 20.9286 3.87881 20.6785C3.62876 20.4285 3.28962 20.288 2.936 20.288ZM6.128 25.0573C5.86429 25.0573 5.60651 25.1355 5.38724 25.282C5.16797 25.4286 4.99708 25.6368 4.89616 25.8804C4.79524 26.1241 4.76884 26.3921 4.82029 26.6508C4.87173 26.9094 4.99872 27.147 5.18519 27.3335C5.37166 27.5199 5.60924 27.6469 5.86788 27.6984C6.12652 27.7498 6.39461 27.7234 6.63825 27.6225C6.88188 27.5216 7.09012 27.3507 7.23663 27.1314C7.38314 26.9122 7.46133 26.6544 7.46133 26.3907C7.46133 26.037 7.32086 25.6979 7.07081 25.4479C6.82076 25.1978 6.48162 25.0573 6.128 25.0573ZM10.872 28.212C10.6083 28.212 10.3505 28.2902 10.1312 28.4367C9.91197 28.5832 9.74108 28.7915 9.64016 29.0351C9.53924 29.2787 9.51284 29.5468 9.56429 29.8055C9.61573 30.0641 9.74272 30.3017 9.92919 30.4881C10.1157 30.6746 10.3532 30.8016 10.6119 30.853C10.8705 30.9045 11.1386 30.8781 11.3822 30.7772C11.6259 30.6763 11.8341 30.5054 11.9806 30.2861C12.1271 30.0668 12.2053 29.809 12.2053 29.5453C12.2053 29.1917 12.0649 28.8526 11.8148 28.6025C11.5648 28.3525 11.2256 28.212 10.872 28.212Z" fill="black"/>
</g>
<defs>
<clipPath id="clip0_1901_8228">
<rect width="32" height="32" fill="white" transform="translate(0.5)"/>
</clipPath>
</defs>
</svg>
