<svg width="17" height="18" viewBox="0 0 17 18" fill="none" xmlns="http://www.w3.org/2000/svg">
<g id="PaperPlaneTilt">
<g id="Vector">
<path d="M14.7542 2.22733C14.6215 2.08856 14.456 1.98929 14.2745 1.93973C14.093 1.89017 13.9022 1.8921 13.7217 1.94533L1.43469 5.57333C1.22796 5.63437 1.04394 5.76001 0.907244 5.93346C0.770545 6.10692 0.687676 6.31992 0.669712 6.544C0.651749 6.76808 0.699546 6.99257 0.806716 7.18745C0.913885 7.38233 1.07532 7.53832 1.26945 7.63458L6.40862 10.183L9.9222 6.50475C10.0211 6.40117 10.1553 6.34298 10.2953 6.34298C10.4352 6.34298 10.5694 6.40117 10.6683 6.50475C10.7673 6.60833 10.8228 6.74881 10.8228 6.89529C10.8228 7.04177 10.7673 7.18225 10.6683 7.28583L7.15473 10.9641L9.58907 16.3442C9.6734 16.5335 9.8077 16.6936 9.97613 16.8055C10.1446 16.9175 10.3401 16.9766 10.5396 16.976C10.5698 16.976 10.6002 16.9747 10.6308 16.972C10.8453 16.9545 11.0493 16.8682 11.2152 16.7249C11.3811 16.5816 11.5008 16.3883 11.558 16.1712L15.0236 3.30822C15.0744 3.11924 15.0762 2.91951 15.0288 2.72955C14.9815 2.53958 14.8867 2.36624 14.7542 2.22733Z" fill="black"/>
<path d="M14.7542 2.22733C14.6215 2.08856 14.456 1.98929 14.2745 1.93973C14.093 1.89017 13.9022 1.8921 13.7217 1.94533L1.43469 5.57333C1.22796 5.63437 1.04394 5.76001 0.907244 5.93346C0.770545 6.10692 0.687676 6.31992 0.669712 6.544C0.651749 6.76808 0.699546 6.99257 0.806716 7.18745C0.913885 7.38233 1.07532 7.53832 1.26945 7.63458L6.40862 10.183L9.9222 6.50475C10.0211 6.40117 10.1553 6.34298 10.2953 6.34298C10.4352 6.34298 10.5694 6.40117 10.6683 6.50475C10.7673 6.60833 10.8228 6.74881 10.8228 6.89529C10.8228 7.04177 10.7673 7.18225 10.6683 7.28583L7.15473 10.9641L9.58907 16.3442C9.6734 16.5335 9.8077 16.6936 9.97613 16.8055C10.1446 16.9175 10.3401 16.9766 10.5396 16.976C10.5698 16.976 10.6002 16.9747 10.6308 16.972C10.8453 16.9545 11.0493 16.8682 11.2152 16.7249C11.3811 16.5816 11.5008 16.3883 11.558 16.1712L15.0236 3.30822C15.0744 3.11924 15.0762 2.91951 15.0288 2.72955C14.9815 2.53958 14.8867 2.36624 14.7542 2.22733Z" fill="url(#paint0_linear_2521_8100)"/>
</g>
</g>
<defs>
<linearGradient id="paint0_linear_2521_8100" x1="0.884152" y1="4.64431" x2="14.2893" y2="16.364" gradientUnits="userSpaceOnUse">
<stop stop-color="#62C697"/>
<stop offset="0.25" stop-color="#62C697"/>
<stop offset="0.5" stop-color="#5A92B3"/>
<stop offset="0.75" stop-color="#5B76C2"/>
<stop offset="1" stop-color="#6554D8"/>
</linearGradient>
</defs>
</svg>
