<svg width="34" height="34" viewBox="0 0 34 34" fill="none" xmlns="http://www.w3.org/2000/svg">
<rect x="0.666504" y="0.5" width="24.2857" height="24.2857" rx="6" fill="#EDE1FF"/>
<path d="M19.6667 23.2923C17.5783 23.2923 15.875 21.589 15.875 19.5007C15.875 17.4123 17.5783 15.709 19.6667 15.709C21.755 15.709 23.4583 17.4123 23.4583 19.5007C23.4583 21.589 21.755 23.2923 19.6667 23.2923ZM19.6667 17.459C18.5467 17.459 17.625 18.3807 17.625 19.5007C17.625 20.6207 18.5467 21.5423 19.6667 21.5423C20.7867 21.5423 21.7083 20.6207 21.7083 19.5007C21.7083 18.3807 20.7867 17.459 19.6667 17.459Z" fill="#8833FF"/>
<path d="M27.25 23.2923C26.7717 23.2923 26.375 22.8957 26.375 22.4173V16.584C26.375 16.1057 26.7717 15.709 27.25 15.709C27.7283 15.709 28.125 16.1057 28.125 16.584V22.4173C28.125 22.8957 27.7283 23.2923 27.25 23.2923Z" fill="#8833FF"/>
<path d="M11.4997 32.0423C8.44301 32.0423 5.95801 29.5573 5.95801 26.5007C5.95801 23.444 8.44301 20.959 11.4997 20.959C14.5563 20.959 17.0413 23.444 17.0413 26.5007C17.0413 29.5573 14.5563 32.0423 11.4997 32.0423ZM11.4997 22.709C9.41134 22.709 7.70801 24.4123 7.70801 26.5007C7.70801 28.589 9.41134 30.2923 11.4997 30.2923C13.588 30.2923 15.2913 28.589 15.2913 26.5007C15.2913 24.4123 13.588 22.709 11.4997 22.709Z" fill="#8833FF"/>
<path d="M10.3332 28.543C10.0415 28.543 9.74986 28.3914 9.58653 28.123C9.34153 27.7147 9.46987 27.1663 9.88987 26.9213L10.7765 26.3847C10.8582 26.338 10.9165 26.233 10.9165 26.1397V25.0547C10.9165 24.5764 11.3132 24.1797 11.7915 24.1797C12.2699 24.1797 12.6665 24.5764 12.6665 25.0547V26.1397C12.6665 26.8513 12.2816 27.528 11.6749 27.8897L10.7882 28.4264C10.6482 28.508 10.4849 28.543 10.3332 28.543Z" fill="#8833FF"/>
<path d="M25.5 29.7077H15.5833C15.105 29.7077 14.7083 29.311 14.7083 28.8327C14.7083 28.3544 15.105 27.9577 15.5833 27.9577H25.5C28.8367 27.9577 30.4583 26.336 30.4583 22.9993V15.9993C30.4583 12.6627 28.8367 11.041 25.5 11.041H13.8333C10.4967 11.041 8.875 12.6627 8.875 15.9993V23.2327C8.875 23.711 8.47833 24.1077 8 24.1077C7.52167 24.1077 7.125 23.711 7.125 23.2327V15.9993C7.125 11.741 9.575 9.29102 13.8333 9.29102H25.5C29.7583 9.29102 32.2083 11.741 32.2083 15.9993V22.9993C32.2083 27.2577 29.7583 29.7077 25.5 29.7077Z" fill="#8833FF"/>
</svg>
