<svg width="34" height="34" viewBox="0 0 34 34" fill="none" xmlns="http://www.w3.org/2000/svg">
<rect x="0.333496" width="24.2857" height="24.2857" rx="6" fill="#EDE1FF"/>
<path fill-rule="evenodd" clip-rule="evenodd" d="M18.976 9.41127C13.4433 9.41127 8.95815 13.8964 8.95815 19.4291C8.95815 24.9618 13.4433 29.447 18.976 29.447C24.5087 29.447 28.9939 24.9618 28.9939 19.4291C28.9939 18.3987 28.8386 17.4062 28.5508 16.4729C28.4026 15.9923 28.6721 15.4825 29.1527 15.3343C29.6333 15.1861 30.1432 15.4556 30.2913 15.9362C30.6322 17.0415 30.8153 18.2147 30.8153 19.4291C30.8153 25.9678 25.5147 31.2684 18.976 31.2684C12.4373 31.2684 7.13672 25.9678 7.13672 19.4291C7.13672 12.8905 12.4373 7.58984 18.976 7.58984C19.815 7.58984 20.6346 7.67726 21.4258 7.84379C21.918 7.94739 22.233 8.43037 22.1294 8.92256C22.0258 9.41474 21.5428 9.72977 21.0506 9.62616C20.382 9.48544 19.6882 9.41127 18.976 9.41127ZM27.425 8.05306C27.7943 7.71147 28.3704 7.73385 28.712 8.10304L30.9591 10.5316C31.2821 10.8807 31.2821 11.4195 30.9591 11.7686L28.712 14.1972C28.3704 14.5664 27.7943 14.5887 27.425 14.2472C27.0559 13.9056 27.0335 13.3294 27.3751 12.9602L28.2071 12.061H24.2193C23.7163 12.061 23.3086 11.6532 23.3086 11.1502C23.3086 10.6473 23.7163 10.2395 24.2193 10.2395H28.2074L27.3751 9.34004C27.0335 8.97085 27.0559 8.39465 27.425 8.05306ZM18.976 11.2327C19.479 11.2327 19.8867 11.6404 19.8867 12.1434V13.6884H19.9193C21.7874 13.6884 23.3019 15.2028 23.3019 17.071C23.3019 17.5741 22.8941 17.9817 22.3912 17.9817C21.8882 17.9817 21.4805 17.5741 21.4805 17.071C21.4805 16.2088 20.7815 15.5098 19.9193 15.5098H19.8867V18.5347H19.9843C21.8166 18.5347 23.3019 20.02 23.3019 21.8522C23.3019 23.6846 21.8166 25.1699 19.9843 25.1699H19.8867V26.7148C19.8867 27.2178 19.479 27.6256 18.976 27.6256C18.473 27.6256 18.0653 27.2178 18.0653 26.7148V25.1699H17.9677C16.1354 25.1699 14.6501 23.6846 14.6501 21.8522C14.6501 21.3493 15.0579 20.9415 15.5608 20.9415C16.0638 20.9415 16.4715 21.3493 16.4715 21.8522C16.4715 22.6786 17.1413 23.3485 17.9677 23.3485H18.0653V20.3561H17.9839C16.1427 20.3561 14.6501 18.8635 14.6501 17.0223C14.6501 15.181 16.1427 13.6884 17.9839 13.6884H18.0653V12.1434C18.0653 11.6404 18.473 11.2327 18.976 11.2327ZM18.0653 15.5098H17.9839C17.1486 15.5098 16.4715 16.1869 16.4715 17.0223C16.4715 17.8575 17.1486 18.5347 17.9839 18.5347H18.0653V15.5098ZM19.8867 20.3561V23.3485H19.9843C20.8107 23.3485 21.4805 22.6786 21.4805 21.8522C21.4805 21.0259 20.8107 20.3561 19.9843 20.3561H19.8867Z" fill="#8833FF"/>
</svg>
