<svg width="33" height="34" viewBox="0 0 33 34" fill="none" xmlns="http://www.w3.org/2000/svg">
<rect y="0.5" width="24.2857" height="24.2857" rx="6" fill="#EDE1FF"/>
<path d="M13.3646 32.0435C10.5879 32.0435 8.31299 30.0252 8.31299 27.5402V25.1602C8.31299 24.6818 8.70965 24.2852 9.18799 24.2852C9.66632 24.2852 10.063 24.6818 10.063 25.1602C10.063 26.6185 11.4746 27.7152 13.3646 27.7152C15.2546 27.7152 16.6663 26.6185 16.6663 25.1602C16.6663 24.6818 17.063 24.2852 17.5413 24.2852C18.0196 24.2852 18.4163 24.6818 18.4163 25.1602V27.5402C18.4163 30.0252 16.1529 32.0435 13.3646 32.0435ZM10.3663 28.6835C10.8796 29.6402 12.0346 30.2935 13.3646 30.2935C14.6946 30.2935 15.8496 29.6285 16.3629 28.6835C15.5346 29.1852 14.5079 29.4768 13.3646 29.4768C12.2213 29.4768 11.1946 29.1852 10.3663 28.6835Z" fill="#8833FF"/>
<path d="M13.3646 26.2689C11.4513 26.2689 9.73631 25.3939 8.88464 24.0056C8.51131 23.3989 8.31299 22.6873 8.31299 21.9639C8.31299 20.7389 8.84964 19.5956 9.82964 18.7439C11.7196 17.0873 14.9746 17.0873 16.8763 18.7323C17.8563 19.5957 18.4046 20.7389 18.4046 21.9639C18.4046 22.6873 18.2063 23.3989 17.833 24.0056C16.993 25.3939 15.2779 26.2689 13.3646 26.2689ZM13.3646 19.2106C12.4546 19.2106 11.6146 19.5139 10.9846 20.0623C10.3896 20.5756 10.063 21.2523 10.063 21.9639C10.063 22.3723 10.1679 22.7456 10.3779 23.0956C10.9146 23.9823 12.0579 24.5306 13.3646 24.5306C14.6713 24.5306 15.8146 23.9823 16.3396 23.1073C16.5496 22.769 16.6546 22.384 16.6546 21.9756C16.6546 21.264 16.328 20.5873 15.733 20.0623C15.1146 19.5139 14.2746 19.2106 13.3646 19.2106Z" fill="#8833FF"/>
<path d="M13.3646 29.4756C10.4829 29.4756 8.31299 27.6206 8.31299 25.1706V21.9623C8.31299 19.4773 10.5763 17.459 13.3646 17.459C14.6829 17.459 15.943 17.914 16.888 18.7307C17.868 19.594 18.4163 20.7373 18.4163 21.9623V25.1706C18.4163 27.6206 16.2463 29.4756 13.3646 29.4756ZM13.3646 19.209C11.5446 19.209 10.063 20.4456 10.063 21.9623V25.1706C10.063 26.629 11.4746 27.7256 13.3646 27.7256C15.2546 27.7256 16.6663 26.629 16.6663 25.1706V21.9623C16.6663 21.2506 16.3397 20.574 15.7446 20.049C15.1146 19.5123 14.2746 19.209 13.3646 19.209Z" fill="#8833FF"/>
<path d="M27.213 22.7657C25.4514 22.7657 23.9581 21.4591 23.8181 19.7791C23.7247 18.8107 24.0747 17.8658 24.7747 17.1774C25.3581 16.5708 26.1864 16.2324 27.0614 16.2324H29.4997C30.6547 16.2674 31.5414 17.1774 31.5414 18.2974V20.7008C31.5414 21.8208 30.6548 22.7307 29.5348 22.7657H27.213ZM29.4647 17.9824H27.073C26.6647 17.9824 26.2914 18.1341 26.0231 18.4141C25.6848 18.7407 25.5214 19.1841 25.5681 19.6274C25.6264 20.3974 26.373 21.0157 27.213 21.0157H29.4997C29.6514 21.0157 29.7914 20.8758 29.7914 20.7008V18.2974C29.7914 18.1224 29.6514 17.9941 29.4647 17.9824Z" fill="#8833FF"/>
<path d="M23.6668 30.2923H20.7501C20.2718 30.2923 19.8751 29.8957 19.8751 29.4173C19.8751 28.939 20.2718 28.5423 20.7501 28.5423H23.6668C26.6768 28.5423 28.6251 26.594 28.6251 23.584V22.7673H27.2134C25.4518 22.7673 23.9585 21.4606 23.8185 19.7806C23.7251 18.8123 24.0751 17.8673 24.7751 17.179C25.3585 16.5723 26.1868 16.234 27.0618 16.234H28.6134V15.4173C28.6134 12.6873 27.0152 10.809 24.4252 10.5056C24.1452 10.459 23.9001 10.459 23.6551 10.459H13.1551C12.8751 10.459 12.6068 10.4823 12.3384 10.5173C9.77176 10.844 8.19678 12.7107 8.19678 15.4173V17.7507C8.19678 18.229 7.80011 18.6257 7.32178 18.6257C6.84344 18.6257 6.44678 18.229 6.44678 17.7507V15.4173C6.44678 11.824 8.66349 9.22233 12.1052 8.79066C12.4202 8.74399 12.7818 8.70898 13.1551 8.70898H23.6551C23.9351 8.70898 24.2968 8.72065 24.6701 8.77898C28.1118 9.17565 30.3634 11.789 30.3634 15.4173V17.109C30.3634 17.5873 29.9668 17.984 29.4884 17.984H27.0618C26.6534 17.984 26.2801 18.1357 26.0118 18.4157C25.6735 18.7423 25.5101 19.1856 25.5568 19.629C25.6151 20.399 26.3618 21.0173 27.2018 21.0173H29.5001C29.9785 21.0173 30.3751 21.414 30.3751 21.8923V23.584C30.3751 27.5973 27.6801 30.2923 23.6668 30.2923Z" fill="#8833FF"/>
</svg>
